<?xml version="1.0" encoding="utf-8"?>
<!-- Generator: Adobe Illustrator 24.0.1, SVG Export Plug-In . SVG Version: 6.00 Build 0)  -->
<svg version="1.1" xmlns="http://www.w3.org/2000/svg" xmlns:xlink="http://www.w3.org/1999/xlink" x="0px" y="0px"
	 viewBox="0 0 500 500" style="enable-background:new 0 0 500 500;" xml:space="preserve">
<style type="text/css">
	.st0{display:none;}
	.st1{display:inline;fill:#FFFFFF;}
	.st2{opacity:0.2;fill:#6A8185;}
	.st3{fill:#3E2D4A;}
	.st4{fill:#FEFADA;}
	.st5{fill:#CA9661;}
	.st6{fill:#6E6C7B;}
	.st7{fill:#6A8185;}
	.st8{fill:#E7BD9F;}
	.st9{fill:#34263B;}
	.st10{fill:#A0444E;}
	.st11{fill:#C87D79;}
	.st12{fill:#A34D5B;}
	.st13{fill:#515562;}
	.st14{fill:#44324E;}
	.st15{fill:#863A42;}
	.st16{fill:#D3D0B1;}
	.st17{fill:#68818D;}
	.st18{fill:#493558;}
	.st19{fill:#B94D59;}
	.st20{fill:#C37E59;}
	.st21{fill:#57495B;}
	.st22{fill:#323044;}
	.st23{fill:#A36E4C;}
	.st24{fill:#9B434C;}
	.st25{fill:#7F6873;}
	.st26{fill:#DC9A8E;}
	.st27{fill:#934048;}
</style>
<g id="BACKGROUND" class="st0">
	<rect class="st1" width="500" height="500"/>
</g>
<g id="OBJECTS">
	<path class="st2" d="M120.68,113.29c0,0,76.9-87.51,166.2-45.04s13.1,81.08,28.97,79.95c15.87-1.12,94.6-63.87,127.32,33.65
		s11.96,151.11-53.37,158.76s27.49,38.3-10.96,65.27s-183.26,60.16-217.06,15.38s0.26-100.92,0.26-100.92s-42.26,72.08-78.6,33.29
		s-36.39-138.11,0.4-153.7s63.74-33.9,45.71-32.6C111.54,168.64,95.96,140.72,120.68,113.29z"/>
	<g>
		<path class="st3" d="M217.96,228.81c0,0-28.7-2.04-37.8-33.14s-40.99-57.59-46.12-69.02s35.24-14.17,57.88,6.14
			S232.27,205.48,217.96,228.81z"/>
		<g>
			<path class="st4" d="M214.09,226.08c-1.12-1.17-2.26-5.15-3.99-11.16c-4.6-16.04-13.17-45.89-34.61-66.4
				c-14.99-14.34-24.22-20.26-29.32-22.71c-5.54-2.65-7.54-1.9-7.56-1.89l-0.2-0.46c0.32-0.14,8.33-3.13,37.43,24.7
				c21.54,20.6,30.13,50.54,34.74,66.62c1.65,5.73,2.83,9.88,3.87,10.96L214.09,226.08z"/>
			<path class="st4" d="M170.5,143.67c-0.38,0-0.8-0.33-1.11-0.61c-4.87-4.36-24.45-3.95-24.65-3.95l-0.01-0.5
				c0.81-0.02,19.98-0.41,24.99,4.07c0.52,0.46,0.77,0.51,0.83,0.47c1.04-0.71-2.92-11.53-4.83-16.73
				c-1.14-3.12-1.79-4.91-1.85-5.39l0.5-0.06c0.05,0.45,0.87,2.69,1.82,5.28c3.9,10.63,5.79,16.54,4.64,17.32
				C170.72,143.64,170.61,143.67,170.5,143.67z"/>
			<path class="st4" d="M188.82,165.4c-0.33,0-0.72-0.14-1.18-0.42c-6.08-3.68-22.44-1.37-22.61-1.34l-0.07-0.5
				c0.68-0.1,16.71-2.36,22.94,1.41c0.57,0.34,0.98,0.43,1.21,0.26c1.14-0.83-0.26-6.73-1.73-12.98
				c-1.67-7.06-3.56-15.06-3.19-20.47l0.5,0.03c-0.37,5.33,1.51,13.29,3.17,20.32c1.88,7.97,2.88,12.52,1.54,13.5
				C189.23,165.34,189.04,165.4,188.82,165.4z"/>
			<path class="st4" d="M202.07,191.31c-0.46,0-0.83-0.55-1.08-0.98c-3.64-6.38-25.17-11.3-25.39-11.35l0.11-0.49
				c0.89,0.2,21.96,5.02,25.71,11.58c0.43,0.75,0.65,0.73,0.67,0.72c0.95-0.22,1.33-7.05,1.7-13.65c0.5-8.81,1.11-19.79,3.26-25.8
				l0.47,0.17c-2.12,5.94-2.74,16.87-3.23,25.66c-0.51,9.07-0.83,13.81-2.09,14.11C202.16,191.3,202.12,191.31,202.07,191.31z"/>
			<path class="st4" d="M209.25,215.7c-2.39,0-7.26-2.99-12.8-6.39c-5.13-3.15-10.44-6.4-14-7.38l0.13-0.48
				c3.63,0.99,8.96,4.26,14.13,7.43c5.66,3.47,11.52,7.07,13.16,6.19c0.28-0.15,0.42-0.44,0.44-0.9c0.21-5.8,9.12-26.35,9.5-27.22
				l0.46,0.2c-0.09,0.21-9.25,21.33-9.46,27.04c-0.02,0.64-0.26,1.09-0.7,1.32C209.88,215.64,209.59,215.7,209.25,215.7z"/>
		</g>
	</g>
	<g>
		<path class="st5" d="M228.42,271.28c0,0,26.48-11.26,24.97-43.63s20.03-67.79,21.17-80.27c1.14-12.48-37.93-1.94-52.74,24.63
			S207.3,253.86,228.42,271.28z"/>
		<g>
			<path class="st4" d="M231.19,267.43l-0.45-0.21c0.63-1.36,0.4-5.66,0.1-11.62c-0.86-16.71-2.47-47.82,11.19-74.3
				c18.48-35.81,27-35.56,27.36-35.53l-0.04,0.5c-0.07,0.01-8.64-0.08-26.88,35.26c-13.6,26.36-12,57.38-11.14,74.04
				C231.66,261.83,231.87,265.96,231.19,267.43z"/>
			<path class="st4" d="M245.42,175.35c-0.05,0-0.1-0.01-0.15-0.02c-1.34-0.36-1.47-6.56-1.24-17.88c0.06-2.76,0.1-5.14,0.01-5.58
				l0.49-0.11c0.1,0.48,0.07,2.38,0.01,5.7c-0.11,5.54-0.34,17.06,0.88,17.39c0.07,0.01,0.29-0.11,0.63-0.71
				c3.28-5.87,21.53-11.73,22.31-11.98l0.15,0.48c-0.19,0.06-18.84,6.04-22.02,11.75C246.23,174.81,245.87,175.35,245.42,175.35z"/>
			<path class="st4" d="M235.03,201.89c-0.09,0-0.19-0.01-0.28-0.04c-1.59-0.49-2.12-5.12-2.93-13.27
				c-0.71-7.18-1.52-15.33-3.6-20.24l0.46-0.19c2.11,4.99,2.92,13.17,3.64,20.39c0.64,6.39,1.24,12.43,2.58,12.84
				c0.28,0.08,0.64-0.13,1.06-0.64c4.67-5.6,20.56-8.67,21.23-8.79l0.09,0.49c-0.16,0.03-16.39,3.16-20.94,8.62
				C235.87,201.61,235.44,201.89,235.03,201.89z"/>
			<path class="st4" d="M231.06,230.67c-1.28,0-3.13-4.38-6.51-12.67c-3.32-8.15-7.46-18.28-11.4-23.21l0.39-0.31
				c3.99,4.99,8.14,15.16,11.47,23.33c2.48,6.07,5.04,12.35,6.03,12.35c0.01,0,0.02,0,0.02,0c0.02,0,0.24-0.05,0.4-0.9
				c1.41-7.43,19.77-18.83,20.55-19.32l0.26,0.43c-0.19,0.12-18.95,11.77-20.32,18.98c-0.1,0.53-0.3,1.25-0.84,1.31
				C231.09,230.67,231.08,230.67,231.06,230.67z"/>
			<path class="st4" d="M231.74,256.16c-0.07,0-0.15-0.01-0.22-0.02c-0.49-0.08-0.86-0.42-1.09-1.02
				c-2.05-5.33-17.58-22.32-17.74-22.49l0.37-0.34c0.64,0.7,15.75,17.23,17.83,22.65c0.16,0.43,0.39,0.66,0.7,0.71
				c1.82,0.29,6.2-5,10.43-10.13c3.85-4.67,7.84-9.51,10.94-11.62l0.28,0.41c-3.05,2.07-7.01,6.88-10.84,11.53
				C237.86,251.36,233.91,256.16,231.74,256.16z"/>
		</g>
	</g>
	<g>
		<path class="st5" d="M152.58,369.23c0,0-23-17.29-50.27,0.22c-27.27,17.51-68.72,16.58-80.09,21.84
			c-11.37,5.26,17.3,33.81,47.71,33.34C100.34,424.16,148.07,396.23,152.58,369.23z"/>
		<g>
			<path class="st4" d="M55.57,402.78c-28.8,0-32.01-5.94-32.15-6.22l0.45-0.22c0.04,0.08,4.29,7.53,43.98,5.63
				c29.63-1.41,55.68-18.32,69.68-27.41c5.25-3.41,8.72-5.66,10.33-5.81l0.05,0.5c-1.49,0.14-5.1,2.48-10.11,5.73
				c-14.03,9.11-40.16,26.07-69.93,27.49C63.33,402.69,59.24,402.78,55.57,402.78z"/>
			<path class="st4" d="M41.38,415.46l-0.34-0.37c0.36-0.33,2.02-1.25,4.93-2.86c4.85-2.67,14.94-8.24,14.62-9.46
				c-0.02-0.07-0.23-0.19-0.93-0.19c-0.03,0-0.05,0-0.08,0c-6.76,0-20.86-12.78-21.46-13.32l0.34-0.37
				c0.15,0.13,14.55,13.19,21.12,13.19c0.06,0,0.11,0,0.17,0c0.53,0,1.2,0.07,1.33,0.56c0.36,1.34-4.95,4.56-14.86,10.03
				C43.8,414.01,41.72,415.16,41.38,415.46z"/>
			<path class="st4" d="M63.56,420.92l-0.4-0.3c3.26-4.32,9.94-9.12,15.83-13.36c5.21-3.75,10.14-7.29,9.82-8.66
				c-0.07-0.29-0.43-0.49-1.08-0.6c-7.18-1.24-17.79-13.46-18.24-13.98l0.38-0.33c0.11,0.13,10.94,12.61,17.95,13.82
				c0.88,0.15,1.37,0.47,1.49,0.98c0.37,1.62-3.37,4.4-10.02,9.18C73.42,411.88,66.77,416.66,63.56,420.92z"/>
			<path class="st4" d="M94,420.72l-0.47-0.18c2.32-5.95,9.05-14.63,14.46-21.61c4.05-5.23,8.24-10.63,7.67-11.42
				c-0.01-0.02-0.16-0.18-0.98,0.1c-7.15,2.5-26.2-7.69-27.01-8.12l0.24-0.44c0.2,0.1,19.67,10.51,26.6,8.09
				c0.51-0.18,1.23-0.37,1.55,0.08c0.75,1.04-2.12,4.84-7.68,12.02C103.01,406.18,96.3,414.84,94,420.72z"/>
			<path class="st4" d="M126.99,402.18l-0.48-0.15c0.29-0.91,7.04-22.26,10.69-26.78c0.29-0.36,0.37-0.67,0.26-0.96
				c-0.66-1.74-7.44-2.87-13.99-3.96c-5.97-1-12.15-2.03-15.54-3.66l0.22-0.45c3.32,1.6,9.46,2.63,15.4,3.62
				c7.31,1.22,13.61,2.27,14.37,4.27c0.18,0.47,0.06,0.96-0.34,1.46C134,380.01,127.06,401.96,126.99,402.18z"/>
		</g>
	</g>
	<g>
		<path class="st6" d="M296.93,386.85c0,0-24.57-14.96-50.01,5.13s-66.77,23.21-77.58,29.55s20.52,31.96,50.74,28.52
			S295.08,414.17,296.93,386.85z"/>
		<g>
			<path class="st4" d="M189.29,430.51c-15.66,0-18.1-3.63-18.23-3.84l0.43-0.26l-0.21,0.13l0.21-0.13
				c0.05,0.07,5.01,7.06,44.32,1.31c29.35-4.3,53.63-23.67,66.67-34.08c4.89-3.91,8.13-6.49,9.72-6.79l0.09,0.49
				c-1.47,0.28-4.84,2.97-9.5,6.69c-13.08,10.44-37.42,29.87-66.91,34.18C204.31,429.9,195.69,430.51,189.29,430.51z"/>
			<path class="st4" d="M190.78,443.72l-0.37-0.33c0.33-0.36,1.89-1.44,4.63-3.33c4.57-3.14,14.07-9.66,13.63-10.84
				c-0.03-0.07-0.25-0.17-0.95-0.1c-6.68,0.76-22.08-10.67-22.73-11.15l0.3-0.4c0.16,0.12,15.9,11.77,22.38,11.06
				c0.54-0.06,1.28-0.08,1.47,0.42c0.49,1.3-4.48,5.02-13.81,11.43C193.04,442.04,191.08,443.39,190.78,443.72z"/>
			<path class="st4" d="M213.38,446.99l-0.43-0.26c2.82-4.62,9-10.05,14.45-14.84c4.82-4.24,9.38-8.24,8.93-9.58
				c-0.09-0.28-0.48-0.44-1.14-0.49c-7.27-0.53-19.02-11.66-19.52-12.14l0.34-0.36c0.12,0.11,12.12,11.48,19.21,12
				c0.89,0.07,1.41,0.34,1.58,0.83c0.53,1.57-2.93,4.71-9.08,10.11C222.31,437.03,216.17,442.44,213.38,446.99z"/>
			<path class="st4" d="M243.66,443.82l-0.48-0.13c1.73-6.14,7.58-15.45,12.28-22.92c3.52-5.6,7.16-11.38,6.52-12.11
				c-0.02-0.02-0.18-0.17-0.97,0.2c-6.86,3.19-26.82-5.09-27.67-5.45l0.19-0.46c0.2,0.08,20.6,8.54,27.27,5.46
				c0.49-0.23,1.19-0.49,1.55-0.08c0.85,0.97-1.63,5.02-6.47,12.71C251.2,428.47,245.37,437.74,243.66,443.82z"/>
			<path class="st4" d="M274.68,422.15l-0.49-0.1c0.2-0.93,4.83-22.84,8.02-27.69c0.25-0.38,0.31-0.7,0.17-0.99
				c-0.83-1.66-7.68-2.13-14.31-2.58c-6.04-0.41-12.29-0.83-15.82-2.12l0.17-0.47c3.46,1.27,9.67,1.69,15.68,2.09
				c7.39,0.5,13.77,0.93,14.73,2.85c0.22,0.45,0.16,0.95-0.2,1.48C279.49,399.4,274.72,421.92,274.68,422.15z"/>
		</g>
	</g>
	<g>
		<path class="st3" d="M354.17,386.85c0,0,24.57-14.96,50.01,5.13s66.77,23.21,77.58,29.55s-20.52,31.96-50.74,28.52
			S356.02,414.17,354.17,386.85z"/>
		<g>
			<path class="st4" d="M461.81,430.51c-6.4,0-15.01-0.61-26.58-2.3c-29.49-4.32-53.83-23.75-66.91-34.18
				c-4.66-3.72-8.03-6.41-9.5-6.69l0.09-0.49c1.59,0.3,4.82,2.88,9.72,6.79c13.04,10.41,37.32,29.78,66.67,34.08
				c39.31,5.76,44.27-1.24,44.32-1.31l0.43,0.26C479.91,426.88,477.46,430.51,461.81,430.51z"/>
			<path class="st4" d="M460.32,443.72c-0.3-0.33-2.26-1.68-4.54-3.25c-9.33-6.41-14.3-10.13-13.81-11.43
				c0.19-0.5,0.93-0.48,1.47-0.42c6.49,0.71,22.22-10.94,22.38-11.06l0.3,0.4c-0.65,0.49-16.06,11.92-22.73,11.15
				c-0.68-0.08-0.92,0.03-0.95,0.1c-0.44,1.18,9.06,7.71,13.63,10.84c2.74,1.88,4.3,2.96,4.63,3.32L460.32,443.72z"/>
			<path class="st4" d="M437.72,446.99c-2.79-4.55-8.93-9.96-14.36-14.72c-6.15-5.41-9.6-8.54-9.08-10.11
				c0.17-0.5,0.68-0.77,1.58-0.83c7.09-0.52,19.09-11.88,19.21-12l0.35,0.36c-0.5,0.47-12.25,11.6-19.52,12.14
				c-0.66,0.05-1.04,0.21-1.14,0.49c-0.45,1.33,4.11,5.34,8.93,9.58c5.45,4.79,11.63,10.22,14.45,14.84L437.72,446.99z"/>
			<path class="st4" d="M407.44,443.82c-1.71-6.07-7.54-15.34-12.23-22.79c-4.84-7.69-7.32-11.74-6.47-12.71
				c0.36-0.41,1.06-0.15,1.55,0.08c6.67,3.09,27.06-5.37,27.27-5.46l0.19,0.46c-0.85,0.35-20.8,8.63-27.67,5.45
				c-0.79-0.37-0.95-0.22-0.97-0.2c-0.64,0.73,3,6.52,6.52,12.11c4.7,7.47,10.55,16.77,12.28,22.92L407.44,443.82z"/>
			<path class="st4" d="M376.42,422.15c-0.05-0.23-4.81-22.75-7.95-27.52c-0.35-0.54-0.42-1.03-0.2-1.48
				c0.95-1.92,7.33-2.35,14.72-2.85c6.01-0.41,12.22-0.83,15.68-2.09l0.17,0.47c-3.53,1.29-9.78,1.72-15.82,2.12
				c-6.63,0.45-13.49,0.91-14.31,2.58c-0.14,0.28-0.09,0.6,0.17,0.99c3.19,4.85,7.83,26.76,8.02,27.69L376.42,422.15z"/>
		</g>
	</g>
	<g>
		<path class="st7" d="M337.58,201.84c0,0,28.22,5.59,45.19-22.02s54.71-44.77,62.67-54.44s-30.26-22.94-57.46-9.32
			C360.8,129.68,329.92,175.56,337.58,201.84z"/>
		<g>
			<path class="st4" d="M342.04,200.22l-0.26-0.43c1.28-0.77,3.52-4.45,6.62-9.55c8.69-14.3,24.86-40.92,51.06-55.12
				c35.41-19.19,42.33-14.2,42.61-13.98l-0.31,0.39c-0.02-0.01-1.75-1.27-7.79-0.17c-5.57,1.02-16.03,4.3-34.27,14.19
				c-26.08,14.14-42.21,40.68-50.87,54.94C345.58,195.85,343.43,199.39,342.04,200.22z"/>
			<path class="st4" d="M431.84,134.58c-0.19-0.06-18.97-5.6-24.82-2.68c-0.49,0.24-1.17,0.52-1.52,0.11
				c-0.9-1.05,2.48-6.25,9.03-15.48c1.6-2.25,2.98-4.19,3.15-4.61l0.46,0.19c-0.18,0.45-1.28,2.01-3.2,4.72
				c-3.21,4.51-9.88,13.91-9.06,14.87c0.05,0.05,0.3,0.08,0.92-0.23c6.01-3.01,24.4,2.42,25.18,2.65L431.84,134.58z"/>
			<path class="st4" d="M405.82,152.9c-0.15-0.07-15.33-6.61-22.17-4.66c-0.86,0.25-1.44,0.17-1.77-0.24
				c-1.04-1.3,1.13-5.43,5.04-12.62c3.45-6.34,7.36-13.53,8.41-18.76l0.49,0.1c-1.06,5.31-4.99,12.53-8.46,18.91
				c-3.07,5.64-5.97,10.97-5.09,12.07c0.18,0.23,0.6,0.25,1.24,0.07c7-2,21.87,4.4,22.5,4.68L405.82,152.9z"/>
			<path class="st4" d="M362.95,169.86c-0.1,0-0.2-0.02-0.29-0.07c-1.13-0.62-0.2-5.28,1.7-14.16c1.84-8.6,4.12-19.31,3.64-25.6
				l0.5-0.04c0.49,6.36-1.8,17.11-3.65,25.74c-1.38,6.47-2.81,13.15-1.95,13.62c0.02,0.01,0.22,0.1,0.84-0.52
				c5.35-5.35,26.94-4.45,27.85-4.41l-0.02,0.5c-0.23-0.01-22.28-0.93-27.48,4.26C363.78,169.49,363.36,169.86,362.95,169.86z"/>
			<path class="st4" d="M350.7,191.61c-0.94,0-1.63-0.16-2.03-0.54c-0.36-0.34-0.47-0.83-0.33-1.46c1.31-5.56-1.97-28.34-2-28.57
				l0.49-0.07c0.14,0.94,3.33,23.11,2,28.76c-0.1,0.44-0.04,0.77,0.18,0.98c1.35,1.27,7.94-0.65,14.32-2.51
				c5.81-1.7,11.83-3.45,15.58-3.45v0.5c-3.69,0-9.66,1.74-15.45,3.43C358.18,190.23,353.42,191.61,350.7,191.61z"/>
		</g>
	</g>
	<g>
		<path class="st7" d="M121.89,315.94c0,0-28.77,0.44-40.51-29.77s-45.8-53.85-51.89-64.79c-6.1-10.95,33.89-17.15,58.2,1.13
			S134.14,291.45,121.89,315.94z"/>
		<g>
			<path class="st4" d="M117.8,313.54c-1.22-1.07-2.7-4.93-4.93-10.78c-5.97-15.58-17.07-44.59-40.2-63.17
				c-16.17-12.99-25.88-18.1-31.17-20.1c-5.75-2.17-7.68-1.24-7.69-1.23l-0.23-0.44c0.31-0.17,8.02-3.84,39.41,21.39
				c23.23,18.67,34.37,47.76,40.35,63.38c2.13,5.57,3.67,9.59,4.8,10.58L117.8,313.54z"/>
			<path class="st4" d="M67.22,235.19c-0.37,0-0.79-0.27-1.1-0.51c-5.23-3.92-24.7-1.83-24.9-1.81l-0.05-0.5
				c0.81-0.09,19.87-2.13,25.25,1.91c0.56,0.42,0.81,0.44,0.86,0.4c0.98-0.79-3.9-11.23-6.25-16.25c-1.41-3.01-2.21-4.74-2.31-5.21
				l0.49-0.1c0.09,0.44,1.1,2.6,2.27,5.1c4.79,10.25,7.19,15.98,6.11,16.85C67.48,235.15,67.35,235.19,67.22,235.19z"/>
			<path class="st4" d="M63.54,255.56l-0.11-0.49c0.67-0.16,16.44-3.79,22.98-0.57c0.59,0.29,1.01,0.34,1.23,0.15
				c1.06-0.92-0.84-6.68-2.84-12.78c-2.27-6.89-4.84-14.7-4.94-20.12l0.5-0.01c0.09,5.34,2.65,13.11,4.91,19.97
				c2.56,7.78,3.95,12.23,2.7,13.32c-0.39,0.34-0.98,0.32-1.78-0.08C79.81,251.81,63.7,255.52,63.54,255.56z"/>
			<path class="st4" d="M102.78,279.94c-0.44,0-0.84-0.49-1.11-0.88c-4.18-6.04-26.05-9.09-26.27-9.12l0.07-0.5
				c0.91,0.12,22.31,3.11,26.61,9.33c0.49,0.71,0.71,0.67,0.73,0.66c0.93-0.3,0.72-7.14,0.52-13.75c-0.27-8.82-0.6-19.81,1.03-25.98
				l0.48,0.13c-1.6,6.1-1.27,17.05-1.01,25.84c0.27,9.08,0.36,13.83-0.87,14.24C102.9,279.93,102.84,279.94,102.78,279.94z"/>
			<path class="st4" d="M111.81,303.63c-2.49,0-7.43-2.48-13.02-5.27c-5.38-2.7-10.95-5.48-14.58-6.14l0.09-0.49
				c3.7,0.67,9.3,3.48,14.71,6.19c5.94,2.97,12.09,6.05,13.64,5.03c0.26-0.17,0.38-0.48,0.36-0.93c-0.29-5.79,6.82-27.04,7.12-27.94
				l0.47,0.16c-0.07,0.22-7.38,22.05-7.09,27.75c0.03,0.64-0.16,1.1-0.58,1.38C112.64,303.54,112.27,303.63,111.81,303.63z"/>
		</g>
	</g>
	<g>
		<path class="st3" d="M361.58,360.84c0,0,28.22,5.59,45.19-22.02c16.97-27.61,54.71-44.77,62.67-54.44s-30.26-22.94-57.46-9.32
			C384.8,288.68,353.92,334.56,361.58,360.84z"/>
		<g>
			<path class="st4" d="M366.04,359.22l-0.26-0.43c1.28-0.77,3.52-4.45,6.62-9.55c8.69-14.3,24.86-40.92,51.06-55.12
				c35.41-19.19,42.33-14.2,42.61-13.98l-0.31,0.39c-0.02-0.01-1.75-1.27-7.79-0.17c-5.57,1.02-16.03,4.3-34.27,14.19
				c-26.08,14.14-42.21,40.68-50.87,54.94C369.58,354.85,367.43,358.39,366.04,359.22z"/>
			<path class="st4" d="M455.84,293.58c-0.19-0.05-18.97-5.6-24.82-2.68c-0.49,0.24-1.17,0.52-1.52,0.11
				c-0.9-1.05,2.48-6.26,9.04-15.49c1.6-2.25,2.98-4.19,3.14-4.61l0.46,0.19c-0.18,0.45-1.28,2.01-3.2,4.71
				c-3.21,4.52-9.88,13.91-9.06,14.87c0.05,0.05,0.3,0.08,0.92-0.23c6.02-3.01,24.4,2.42,25.18,2.65L455.84,293.58z"/>
			<path class="st4" d="M429.82,311.9c-0.15-0.07-15.33-6.6-22.17-4.66c-0.86,0.25-1.44,0.17-1.77-0.24
				c-1.04-1.3,1.13-5.43,5.04-12.62c3.45-6.34,7.36-13.53,8.41-18.76l0.49,0.1c-1.06,5.31-4.99,12.53-8.46,18.91
				c-3.07,5.64-5.97,10.97-5.09,12.07c0.18,0.23,0.6,0.25,1.24,0.07c7-2,21.87,4.4,22.5,4.68L429.82,311.9z"/>
			<path class="st4" d="M386.95,328.86c-0.1,0-0.2-0.02-0.29-0.07c-1.13-0.62-0.2-5.28,1.7-14.16c1.84-8.6,4.12-19.31,3.64-25.6
				l0.5-0.04c0.49,6.36-1.8,17.11-3.65,25.74c-1.38,6.47-2.81,13.15-1.95,13.62c0.02,0.01,0.23,0.09,0.84-0.52
				c5.35-5.35,26.94-4.45,27.85-4.41l-0.02,0.5c-0.23-0.01-22.28-0.93-27.48,4.26C387.78,328.49,387.36,328.86,386.95,328.86z"/>
			<path class="st4" d="M374.7,350.61c-0.94,0-1.63-0.16-2.03-0.54c-0.36-0.34-0.47-0.84-0.33-1.46c1.31-5.56-1.97-28.34-2-28.57
				l0.49-0.07c0.14,0.94,3.33,23.11,2,28.76c-0.1,0.44-0.04,0.77,0.18,0.98c1.35,1.28,7.94-0.65,14.32-2.51
				c5.81-1.7,11.83-3.45,15.58-3.45v0.5c-3.69,0-9.66,1.74-15.44,3.43C382.18,349.23,377.42,350.61,374.7,350.61z"/>
		</g>
	</g>
	<g>
		<path class="st7" d="M164.85,251.83c0,0-4.01-47.46,25.67-52.35c25.19-4.15,45.27,7.09,55.15,32.52
			C255.54,257.42,171.4,259.51,164.85,251.83z"/>
		<path class="st8" d="M103.16,173.56c0,0,9.16,17.96,17.58,16.63s11.92-12.93,25.53-8.15c13.61,4.79,26.05,33.37,39.16,37.42
			c13.1,4.06-8.53,34.14-8.53,34.14s-105.31,6.63-109.59-1.1s28.45-46.69,31.64-49.1c7.37-5.57-3.19-15.16-3.19-15.16L103.16,173.56
			z"/>
		<path class="st8" d="M103.14,161.25c0,0,11.32,22.84-0.85,27.43c-8.37,3.15-17.64-9.82-17.72-17.35
			C84.5,163.81,96.28,157.69,103.14,161.25z"/>
		
			<ellipse transform="matrix(0.9356 -0.3531 0.3531 0.9356 -56.4389 44.3784)" class="st9" cx="93.42" cy="176.89" rx="0.79" ry="1.02"/>
		
			<ellipse transform="matrix(0.9356 -0.3531 0.3531 0.9356 -54.9086 46.9241)" class="st9" cx="101.17" cy="173.97" rx="0.79" ry="1.02"/>
		<path class="st8" d="M106.42,173.07c0,0-0.14-4.57,2.32-3.48c2.46,1.09,2.29,6.71,0.56,7.33
			C107.56,177.55,106.23,175.03,106.42,173.07z"/>
		<path class="st10" d="M99.14,170.2c0,0,1.54-1.22,3.38,0.44C103.59,171.62,97.38,171.47,99.14,170.2z"/>
		<path class="st10" d="M92.53,172.52c0,0-1.95-0.22-2.63,2.17C89.51,176.08,94.7,172.65,92.53,172.52z"/>
		<path class="st8" d="M88.94,179.85c0,0-2.9-3.54-4.03-1.1s2.68,6.56,4.4,5.89C91.02,183.98,90.37,181.2,88.94,179.85z"/>
		<path class="st10" d="M85.15,165.32c0,0,4.32,9.01,1.98,13.66C87.12,178.98,73.67,175.34,85.15,165.32z"/>
		<path class="st11" d="M99.34,180.89c-0.66,0-2.03-0.52-2.72-1.42l0.4-0.3c0.6,0.79,1.78,1.19,2.24,1.23
			c-0.14-0.67-1.12-3.06-2.08-5.2l0.46-0.21c1.55,3.44,2.26,5.36,2.11,5.71l-0.17,0.16C99.52,180.88,99.44,180.89,99.34,180.89z"/>
		<path class="st11" d="M99.31,183.83c-1.76,0-3.6-1.35-3.69-1.42l0.3-0.4c0.03,0.02,2.64,1.94,4.38,1.12
			c0.96-0.46,1.5-1.69,1.6-3.68l0.5,0.02c-0.11,2.19-0.74,3.57-1.89,4.11C100.12,183.75,99.72,183.83,99.31,183.83z"/>
		<path class="st11" d="M88.84,183.11c-1.15-2.81-2.45-2.69-2.46-2.69l-0.07-0.49c0.06-0.01,1.69-0.22,3,3L88.84,183.11z"/>
		<path class="st11" d="M108.31,175.75c-1.14-3.28,0.21-4.2,0.27-4.23l0.27,0.42c-0.01,0.01-1.07,0.78-0.07,3.65L108.31,175.75z"/>
		<path class="st8" d="M86.34,198.35c0,0-0.24-4.13-3.58-7.02c-3.34-2.89-6.94-7.21-4.88-6.23s4.66,2.61,4.66,2.61
			s-3.73-3.61-3.15-4.11c0.59-0.5,5.65,1.92,5.65,1.92s-4.49-2.56-2.69-3.42c1.8-0.85,13.9,9.61,11.9,13.35
			C91.79,200.03,91.91,200.26,86.34,198.35z"/>
		<path class="st7" d="M169.92,249.72c0,0,3.89-26.83,11.38-30.26c7.49-3.43,80.71,19.62,90.06,20.55
			c9.36,0.94,15.48,9.4,14.79,11.03s-12.13,2.21-16.9,3.15C264.5,255.13,169.3,267.5,169.92,249.72z"/>
		<path class="st7" d="M176.84,220.5c0,0-3.7-11.3,2.54-16.67c22.04-18.97,82.03,21.86,92.4,31.38
			c6.93,6.36,21.63,13.12,20.66,14.59c-0.97,1.48-15.04-6.19-19.9-6.14C267.69,243.7,172.96,237.86,176.84,220.5z"/>
		<path class="st11" d="M84.16,192.83c0,0,9.1-0.69,10.45-0.06c1.35,0.63,2.88,58.16-3.15,61.43s-21.33,3.91-26.6,0.27
			C59.6,250.81,80.18,190.6,84.16,192.83z"/>
		<path class="st11" d="M100.91,201.18c0,0,17.69,12.88,19.83-10.99c0,0,13.09-11.14,23.05-11.21
			c15.98-0.12,20.48,23.35,35.59,24.85c6.16,0.61-2.05,52.51-2.05,52.51s-93.23,2.03-98,0.67c-4.77-1.36-1.83-35.04,1.37-39.65
			C83.9,212.74,98.14,200.27,100.91,201.18z"/>
		<path class="st11" d="M95.77,188.24c0,0,5.43,6.93,9.52,6.31c4.09-0.62,4.48-10.98,4.48-10.98l-1.83-2.36
			C107.93,181.22,107.93,193.23,95.77,188.24z"/>
		<path class="st10" d="M82.03,162.49c0,0,1.72-4.61,8.3-7.37c6.58-2.76,15.56-7.01,16.07-5.01s-1.57,6.54-1.57,6.54
			s5-3.66,4.57-0.92s-2,8.97-11.8,11.88S77.64,170.33,82.03,162.49z"/>
		<path class="st10" d="M100.34,160.08c0,0,3.52,11.97,6.48,11.2c0,0,1.45-6.07-0.42-9.42S100.34,160.08,100.34,160.08z"/>
		<path class="st12" d="M90.82,250.01l-0.26-0.42c5.29-3.29,4.86-43.84,4.85-44.25l0.5-0.01C95.93,207.01,96.35,246.57,90.82,250.01
			z"/>
		<path class="st12" d="M111.96,206.87c-6.51,0-13.05-3.21-13.12-3.24l0.22-0.45c0.07,0.03,6.99,3.42,13.59,3.18
			c6.2-0.23,9.15-10.88,9.76-14.97l0.49,0.07c-0.25,1.69-1.1,5.43-2.67,8.73c-2.04,4.31-4.59,6.55-7.57,6.66
			C112.43,206.86,112.2,206.87,111.96,206.87z"/>
		<path class="st4" d="M114.75,216.4c0,0,0.47-13.1,14.85-20.49c8.38-4.31,10.07,4.54,10.57,5.84s-21.64,17.91-24.83,17.57
			c-3.19-0.33-32.32,2.17-32.94,1.84c-0.62-0.33-2.68-5.2,0.45-7.54C85.98,211.27,108.87,208.52,114.75,216.4z"/>
		<path class="st7" d="M90.4,252.77c0,0-12.55-33.89-9.38-35.13c4.31-1.69,29.19-1.58,33.73-1.24c0,0,18.2-20.34,23.9-19.06
			c5.7,1.27,17.92,38.86,15.58,39.02s-16.98,11.87-28.74,17C125.49,253.35,93.62,254.2,90.4,252.77z"/>
		<path class="st8" d="M145.25,238.45c0,0-6.6-3.66-11.01-3.87c-4.41-0.21-10,0.42-7.83,1.13s5.17,1.33,5.17,1.33
			s-5.2,0.04-5.12,0.8c0.08,0.76,5.42,2.51,5.42,2.51s-5.02-1.24-4.3,0.62c0.71,1.86,10.02,2.36,13.63,6.1
			C144.81,250.82,150.6,240.91,145.25,238.45z"/>
		<path class="st12" d="M141.71,201.71c-6.9-7.78-1.82-18.38-1.77-18.49l0.45,0.22c-0.05,0.1-4.98,10.41,1.7,17.93L141.71,201.71z"
			/>
		<path class="st11" d="M136.67,230.61c0,0-3.99,12.87,0,17.31c3.99,4.44,37.51-6.81,41.07-16.71c3.55-9.9-1.82-18.68-7.82-18.63
			S154.41,225.44,136.67,230.61z"/>
		<path class="st12" d="M147.23,250.71c-1.91,0-3.84-0.21-5.76-0.68l0.12-0.49c11.02,2.66,22.31-3.16,29.2-9.49
			c4.84-4.45,7.67-9.22,7.21-12.15c-1.14-7.36-10.97-26.76-11.07-26.96l0.45-0.23c0.41,0.8,9.97,19.67,11.12,27.11
			c0.48,3.1-2.41,8.04-7.37,12.6C165.34,245.75,156.48,250.71,147.23,250.71z"/>
		<path class="st12" d="M151.75,223.6l-0.36-0.35c0.93-0.96,9.75-8,13.2-9.31l0.18,0.47C161.37,215.7,152.67,222.65,151.75,223.6z"
			/>
		<path class="st4" d="M86.39,215.44l-0.09-0.49c0.76-0.14,18.59-3.38,25.78,0.02l-0.21,0.45
			C104.82,212.09,86.57,215.41,86.39,215.44z"/>
		<path class="st4" d="M121.41,217.58c0,0,17.86-10.47,18.77-12.22c0.32-0.61,3.62,9.84,3.62,9.84s-16.86,9.38-17.87,9.52
			S121.91,219.54,121.41,217.58z"/>
		<path class="st12" d="M143.57,248.03c-3.36-6.68-2.33-18.61-2.29-19.12l0.5,0.04c-0.01,0.12-1.06,12.3,2.24,18.85L143.57,248.03z"
			/>
		<path class="st12" d="M95.12,200.71c-3.57-1.37-13.84-0.98-13.95-0.98l-0.02-0.5c0.43-0.02,10.48-0.4,14.15,1.01L95.12,200.71z"/>
		<path class="st11" d="M82.76,187.82l-0.44-0.24c0.03-0.05,0.7-1.26,2.6-2.29l0.24,0.44C83.4,186.68,82.76,187.81,82.76,187.82z"/>
		<path class="st13" d="M231.08,209.74c-10.18-4.86-27.69-7.4-40.08-2.53l-0.18-0.47c12.52-4.92,30.2-2.37,40.48,2.54L231.08,209.74
			z"/>
		<path class="st14" d="M269.05,232.9c0,0-2.59,12.32,0.39,13.28c2.99,0.96,17.59-3.14,21.6-1.1c4.01,2.04,6.86,5.56,6.44,0.55
			s-5.63-9.63-10.78-11.07C281.55,233.11,269.05,232.9,269.05,232.9z"/>
		<path class="st14" d="M269.08,245.31c0,0-1.08,7.33,1.9,8.29c2.99,0.96,13.86-2.04,17.86,0c4.01,2.04,11.17,5.73,10.74,0.72
			s-5.63-9.63-10.78-11.07S269.08,245.31,269.08,245.31z"/>
		<path class="st7" d="M185.91,207.97c0,0-12.25,34.37-11.58,48.37c0.26,5.42,21.85,3.57,28.97,3.21S188.55,213.76,185.91,207.97z"
			/>
		<path class="st13" d="M179.51,233.09c-1.5-1.24-0.23-6.81,0.89-11.72c0.45-1.99,0.88-3.88,1.01-5.04c0.43-3.9,4.15-8.34,4.31-8.52
			l0.38,0.32c-0.04,0.04-3.78,4.51-4.19,8.26c-0.13,1.19-0.54,3-1.02,5.1c-0.98,4.3-2.32,10.18-1.06,11.22L179.51,233.09z"/>
		<path class="st15" d="M84.78,167.49l-0.25-0.43c0.25-0.14,6.25-3.53,8.96-3.53c5.78,0,9.09-2.03,9.84-6.05l0.49,0.09
			c-0.8,4.28-4.28,6.45-10.33,6.45C90.92,164.02,84.84,167.46,84.78,167.49z"/>
		<path class="st15" d="M83.21,165.73l-0.43-0.25c0.13-0.23,3.35-5.6,7.73-6.78c1.75-0.47,3.15-0.33,4.27-0.22
			c1.73,0.17,2.78,0.28,3.91-1.75l0.44,0.24c-1.29,2.31-2.66,2.17-4.4,2c-1.14-0.11-2.43-0.24-4.09,0.2
			C86.46,160.31,83.24,165.68,83.21,165.73z"/>
		<path class="st15" d="M84.92,176.93c-0.07-0.22-1.69-5.45-0.82-7.27l0.45,0.21c-0.78,1.64,0.83,6.85,0.85,6.9L84.92,176.93z"/>
		<path class="st15" d="M105.91,169.15c-0.56-2.78-1.82-3.84-1.83-3.86l0.32-0.39c0.06,0.05,1.41,1.17,2,4.15L105.91,169.15z"/>
		<path class="st4" d="M277.96,245.01c-0.19-0.66-1.6-3.15-2.32-4.38l0.43-0.25c0.09,0.15,2.12,3.61,2.37,4.5L277.96,245.01z"/>
		<path class="st4" d="M282.4,245.23l-0.49-0.07c0.23-1.62-1.67-4.74-1.69-4.77l0.43-0.26C280.72,240.26,282.66,243.43,282.4,245.23
			z"/>
		<path class="st4" d="M279.2,254.02c-0.19-0.66-1.6-3.15-2.32-4.38l0.43-0.25c0.09,0.15,2.12,3.61,2.37,4.5L279.2,254.02z"/>
		<path class="st4" d="M283.63,254.23l-0.49-0.07c0.23-1.62-1.67-4.74-1.69-4.77l0.43-0.26
			C281.95,249.26,283.89,252.43,283.63,254.23z"/>
		<path class="st13" d="M269.07,245.56c-0.45-0.01-45.42-1.05-65.81-4.22c-17.56-2.73-21.61-6.47-21.78-6.62l0.35-0.36
			c0.04,0.04,4.16,3.79,21.51,6.49c20.36,3.17,65.29,4.2,65.74,4.21L269.07,245.56z"/>
		<path class="st16" d="M114.16,216.49c-9.42-3.52-29.27-1.18-29.47-1.15l-0.06-0.5c0.2-0.02,20.17-2.38,29.7,1.18L114.16,216.49z"
			/>
		<path class="st16" d="M116.9,212.67l-0.47-0.17c3.25-8.74,14.75-15.07,14.87-15.13l0.24,0.44
			C131.42,197.87,120.08,204.12,116.9,212.67z"/>
		<path class="st13" d="M125.48,253.6c-0.29,0-0.69-0.3-6.89-17.67c-3.09-8.66-6.14-17.43-6.17-17.51l0.47-0.16
			c4.72,13.59,12,34.09,12.74,34.9l-0.14,0.13l0.01,0.32C125.49,253.6,125.49,253.6,125.48,253.6z"/>
		<path class="st13" d="M130.68,251.92c-1.48-4.2-13.13-36.17-13.25-36.5l0.47-0.17c0.12,0.32,11.77,32.3,13.25,36.5L130.68,251.92z
			"/>
	</g>
	<g>
		<path class="st17" d="M58.94,317.5c0,0,171.6,1.68,178.81,0s24.28-2.65,26.34,0.77c2.06,3.42,9.21,59.02-1.09,62.38
			c-10.31,3.35-207.15,1.12-211.27,1.12s-1.55-57,0.52-59.79C54.3,319.18,52.24,318.62,58.94,317.5z"/>
		<path class="st18" d="M103.66,333.03c0,0-0.41,26.8,2.46,30.75c2.87,3.95,123.46,3.51,127.56,2.64c4.1-0.88,1.64-34.27,1.64-34.27
			S103.25,328.64,103.66,333.03z"/>
		<path class="st18" d="M66.16,317.37l-1,65.47c0,0,8.5,0.52,10,0.52s1-67.02,1-67.02L66.16,317.37z"/>
		<path class="st18" d="M84.66,317.34l-1,63.5c0,0,8.5,0.5,10,0.5s1-65,1-65L84.66,317.34z"/>
	</g>
	<g>
		<path class="st18" d="M58.94,255.45c0,0,171.41,0.07,178.81,0c12.41-0.11,25.35,1.57,27.41,4.89c2.06,3.32,8.14,53.11-2.16,56.36
			c-10.31,3.25-207.15,1.08-211.27,1.08s-1.55-55.28,0.52-57.99C54.3,257.08,52.24,256.54,58.94,255.45z"/>
		<path class="st4" d="M50.66,266.84c0,0,182,0.5,184,4s4.5,35.5-4.5,38.5s-177,4-181.5,1S44.16,267.84,50.66,266.84z"/>
		<path class="st16" d="M172.8,278.11c-10.38,0-20.38-0.36-28.73-0.66c-7.11-0.25-12.72-0.46-16.4-0.37c-20.27,0.49-76.44,1-77,1
			l0-0.5c0.57,0,56.73-0.51,77-1c3.7-0.09,9.32,0.11,16.43,0.37c10.3,0.37,23.11,0.83,36.05,0.59c27.27-0.5,54.02-0.96,54.02-0.96
			l0.01,0.5c0,0-26.75,0.46-54.02,0.96C177.69,278.09,175.23,278.11,172.8,278.11z"/>
		<path class="st16" d="M116.34,288.43c-24.94,0-67.61-0.83-68.18-0.84l0.01-0.5c0.77,0.02,76.58,1.49,84.97,0.5
			c4.07-0.48,25.66-1.28,48.51-2.14c24.28-0.91,49.38-1.84,51.97-2.36l0.1,0.49c-2.63,0.53-27.75,1.46-52.05,2.37
			c-22.84,0.85-44.41,1.66-48.47,2.13C131.08,288.33,124.71,288.43,116.34,288.43z"/>
		<path class="st16" d="M97.13,296.03c-23.68,0-49.09-0.43-49.48-0.44l0.01-0.5c0.57,0.01,57.76,0.99,80.48,0
			c19.66-0.85,104.95-4.03,106.59-3.49l-0.16,0.47c-1.79-0.46-80.71,2.4-106.41,3.51C120.55,295.92,109.06,296.03,97.13,296.03z"/>
		<path class="st16" d="M96.9,304.41c-23.05,0-45.84-0.32-46.24-0.32l0.01-0.5c0.71,0.01,70.71,0.98,89.48-0.5
			c7.13-0.56,21.15-0.78,35.99-1c24.92-0.38,53.16-0.81,58.43-2.98l0.19,0.46c-5.36,2.21-33.65,2.64-58.61,3.02
			c-14.84,0.23-28.85,0.44-35.96,1C132.07,304.23,114.41,304.41,96.9,304.41z"/>
		<path class="st7" d="M194.16,301.84c0,0-18-23.5-16-24.5s34-4,33.5-1S196.16,301.84,194.16,301.84z"/>
		<path class="st5" d="M167.16,318.84c0,0-18-23.5-16-24.5s34-4,33.5-1S169.16,318.84,167.16,318.84z"/>
		<path class="st19" d="M99.66,266.34c0,0,6,61,6,64.5s7-16,7-16s6.02,16.09,7.87,15.33c1.85-0.76,5.13-61.33,2.13-63.33
			S99.66,266.34,99.66,266.34z"/>
	</g>
	<g>
		<path class="st5" d="M442.49,180.31c0,0,23.27,173.34,25.81,180.73c2.54,7.39,3.69,36.21-13.68,36.75
			c-4.05,0.13-38.02,14.29-42.83-11.96c-2.06-11.22-30.44-201.69-30.94-206.02s51.2-10.39,54.22-8.54S440.57,173.39,442.49,180.31z"
			/>
		<path class="st20" d="M405.45,349.2c0,0,54.03-10.67,57.99-8.98c3.96,1.7,5.94,25.95,7.02,35.6s-5.1,22.08-21.36,24.37
			c-16.27,2.29-36.3,5.06-38.84-17.6C408.36,365.65,405.45,349.2,405.45,349.2z"/>
		<path class="st4" d="M390.51,178.64c0,0,28.69,205.52,33.2,209.06c4.51,3.54,33.78-1.54,34.3-5.78
			c1.06-8.63-27.32-206.12-30.5-209.6S388.15,171.86,390.51,178.64z"/>
		<path class="st16" d="M431.89,389.88c-4.92-6.3-36.12-206.39-37.45-214.9l0.49-0.08c0.32,2.08,32.51,208.47,37.35,214.67
			L431.89,389.88z"/>
		<path class="st16" d="M444.28,384.23c-0.25-1.9-24.81-190.63-28.99-212.33l0.49-0.09c4.18,21.72,28.75,210.46,28.99,212.36
			L444.28,384.23z"/>
		<path class="st16" d="M452.48,387.17l-0.5-0.02c0.51-11.15-24.48-212.76-24.73-214.8l0.5-0.06
			C428,174.32,452.99,375.98,452.48,387.17z"/>
		<path class="st16" d="M440.88,386.73c-0.37-1.96-36.53-196.42-35.67-215.35l0.5,0.02c-0.86,18.87,35.29,213.28,35.66,215.24
			L440.88,386.73z"/>
	</g>
	<g>
		<path class="st6" d="M387.43,186.81c0,0,1.06,174.89,2.64,182.54c1.58,7.65-0.94,36.38-18.24,34.71
			c-4.04-0.39-39.53,9.34-40.97-17.3c-0.62-11.39-4.57-203.92-4.52-208.28s52.1-3.8,54.87-1.58
			C383.98,179.1,386.41,179.7,387.43,186.81z"/>
		<path class="st21" d="M329.24,349.62c0,0,54.95-3.72,58.67-1.54c3.72,2.19,1.22,25.31,1.06,35.02s-6.48,22.43-22.91,22.64
			c-16.43,0.21-36.42,0.3-34.5-22.42C333,366.12,329.24,349.62,329.24,349.62z"/>
		<path class="st4" d="M336.09,178.55c0,0,2.35,207.5,6.37,211.58s33.7,2.76,34.75-1.38c2.15-8.42-0.92-207.92-3.63-211.78
			C370.87,173.12,334.61,171.53,336.09,178.55z"/>
		<path class="st16" d="M350.3,393.33c-4.08-6.87-9.61-209.3-9.84-217.92l0.5-0.01c0.06,2.11,5.76,210.91,9.77,217.68L350.3,393.33z
			"/>
		<path class="st16" d="M363.31,389.3c0-1.92-0.39-192.23-1.78-214.3l0.5-0.03c1.39,22.08,1.78,212.41,1.78,214.33L363.31,389.3z"/>
		<path class="st16" d="M371.07,393.26l-0.49-0.09c1.92-10.99,2.75-214.15,2.75-216.2l0.5,0C373.82,179.03,373,382.23,371.07,393.26
			z"/>
		<path class="st16" d="M359.61,391.35c-0.11-1.99-11.28-199.47-8.02-218.14l0.49,0.09c-3.25,18.61,7.92,216.03,8.03,218.03
			L359.61,391.35z"/>
	</g>
	<g>
		<path class="st18" d="M327.87,182.4c0,0,1.52,181.53,3.44,189.13s3.28,25.64-0.31,27.87c-3.58,2.24-62.35,10.76-66.1-0.08
			s-5.17-219.08-5.25-223.45s60.35-2.61,63.35-0.48C326,177.53,326.55,175.34,327.87,182.4z"/>
		<path class="st19" d="M259.52,189.34c0,0,60.75,0,65.69,0c0,0,0.71,8.8,0,8.8s-62.51,0.73-64.63,0.24
			C258.46,197.89,259.52,189.34,259.52,189.34z"/>
		<path class="st19" d="M259.52,205.03c0,0,60.75,0,65.69,0c0,0,0.71,8.8,0,8.8s-62.51,0.73-64.63,0.24
			C258.46,213.58,259.52,205.03,259.52,205.03z"/>
		<path class="st19" d="M278.61,231.08c0,0,30.72,0,33.22,0c0,0,1.03,121.26,0.67,121.26c-0.36,0-32.28,3.77-33.35-2.64
			C278.07,343.29,278.61,231.08,278.61,231.08z"/>
	</g>
	<g>
		<path class="st8" d="M241.94,116.11c0,0,4.95,9.78,17.33,18.03s26.89-9.01,26.89-9.01S247.22,112.34,241.94,116.11z"/>
		<path class="st8" d="M327.11,67.48c0,0-3.1,11.64-1.86,15.6c1.23,3.96,15.81,5.03,20.59,10.86c4.77,5.83-8.72,58.68-8.81,62.35
			c-0.08,3.67-51.59-2.99-57.95-6.07c-6.36-3.07,10.94-56.47,17.08-61.24c6.14-4.77,12.16-0.32,15.14-5.9
			c2.98-5.58,1.7-11.68,1.7-11.68L327.11,67.48z"/>
		<g>
			<path class="st8" d="M334.91,55.34c0,0-5.64,24.86-17.97,20.74c-8.48-2.84-7.47-18.75-2.79-24.64
				C318.83,45.55,331.84,48.24,334.91,55.34z"/>
			
				<ellipse transform="matrix(0.3169 -0.9484 0.9484 0.3169 158.6996 343.0228)" class="st9" cx="317.5" cy="61.33" rx="1.02" ry="0.79"/>
			
				<ellipse transform="matrix(0.3169 -0.9484 0.9484 0.3169 161.5736 352.2592)" class="st9" cx="325.34" cy="63.96" rx="1.02" ry="0.79"/>
			<path class="st8" d="M329.99,66.58c0,0,2.78-3.63,3.99-1.23c1.21,2.4-2.46,6.65-4.2,6.04C328.04,70.77,328.6,67.97,329.99,66.58z
				"/>
			<path class="st9" d="M326.15,59.76c0,0,1.97,0.02,2.34,2.48C328.71,63.66,323.99,59.62,326.15,59.76z"/>
			<path class="st9" d="M319.56,57.38c0,0-1.38-1.4-3.41,0.02C314.97,58.23,321.16,58.85,319.56,57.38z"/>
			<path class="st8" d="M312.15,60.79c0,0-0.01-4.57-2.43-3.4c-2.42,1.17-2.06,6.78-0.31,7.35
				C311.16,65.31,312.41,62.75,312.15,60.79z"/>
			<path class="st22" d="M318.38,47.13c0,0-2.35,9.71-7.09,11.84C311.29,58.97,303.15,47.66,318.38,47.13z"/>
			<path class="st22" d="M332.89,51.98c0,0-3.97,9.17-1.45,13.72C331.43,65.7,344.74,61.55,332.89,51.98z"/>
			<path class="st22" d="M335.92,53.97c0,0,3.3-6.83-1.49-10.77s-15.32,1.67-15.91-2.65c-0.37-2.73-3.51,4.3,1.02,5.88
				c0,0-4.53-3.96-4.72-3.09C312.93,51.78,330.86,60.5,335.92,53.97z"/>
			<path class="st18" d="M323.39,51.26c-0.2-0.07-0.4-0.14-0.6-0.21c-3.58-1.3-4.82-2.73-5.23-3.69c-0.39-0.91-0.12-1.54-0.1-1.56
				l0.31,0.14l-0.16-0.07l0.16,0.07c-0.01,0.02-0.22,0.54,0.11,1.31c0.39,0.9,1.58,2.24,5.03,3.49c2.79,1.01,4.96,1.24,6.54,1.4
				c2.05,0.21,3.28,0.34,3.53,2.06l-0.34,0.05c-0.21-1.46-1.15-1.56-3.22-1.77C327.92,52.31,325.93,52.1,323.39,51.26z"/>
			<path class="st18" d="M334.52,52.58c0-0.03-0.03-2.84-4.57-4.96c-1.9-0.89-3.41-0.57-4.61-0.31c-0.9,0.19-1.68,0.35-2.33-0.07
				c-0.63-0.42-1.07-1.36-1.4-3.05l0.33-0.07c0.31,1.57,0.71,2.47,1.26,2.83c0.53,0.35,1.21,0.21,2.07,0.02
				c1.26-0.27,2.82-0.6,4.83,0.34c4.76,2.22,4.77,5.15,4.77,5.27L334.52,52.58z"/>
			<path class="st11" d="M319.76,68.3c-0.49-0.17-1.46-1.64-1.42-2.95l0.5,0.02c-0.03,0.99,0.63,2.05,0.96,2.37
				c0.31-0.61,1.06-3.08,1.67-5.34l0.48,0.13c-0.98,3.65-1.64,5.58-1.96,5.76L319.76,68.3z"/>
			<path class="st11" d="M319.35,71.05c-0.2,0-0.39-0.02-0.58-0.07c-2.15-0.53-3.02-3.85-3.05-3.99l0.48-0.12
				c0.01,0.03,0.83,3.17,2.69,3.63c1.04,0.26,2.24-0.36,3.57-1.84l0.37,0.33C321.59,70.36,320.42,71.05,319.35,71.05z"/>
			<path class="st11" d="M310.49,63.4l-0.48-0.15c0.89-2.91-0.2-3.64-0.21-3.65l0.26-0.43C310.12,59.22,311.51,60.08,310.49,63.4z"
				/>
			<path class="st11" d="M330.23,70.01l-0.47-0.17c1.19-3.27,2.81-3.12,2.88-3.11l-0.06,0.5l0.03-0.25l-0.02,0.25
				C332.59,67.23,331.27,67.14,330.23,70.01z"/>
		</g>
		<path class="st14" d="M348.13,235.8c0,0-5.14,14.48-2.56,20.07c2.59,5.59,8.92,8.41,12.42,7.83c3.5-0.57-4.42-8.64-5.17-13.92
			c-0.74-5.27,2.33-13.99,2.33-13.99H348.13z"/>
		<path class="st14" d="M334.82,236.93c0,0-5.14,14.48-2.56,20.07s8.92,8.41,12.42,7.83c3.5-0.57-4.42-8.64-5.17-13.92
			s2.33-13.99,2.33-13.99H334.82z"/>
		<path class="st5" d="M301.95,170.54c0,0,7.04-19.23,26.31-14.68c19.28,4.54,25.41,82.34,15.51,89.15
			c-3.88,2.67-17.37,0.64-17.62-2.87C323.5,204.35,300.63,186.45,301.95,170.54z"/>
		<path class="st5" d="M319.67,156.74c0,0,31.44-4.49,45.49,9.46c14.06,13.95,4.19,74.11-7.83,79.41c-4.53,2-12.48-1.14-12.48-1.14
			C341.88,240.44,310.22,169.62,319.67,156.74z"/>
		<path class="st23" d="M345.08,244.56l-0.47-0.17c2.25-6.18,8.39-47.14,3.52-70.04c-2.55-12-6.42-16.2-9.21-17.61
			c-2.59-1.31-4.62-0.41-4.64-0.41l-0.21-0.45c0.09-0.04,2.25-1,5.06,0.4c2.9,1.45,6.89,5.75,9.49,17.96
			C353.51,197.22,347.34,238.35,345.08,244.56z"/>
		<path class="st5" d="M315.96,174.52c0,0-32.71,1.46-38.17-2.93c-9.37-7.56,1.29-21.35,1.29-21.35l49.19,5.63
			C328.27,155.86,327.69,174.34,315.96,174.52z"/>
		<path class="st19" d="M307.99,85.28c0,0,0.11,8.86,10.32,9.79c8.92,0.81,8.11-10.28,14.3-7.8s10.6,0.81,14.24,10.34
			c3.64,9.53-1.72,61.05-4.67,60.76c-2.95-0.3-33.47-3.96-44.32,3.16c-9.04,5.93-25.96,10.99-24.54,3.42s5.03-63.97,10.21-72.06
			C286.84,87.72,305.41,85.52,307.99,85.28z"/>
		<path class="st5" d="M232.41,108.05c0,0,57.18-7.49,59.39-1.87c2.22,5.62,2.46,17.85,0,18.75c-2.46,0.9-56.74,4.58-58.61,1.81
			C231.32,123.96,232.41,108.05,232.41,108.05z"/>
		<path class="st11" d="M230.84,91.24l60.98-0.08c1.73,5.87,2.3,16.6-0.32,16.76c-17.08,1-37.31,2.01-49.56,1.99
			c-6.77-0.01-11.1-0.34-11.12-1.16C230.72,105.34,230.84,91.24,230.84,91.24z"/>
		<path class="st18" d="M229.47,73.13c0,0,61.07-4.95,62.81,0.83s1.08,16.31-1.45,17c-2.53,0.69-43.83,0.17-60.01,0.55
			C227.47,91.59,229.47,73.13,229.47,73.13z"/>
		<path class="st8" d="M225.14,110.75c0,0-0.04-5.42,0.44-6.66c1.6-4.11,4.88-8.16,4.6-5.9c-0.27,2.26-0.99,5.25-0.99,5.25
			s2.24-4.69,2.89-4.3c0.66,0.4-0.02,5.97-0.02,5.97s1-5.07,2.38-3.64s-2.1,5.03-2.37,12.13
			C231.9,118.81,226.21,117.26,225.14,110.75z"/>
		<path class="st23" d="M303.97,175.93c-0.74,0-1.31-0.11-1.67-0.38c-0.26-0.19-0.4-0.46-0.42-0.79
			c-0.18-2.85,10.64-6.24,11.88-6.62l0.15,0.48c-3.25,0.99-11.66,4.03-11.52,6.11c0.01,0.18,0.08,0.31,0.22,0.42
			c0.96,0.72,4.47-0.07,7.87-0.82c2.68-0.6,5.44-1.21,7.37-1.21c0.03,0,0.05,0,0.08,0l0,0.5c-0.03,0-0.05,0-0.08,0
			c-1.87,0-4.61,0.61-7.26,1.2C307.95,175.4,305.57,175.93,303.97,175.93z"/>
		<path class="st23" d="M328.94,243.84l-0.5-0.06c0.55-4.22,1.04-16.68-6.33-41.08c-4.53-15.03-10.18-27.79-13.74-31.04
			c-0.65-0.59-1.2-0.85-1.64-0.75c-6.1,1.37-22.56-2.14-23.26-2.29l0.11-0.49c0.17,0.04,17.05,3.63,23.05,2.29
			c0.6-0.13,1.3,0.16,2.08,0.87c3.62,3.3,9.33,16.16,13.88,31.26C325.06,210.71,330.61,231.06,328.94,243.84z"/>
		<path class="st8" d="M337.8,102.25c0,0,10.61,8.57,13.69,16.69c3.08,8.12-16.39,28.8-24.72,29.82s-53.22-23.29-53.53-25.37
			s0.06-8.94,2.85-8.64c4.07,0.45,33.57,10.71,44.07,12.26C325.57,127.82,331.11,100.29,337.8,102.25z"/>
		<path class="st19" d="M321.72,117.27c0,0,23.78,5.04,28.47,11.13c2.33,3.03,6.3-10.54,5.97-21.57
			c-0.33-11.03-20.3-20.55-23.55-19.56S321.72,117.27,321.72,117.27z"/>
		<path class="st24" d="M327.99,113.04l-0.5-0.07c0.07-0.49,1.63-12.04,4.94-15.54c3.31-3.49,9.44-4.75,9.7-4.8l0.1,0.49
			c-0.06,0.01-6.23,1.28-9.44,4.66C329.59,101.16,328,112.92,327.99,113.04z"/>
		<path class="st24" d="M277.98,162.58l-0.47-0.17c0.12-0.34,3.29-8.38,23.58-9.44c10.6-0.56,19.28-0.05,26.25,0.35
			c6.34,0.37,10.92,0.64,13.76-0.11l0.13,0.48c-2.92,0.76-7.53,0.49-13.92,0.12c-6.96-0.41-15.62-0.91-26.19-0.35
			C281.2,154.51,278.01,162.5,277.98,162.58z"/>
		<path class="st24" d="M319.22,100.74c-5.68,0-14.39-11.71-14.76-12.21l0.4-0.3c0.09,0.12,8.93,12,14.36,12c0.02,0,0.05,0,0.07,0
			c3.58-0.07,7.59-5.37,10.24-8.87c1.76-2.32,2.57-3.34,3.13-3.23l-0.09,0.49c-0.34,0.01-1.56,1.62-2.63,3.04
			c-2.71,3.58-6.81,9-10.63,9.07C319.28,100.74,319.25,100.74,319.22,100.74z"/>
		<path class="st24" d="M351.68,124.34c-0.15-0.1-15.27-10.26-25.47-8.18l-0.1-0.49c10.41-2.11,25.7,8.15,25.85,8.25L351.68,124.34z
			"/>
		<path class="st11" d="M313.24,73.4c0,0,2.76,3.64,6.06,3.58c3.29-0.06,6.4-3.03,6.4-3.03s-0.4,2.17-0.41,3.05
			c-0.02,0.88-4.36,4.31-9.12,4.3c-1.98,0-3.13-3.62-3.03-4.12C313.22,76.67,313.6,74.65,313.24,73.4z"/>
		<path class="st4" d="M227.81,77.35c0,0,54.67-2.12,56.78,0c2.11,2.12,2.11,9.08,0,9.85c-2.11,0.77-56.13,1.09-56.78,1.18
			C227.16,88.47,226.56,77.4,227.81,77.35z"/>
		<path class="st4" d="M237.5,95.31c0,0,53.23-1.9,55.29,0s2.05,8.14,0,8.83c-2.05,0.69-54.66,0.98-55.29,1.06
			C236.86,105.28,236.28,95.36,237.5,95.31z"/>
		<path class="st18" d="M240.9,127.76l-0.63-17.84c0,0-2.94-0.57-3.6,0s-0.65,17.58,0,17.64S239.08,127.76,240.9,127.76z"/>
		<path class="st18" d="M248.33,127.76l-0.63-17.84c0,0-2.94-0.57-3.6,0s-0.65,17.58,0,17.64S246.5,127.76,248.33,127.76z"/>
		<path class="st18" d="M280.8,125.75l-0.4-17.85c0,0-2.93-0.61-3.6-0.05c-0.67,0.56-0.88,17.57-0.23,17.63
			S278.97,125.73,280.8,125.75z"/>
		<path class="st18" d="M288.22,125.85l-0.4-17.85c0,0-2.93-0.61-3.6-0.05c-0.67,0.56-0.88,17.57-0.23,17.63
			S286.4,125.83,288.22,125.85z"/>
		<path class="st8" d="M289.97,118.71c0,0-13.11-4.38-17.46-5.13s-9.98-0.81-7.91,0.16c2.06,0.97,4.97,1.96,4.97,1.96
			s-5.16-0.6-5.18,0.17c-0.02,0.77,5.07,3.16,5.07,3.16s-5.89-2.26-5.41-0.33s11.59,6.48,15.46,9.06
			C283.83,130.65,294.98,121.8,289.97,118.71z"/>
		<path class="st4" d="M338.5,253.98c-2,0-4.25-0.56-4.39-0.6l0.12-0.48c1.43,0.36,5.4,1.08,6.57,0.05l0.33,0.38
			C340.57,253.81,339.57,253.98,338.5,253.98z"/>
		<path class="st4" d="M339.45,256.6c-1.47,0-2.89-0.46-2.98-0.49l0.16-0.47c0.03,0.01,3.17,1.02,4.72,0.03l0.27,0.42
			C341.01,256.48,340.22,256.6,339.45,256.6z"/>
		<path class="st4" d="M352.54,252.96c-2,0-4.25-0.56-4.39-0.6l0.12-0.48c1.43,0.36,5.4,1.08,6.57,0.05l0.33,0.38
			C354.61,252.8,353.61,252.96,352.54,252.96z"/>
		<path class="st4" d="M353.48,255.59c-1.47,0-2.89-0.46-2.98-0.49l0.16-0.47c0.03,0.01,3.17,1.02,4.72,0.03l0.27,0.42
			C355.04,255.46,354.26,255.59,353.48,255.59z"/>
		<path class="st23" d="M361.34,241.07c-0.44-0.02-10.73-0.44-14.15-2.53l0.26-0.43c3.32,2.02,13.81,2.46,13.91,2.46L361.34,241.07z
			"/>
		<path class="st23" d="M339.23,238.38c-4.94,0-11.56-0.14-13.46-0.18l0.01-0.5c7.24,0.16,18.26,0.29,18.96,0.03l0.23,0.44
			C344.68,238.33,342.27,238.38,339.23,238.38z"/>
		<path class="st16" d="M227.01,80.75l-0.02-0.5c0.15-0.01,14.58-0.67,21.18-0.67c4.7,0,20.67-0.17,30.22-0.26
			c3.96-0.04,6.77-0.07,7.11-0.07v0.5c-0.34,0-3.15,0.03-7.11,0.07c-9.55,0.1-25.52,0.26-30.22,0.26
			C241.58,80.09,227.15,80.75,227.01,80.75z"/>
		<path class="st16" d="M247.37,85.87c-8.2,0-19.57-0.28-19.72-0.28l0.01-0.5c0.2,0.01,20.39,0.5,26.31,0.17
			c5.93-0.33,30.91-2.48,31.16-2.5l0.04,0.5c-0.25,0.02-25.24,2.17-31.17,2.5C252.52,85.84,250.12,85.87,247.37,85.87z"/>
		<path class="st16" d="M251.58,99.72c-6.87,0-14.81-0.29-14.93-0.29l0.02-0.5c0.18,0.01,18.04,0.66,23.29,0
			c5.29-0.66,33.58-1,33.86-1l0.01,0.5c-0.29,0-28.55,0.34-33.81,1C258.25,99.64,255.05,99.72,251.58,99.72z"/>
		<path class="st16" d="M237.5,103.09l0-0.5c0.28,0,27.69-0.18,31.95-1c4.31-0.83,23.73-0.52,24.55-0.5l-0.01,0.5
			c-0.2,0-20.19-0.32-24.45,0.5C265.24,102.91,238.63,103.08,237.5,103.09z"/>
		<path class="st19" d="M272.66,79.34c0,0,0.33,15.83,0.5,17.17c0.17,1.33,3.33-5.83,3.33-5.83l3.67,6.17L280.83,79
			C280.83,79,273.16,78.67,272.66,79.34z"/>
	</g>
	<g>
		<path class="st19" d="M250.97,248.27c0,0-11.45-4.86-16.12,11.3c-4.67,16.16-4.47,22.81,2.89,25.12s8.75-3.72,14.5-1.45
			c5.75,2.26,15.91,3.27,17.55-3.69C271.44,272.6,266.47,240.7,250.97,248.27z"/>
		<path class="st8" d="M258.86,258.02c0,0-2.59,24.45,1.56,28.1c4.14,3.65,20.92-1.89,25.38,5.14c4.46,7.03,3.13,59.25,3.13,59.25
			h-70.75c0,0,1.2-60.16,4.87-62.79c3.67-2.63,20.9,3.7,21.79-6.62c0.43-4.94,0.9-18.91,0.9-18.91L258.86,258.02z"/>
		<path class="st11" d="M245.22,276.39c0,0,7.45,5.91,12.85-3.18c0,0-0.12,5.5,0.06,6.38c0.18,0.88-5.3,5.62-6.15,5.62
			c-2.26,0-6.94-5.37-6.94-5.37L245.22,276.39z"/>
		<path class="st25" d="M238.82,287.17c0,0,4.28,14.47,11.98,15.6c7.71,1.12,9.6-16.1,11.8-15.6c2.2,0.5,14.15-5.45,19.5,3.05
			c5.35,8.5,4.88,75.01,4.88,75.01h-68.81c0,0,1.33-62.64,3.1-69.93C223.05,288,234.8,286.19,238.82,287.17z"/>
		<path class="st8" d="M261.74,255.58c0,0,1.14,25.47-11.85,24.75c-8.93-0.49-12.17-16.11-9.21-23.02
			C243.65,250.4,256.9,249.55,261.74,255.58z"/>
		
			<ellipse transform="matrix(0.0547 -0.9985 0.9985 0.0547 -34.9576 498.9922)" class="st14" cx="246.05" cy="267.96" rx="1.02" ry="0.79"/>
		
			<ellipse transform="matrix(0.0547 -0.9985 0.9985 0.0547 -26.7088 507.7049)" class="st14" cx="254.78" cy="267.96" rx="1.02" ry="0.79"/>
		<path class="st8" d="M259.96,267.72c0,0,1.72-4.24,3.52-2.25s-0.62,7.06-2.45,6.93S259,269.44,259.96,267.72z"/>
		<path class="st19" d="M254.46,262.16c0,0,1.9-0.5,2.91,1.77C257.96,265.25,252.34,262.6,254.46,262.16z"/>
		<path class="st19" d="M247.24,262.44c0,0-1.7-0.99-3.28,0.92C243.04,264.48,249.16,263.43,247.24,262.44z"/>
		<path class="st8" d="M241.23,266.87c0,0-1.22-4.41-3.24-2.63c-2.02,1.77-0.19,7.09,1.64,7.17
			C241.47,271.48,242,268.68,241.23,266.87z"/>
		<path class="st11" d="M251.03,272.38l-0.1,0c-0.47-0.02-1.73-0.07-2.05-1.37l0.49-0.12c0.19,0.8,0.87,0.95,1.52,0.98
			c0.09-0.68-0.09-3.61-0.33-6.27l0.5-0.04c0.38,4.21,0.45,6.47,0.2,6.73L251.03,272.38z"/>
		<path class="st11" d="M250.25,274.94c-2.19,0-3.87-2.92-3.94-3.04l0.44-0.25c0.02,0.03,1.61,2.79,3.5,2.79c0.02,0,0.03,0,0.05,0
			c1.07-0.03,2.06-0.94,2.95-2.72l0.45,0.22c-0.98,1.96-2.12,2.97-3.39,3C250.29,274.94,250.27,274.94,250.25,274.94z"/>
		<path class="st11" d="M240.33,269.82l-0.5-0.01c0.09-3.04-1.15-3.46-1.17-3.46l0.13-0.48
			C238.86,265.88,240.43,266.34,240.33,269.82z"/>
		<path class="st11" d="M261.11,270.97l-0.5-0.04c0.28-3.46,1.89-3.75,1.96-3.76l0.08,0.49
			C262.64,267.66,261.36,267.94,261.11,270.97z"/>
		<path class="st19" d="M237.84,263.01c0,0,1.29,1.68,4.38,0.19c7.78-3.75,9.38-12.25,9.38-12.25s0.75,5.88,1.88,7.88
			c1.12,2,6.6,5.81,7.86,5.47c1.26-0.34,4.61-7.65-1.94-12.75c-6.55-5.1-8.21-3.11-12.07-1.54
			C243.47,251.58,234.72,257.7,237.84,263.01z"/>
		<circle class="st19" cx="252.1" cy="243.54" r="7.3"/>
		<path class="st4" d="M250.81,302.97c0,0-6.48-17.5-10.72-15.25s-7.69,15-4.21,17.25C239.35,307.23,250.81,302.97,250.81,302.97z"
			/>
		<path class="st4" d="M252.1,302.97c0,0,6.48-17.5,10.72-15.25s7.69,15,4.21,17.25C263.55,307.23,252.1,302.97,252.1,302.97z"/>
		<path class="st5" d="M267.03,286.3c0,0-1.87,57.85,1.43,64.22c3.29,6.37,18.89,3.63,20.66-1.38c1.77-5.01-0.92-50.88-2.12-54.38
			C285.8,291.27,281.74,283.27,267.03,286.3z"/>
		<path class="st5" d="M239.03,286.3c0,0,1.87,57.85-1.43,64.22c-3.29,6.37-18.89,3.63-20.66-1.38c-1.77-5.01,0.92-50.88,2.12-54.38
			C220.25,291.27,224.32,283.27,239.03,286.3z"/>
		<path class="st7" d="M182.03,372.78c0,0-8.57-38.62,15.76-39.33s77.38,43.32,60.34,59.16
			C241.08,408.44,183.22,402.94,182.03,372.78z"/>
		<path class="st7" d="M325.93,372.78c0,0,4.79-38.71-19.54-39.42s-83.36,43.41-66.31,59.25S324.74,402.94,325.93,372.78z"/>
		<path class="st4" d="M81.04,399.92h175.92c0,0-16.84-59.45-68.31-59.04s-72.99,48.17-111.36,21.87
			C77.3,362.74,67,387.43,81.04,399.92z"/>
		<path class="st4" d="M418.96,399.92H243.03c0,0,16.84-59.45,68.31-59.04s72.99,48.17,111.36,21.87
			C422.7,362.74,433,387.43,418.96,399.92z"/>
		<path class="st26" d="M234.97,286.86c0,0-0.01-6.6-1.33-10.82c-1.32-4.21-2.11-9.79-0.87-7.87c1.23,1.92,2.59,4.67,2.59,4.67
			s-1.27-5.04-0.51-5.15c0.76-0.12,3.79,4.61,3.79,4.61s-2.46-4.54-0.48-4.32c1.98,0.22,11.74,12.35,6.24,23.49
			C242.08,296.13,238.69,291.42,234.97,286.86z"/>
		<path class="st5" d="M234.44,283.75c0,0,9.49,1.08,12.31,6.18c2.82,5.1-22.11,53.85-33.51,54.13s-17.32-8.71-19.11-10.71
			S224.55,279.65,234.44,283.75z"/>
		<path class="st26" d="M266.08,286.86c0,0,0.01-6.6,1.33-10.82c1.32-4.21,2.11-9.79,0.87-7.87c-1.23,1.92-2.59,4.67-2.59,4.67
			s1.27-5.04,0.51-5.15c-0.76-0.12-3.79,4.61-3.79,4.61s2.46-4.54,0.48-4.32c-1.98,0.22-11.65,14.46-6.24,23.49
			C259.34,295.93,262.36,291.42,266.08,286.86z"/>
		<path class="st5" d="M266.08,283.75c0,0-9.49,1.08-12.31,6.18c-2.82,5.1,22.11,53.85,33.51,54.13s17.32-8.71,19.11-10.71
			C308.18,331.36,275.98,279.65,266.08,283.75z"/>
		<path class="st5" d="M231.58,286.3c0,0-4.72,40.78-8.02,47.15c-3.29,6.37-27.66,4.92-29.43-0.09
			c-1.77-5.01,16.27-35.1,17.47-38.59C212.8,291.27,216.87,283.27,231.58,286.3z"/>
		<path class="st5" d="M272.89,286.3c0,0,4.72,40.78,8.02,47.15c3.29,6.37,23.72,4.92,25.49-0.09c1.77-5.01-15.48-34.82-16.68-38.31
			S286.09,283.52,272.89,286.3z"/>
		<path class="st23" d="M299.86,322.65c-7.82-18.81-22.61-35.12-27.03-36.11l0.11-0.49c5.09,1.14,20,18.62,27.38,36.4L299.86,322.65
			z"/>
		<path class="st23" d="M276.4,336.05c-0.08-0.14-8.32-14-10.08-15.95l0.37-0.33c1.79,1.99,9.8,15.46,10.14,16.03L276.4,336.05z"/>
		<path class="st11" d="M233.76,273.47l-0.17-0.47c0.18-0.07,4.48-1.65,6.15-0.81l-0.22,0.45
			C238.28,272.02,234.94,273.03,233.76,273.47z"/>
		<path class="st23" d="M245.19,297.74c-2.62-4.12-18.78-10.86-18.94-10.92l0.19-0.46c0.67,0.28,16.47,6.87,19.17,11.12
			L245.19,297.74z"/>
		<path class="st23" d="M199.73,322.22l-0.46-0.2c4.12-9.64,22.7-30.64,22.89-30.85l0.37,0.33
			C222.35,291.71,203.82,312.65,199.73,322.22z"/>
		<path class="st23" d="M222.53,337.86l-0.37-0.33c0.14-0.16,14.01-15.78,16.33-25.92l0.49,0.11
			C236.62,321.98,222.67,337.7,222.53,337.86z"/>
		<rect x="81.04" y="399.92" class="st11" width="340.58" height="17.84"/>
		<path class="st23" d="M210.09,342.58c-4.99,0-11.03-1.8-14.34-9.38c-0.09-0.2,0-0.33,0.04-0.38c0.25-0.28,0.88-0.11,3.53,0.67
			c4.64,1.37,13.29,3.92,23.02,3.94l0,0.5c-9.81-0.03-18.5-2.59-23.16-3.96c-1.28-0.38-2.42-0.71-2.89-0.77
			c6.15,13.67,21.64,7.5,21.8,7.44l0.19,0.46C218.2,341.13,214.57,342.58,210.09,342.58z"/>
		<path class="st23" d="M255.16,296.37l-0.25-0.43c0.54-0.32,13.22-7.7,18-7.24l-0.05,0.5
			C268.27,288.73,255.29,296.29,255.16,296.37z"/>
		<path class="st23" d="M288.11,339.23c-4.61,0-8.11-1.31-8.19-1.34l0.18-0.47c0.16,0.06,16.03,5.99,24.51-7.92l0.43,0.26
			C300.36,337.45,293.48,339.23,288.11,339.23z"/>
		<path class="st4" d="M245.95,271.2c-1.97,0-3.58-1.61-3.58-3.58s1.6-3.58,3.58-3.58s3.58,1.61,3.58,3.58
			S247.93,271.2,245.95,271.2z M245.95,264.54c-1.7,0-3.08,1.38-3.08,3.08s1.38,3.08,3.08,3.08c1.7,0,3.08-1.38,3.08-3.08
			S247.65,264.54,245.95,264.54z"/>
		<path class="st4" d="M255.04,271.2c-1.97,0-3.58-1.61-3.58-3.58s1.61-3.58,3.58-3.58s3.58,1.61,3.58,3.58
			S257.01,271.2,255.04,271.2z M255.04,264.54c-1.7,0-3.08,1.38-3.08,3.08s1.38,3.08,3.08,3.08c1.7,0,3.08-1.38,3.08-3.08
			S256.73,264.54,255.04,264.54z"/>
		<rect x="249.13" y="266.97" class="st4" width="2.97" height="0.5"/>
		
			<rect x="241.03" y="263.16" transform="matrix(0.5503 -0.835 0.835 0.5503 -112.8803 320.6856)" class="st4" width="0.5" height="3.96"/>
		<polygon class="st4" points="258.45,266.46 258.28,266 261.64,264.71 261.82,265.18 		"/>
		<path class="st16" d="M246.62,400.02c-13.48-29.08-25.93-42.7-41.62-45.52c-15.07-2.71-32.45,4.5-56.5,14.46
			c-5.78,2.4-11.76,4.88-18.23,7.43c-25.01,9.89-41.83,11.49-50,4.74c-6.32-5.23-4.79-13.75-4.77-13.83l0.49,0.09
			c-0.02,0.08-1.49,8.32,4.6,13.36c5.51,4.55,18.57,7.41,49.49-4.82c6.47-2.56,12.44-5.04,18.22-7.43
			c24.13-10,41.57-17.23,56.78-14.49c15.87,2.85,28.42,16.55,41.98,45.8L246.62,400.02z"/>
		<path class="st16" d="M238.53,400.65c-0.2-0.26-20.18-26.27-52.33-23.6c-10.82,0.9-24.83,4.84-39.65,9.02
			c-30.14,8.49-61.3,17.28-72.28,2.63l0.4-0.3c10.78,14.37,41.77,5.63,71.74-2.82c14.85-4.18,28.87-8.14,39.74-9.04
			c32.44-2.69,52.57,23.54,52.77,23.8L238.53,400.65z"/>
		<path class="st16" d="M144.26,400.15l-0.17-0.47c16.19-5.98,39.46-12.19,58.4-7.85c11.37,2.6,15.71,7.71,15.89,7.93l-0.38,0.32
			c-0.04-0.05-4.44-5.22-15.67-7.77C191.94,389.94,173.44,389.38,144.26,400.15z"/>
		<path class="st16" d="M253.7,400.02l-0.45-0.21c13.56-29.25,26.12-42.95,41.98-45.8c15.2-2.74,32.65,4.49,56.78,14.49
			c5.78,2.4,11.76,4.87,18.22,7.43c17.07,6.75,39.5,13.07,49.49,4.82c6.09-5.04,4.62-13.28,4.6-13.36l0.49-0.09
			c0.02,0.09,1.55,8.61-4.77,13.83c-8.17,6.75-24.99,5.16-50-4.74c-6.47-2.56-12.45-5.04-18.23-7.43
			c-24.05-9.97-41.43-17.17-56.5-14.46C279.63,357.33,267.18,370.94,253.7,400.02z"/>
		<path class="st16" d="M261.78,400.65l-0.4-0.3c0.2-0.26,20.34-26.49,52.77-23.8c10.87,0.9,24.9,4.85,39.75,9.04
			c29.97,8.45,60.97,17.18,71.74,2.81l0.4,0.3c-10.98,14.64-42.14,5.86-72.28-2.63c-14.82-4.18-28.83-8.12-39.65-9.02
			C281.96,374.39,261.98,400.39,261.78,400.65z"/>
		<path class="st16" d="M356.05,400.15c-16.13-5.95-39.3-12.14-58.11-7.83c-11.21,2.57-15.57,7.71-15.62,7.76l-0.38-0.32
			c0.18-0.22,4.52-5.33,15.89-7.93c10.45-2.39,29.06-2.97,58.39,7.85L356.05,400.15z"/>
		<path class="st19" d="M241.32,263.83l-0.08-0.49c0.44-0.08,10.82-1.97,10.1-13.23l0.5-0.03c0.39,6.12-2.49,9.54-4.98,11.33
			C244.17,263.33,241.43,263.81,241.32,263.83z"/>
		<path class="st19" d="M246.89,248.51c-1.66-0.55-2.63-1.45-2.89-2.66c-0.69-3.23,3.97-7.52,4.17-7.7l0.34,0.37
			c-0.05,0.04-4.65,4.28-4.02,7.23c0.22,1.03,1.08,1.8,2.56,2.29L246.89,248.51z"/>
		<path class="st19" d="M256.4,249.71l-0.12-0.49c0.03-0.01,2.59-0.65,3.33-2.64c0.52-1.41,0.03-3.16-1.45-5.22l0.41-0.29
			c1.59,2.2,2.1,4.12,1.51,5.69C259.24,249,256.51,249.68,256.4,249.71z"/>
		<path class="st19" d="M232.76,280.49c-0.03-0.05-3.22-4.88-2.19-10.72c0.53-3.01,1.79-4.46,2.8-5.62c1.1-1.26,1.89-2.16,1.23-4.5
			c-0.79-2.82,1.44-7.18,3.96-9.61c1.88-1.81,3.79-2.52,5.38-2l-0.15,0.48c-1.4-0.45-3.14,0.22-4.88,1.89
			c-2.77,2.66-4.49,6.75-3.83,9.11c0.73,2.6-0.18,3.65-1.34,4.97c-0.97,1.11-2.18,2.5-2.69,5.38c-0.99,5.64,2.09,10.31,2.12,10.36
			L232.76,280.49z"/>
		<path class="st27" d="M242.99,260.83l-0.11-0.49c4.49-1.04,6.28-5.07,6.45-8.2c0.08-1.42-0.24-2.13-0.42-2.2
			c-0.07-0.02-0.2,0.06-0.36,0.29c-1.87,2.62-10.19,9.62-10.54,9.92l-0.32-0.38c0.09-0.07,8.62-7.26,10.46-9.83
			c0.37-0.52,0.71-0.54,0.93-0.47c0.65,0.23,0.82,1.54,0.75,2.7C249.64,255.47,247.74,259.73,242.99,260.83z"/>
		<path class="st27" d="M251.54,246.52c-1.97-1.83-1.21-5.22-1.17-5.36l0.49,0.11c-0.01,0.03-0.73,3.26,1.02,4.89L251.54,246.52z"/>
		<path class="st27" d="M252.9,246.6c-0.2,0-0.33-0.02-0.34-0.02l-0.35-0.06l0.17-0.31c1.58-2.86,2.15-6.26,2.16-6.29l0.49,0.08
			c-0.02,0.14-0.54,3.25-2.02,6.1c0.37-0.02,0.94-0.12,1.42-0.54c0.64-0.57,0.94-1.54,0.9-2.9l0.5-0.02
			c0.05,1.52-0.31,2.63-1.07,3.3C254.1,246.51,253.33,246.6,252.9,246.6z"/>
		<path class="st27" d="M260.65,261.23c-0.23-0.33-5.57-8.18-6.8-11.04l0.46-0.2c1.21,2.82,6.7,10.88,6.75,10.96L260.65,261.23z"/>
		<path class="st27" d="M264.47,265.96c-0.37-7.47-5.22-13.66-5.27-13.72l0.39-0.31c0.05,0.06,5,6.38,5.38,14.01L264.47,265.96z"/>
		<path class="st19" d="M268.75,266.23c-0.05-6.04-1.75-9.65-3.16-11.61c-1.53-2.12-3.07-2.84-3.08-2.85l0.21-0.46
			c0.26,0.12,6.44,3.03,6.54,14.91L268.75,266.23z"/>
		<path class="st11" d="M266.3,273.38c-1.13-1.56-5.17-0.74-5.21-0.73l-0.1-0.49c0.18-0.04,4.41-0.9,5.72,0.93L266.3,273.38z"/>
	</g>
</g>
</svg>
