<?xml version="1.0" encoding="utf-8"?>
<!-- Generator: Adobe Illustrator 24.0.1, SVG Export Plug-In . SVG Version: 6.00 Build 0)  -->
<svg version="1.1" xmlns="http://www.w3.org/2000/svg" xmlns:xlink="http://www.w3.org/1999/xlink" x="0px" y="0px"
	 viewBox="0 0 750 500" style="enable-background:new 0 0 750 500;" xml:space="preserve">
<style type="text/css">
	.st0{fill:#F0F0F0;}
	.st1{fill:#E6E6E6;}
	.st2{fill:#E0E0E0;}
	.st3{fill:#FFFFFF;}
	.st4{fill:#EBEBEB;}
	.st5{fill:#F5F5F5;}
	.st6{fill:#FAFAFA;}
	.st7{display:none;}
	.st8{display:inline;opacity:0.4;}
	.st9{fill:#263238;}
	.st10{fill:none;}
	.st11{fill:#455A64;}
	.st12{fill:#E8505B;}
	.st13{opacity:0.2;}
	.st14{opacity:0.1;}
	.st15{fill:#E5BAAB;}
	.st16{fill:#D78776;}
	.st17{display:inline;fill:#455A64;}
	.st18{display:inline;}
	.st19{opacity:0.3;}
	.st20{fill:none;stroke:#E8505B;stroke-width:0.05;stroke-miterlimit:10;}
</style>
<g id="Background_Complete">
	<g>
		<g>
			<g>
				<rect x="178.98" y="241.09" class="st0" width="76.41" height="200"/>
			</g>
			<g>
				<rect x="217.18" y="241.09" class="st1" width="38.21" height="200"/>
			</g>
			<g>
				<rect x="187.7" y="217.32" class="st0" width="26.98" height="23.77"/>
			</g>
			<g>
				<rect x="208.26" y="217.32" class="st1" width="6.43" height="23.77"/>
			</g>
			<g>
				<rect x="172.61" y="239.7" class="st2" width="85.02" height="1.39"/>
			</g>
			<g>
				<rect x="194.06" y="251.46" class="st3" width="6.47" height="13.64"/>
			</g>
			<g>
				<g>
					<path class="st2" d="M217.18,270.45c0,0.14-8.55,0.26-19.1,0.26c-10.55,0-19.1-0.12-19.1-0.26c0-0.14,8.55-0.26,19.1-0.26
						C208.63,270.19,217.18,270.31,217.18,270.45z"/>
				</g>
			</g>
			<g>
				<g>
					<rect x="232.6" y="251.46" class="st2" width="6.47" height="13.64"/>
				</g>
				<g>
					<g>
						<path class="st2" d="M255.72,270.45c0,0.14-8.55,0.26-19.1,0.26c-10.55,0-19.1-0.12-19.1-0.26c0-0.14,8.55-0.26,19.1-0.26
							C247.17,270.19,255.72,270.31,255.72,270.45z"/>
					</g>
				</g>
			</g>
			<g>
				<g>
					<rect x="232.6" y="278.54" class="st2" width="6.47" height="13.64"/>
				</g>
				<g>
					<g>
						<path class="st2" d="M255.72,297.53c0,0.14-8.55,0.26-19.1,0.26c-10.55,0-19.1-0.12-19.1-0.26s8.55-0.26,19.1-0.26
							C247.17,297.27,255.72,297.38,255.72,297.53z"/>
					</g>
				</g>
			</g>
			<g>
				<g>
					<rect x="232.6" y="306.43" class="st2" width="6.47" height="13.64"/>
				</g>
				<g>
					<g>
						<path class="st2" d="M255.72,325.42c0,0.14-8.55,0.26-19.1,0.26c-10.55,0-19.1-0.12-19.1-0.26s8.55-0.26,19.1-0.26
							C247.17,325.16,255.72,325.28,255.72,325.42z"/>
					</g>
				</g>
			</g>
			<g>
				<g>
					<rect x="232.6" y="334.32" class="st2" width="6.47" height="13.64"/>
				</g>
				<g>
					<g>
						<path class="st2" d="M255.72,353.31c0,0.14-8.55,0.26-19.1,0.26c-10.55,0-19.1-0.12-19.1-0.26c0-0.14,8.55-0.26,19.1-0.26
							C247.17,353.05,255.72,353.17,255.72,353.31z"/>
					</g>
				</g>
			</g>
			<g>
				<g>
					<rect x="232.6" y="361.42" class="st2" width="6.47" height="13.64"/>
				</g>
				<g>
					<g>
						<path class="st2" d="M255.72,380.41c0,0.14-8.55,0.26-19.1,0.26c-10.55,0-19.1-0.12-19.1-0.26c0-0.14,8.55-0.26,19.1-0.26
							C247.17,380.15,255.72,380.27,255.72,380.41z"/>
					</g>
				</g>
			</g>
			<g>
				<g>
					<rect x="232.6" y="388.63" class="st2" width="6.47" height="13.64"/>
				</g>
				<g>
					<rect x="232.6" y="416.19" class="st2" width="6.47" height="13.64"/>
				</g>
				<g>
					<g>
						<path class="st2" d="M255.72,407.62c0,0.14-10.38,0.83-20.93,0.83c-10.55,0-17.28-0.69-17.28-0.83c0-0.14,8.55-0.26,19.1-0.26
							C247.17,407.36,255.72,407.47,255.72,407.62z"/>
					</g>
				</g>
			</g>
			<g>
				<rect x="194.06" y="278.95" class="st3" width="6.47" height="13.64"/>
			</g>
			<g>
				<g>
					<path class="st2" d="M217.18,297.94c0,0.14-8.55,0.26-19.1,0.26c-10.55,0-19.1-0.12-19.1-0.26c0-0.14,8.55-0.26,19.1-0.26
						C208.63,297.68,217.18,297.8,217.18,297.94z"/>
				</g>
			</g>
			<g>
				<rect x="194.06" y="306.44" class="st3" width="6.47" height="13.64"/>
			</g>
			<g>
				<g>
					<path class="st2" d="M217.18,325.43c0,0.14-8.55,0.26-19.1,0.26c-10.55,0-19.1-0.12-19.1-0.26c0-0.14,8.55-0.26,19.1-0.26
						C208.63,325.17,217.18,325.29,217.18,325.43z"/>
				</g>
			</g>
			<g>
				<rect x="194.06" y="333.93" class="st3" width="6.47" height="13.64"/>
			</g>
			<g>
				<g>
					<path class="st2" d="M217.18,352.92c0,0.14-8.55,0.26-19.1,0.26c-10.55,0-19.1-0.12-19.1-0.26c0-0.14,8.55-0.26,19.1-0.26
						C208.63,352.66,217.18,352.78,217.18,352.92z"/>
				</g>
			</g>
			<g>
				<rect x="194.06" y="361.42" class="st3" width="6.47" height="13.64"/>
			</g>
			<g>
				<g>
					<path class="st2" d="M217.18,380.41c0,0.14-8.55,0.26-19.1,0.26c-10.55,0-19.1-0.12-19.1-0.26c0-0.14,8.55-0.26,19.1-0.26
						C208.63,380.15,217.18,380.27,217.18,380.41z"/>
				</g>
			</g>
			<g>
				<rect x="194.06" y="388.91" class="st3" width="6.47" height="13.64"/>
			</g>
			<g>
				<g>
					<path class="st2" d="M217.18,407.9c0,0.14-8.55,0.26-19.1,0.26c-10.55,0-19.1-0.12-19.1-0.26c0-0.14,8.55-0.26,19.1-0.26
						C208.63,407.64,217.18,407.76,217.18,407.9z"/>
				</g>
			</g>
			<g>
				<g>
					<rect x="194.06" y="416.4" class="st3" width="6.47" height="13.64"/>
				</g>
			</g>
		</g>
		<g>
			<g>
				<rect x="464.19" y="169.58" class="st0" width="103.95" height="272.07"/>
			</g>
			<g>
				<rect x="516.16" y="169.58" class="st4" width="51.97" height="272.07"/>
			</g>
			<g>
				<rect x="476.06" y="137.24" class="st5" width="36.71" height="32.34"/>
			</g>
			<g>
				<rect x="504.01" y="137.24" class="st2" width="8.75" height="32.34"/>
			</g>
			<g>
				<rect x="455.53" y="167.7" class="st2" width="115.65" height="1.89"/>
			</g>
			<g>
				<rect x="484.71" y="183.69" class="st3" width="8.8" height="18.55"/>
			</g>
			<g>
				<g>
					<path class="st2" d="M516.16,209.52c0,0.2-11.64,0.35-25.98,0.35c-14.35,0-25.99-0.16-25.99-0.35s11.63-0.35,25.99-0.35
						C504.53,209.17,516.16,209.33,516.16,209.52z"/>
				</g>
			</g>
			<g>
				<g>
					<rect x="537.13" y="183.69" class="st2" width="8.8" height="18.55"/>
				</g>
				<g>
					<g>
						<path class="st2" d="M568.59,209.52c0,0.2-11.64,0.35-25.98,0.35c-14.35,0-25.99-0.16-25.99-0.35s11.63-0.35,25.99-0.35
							C556.95,209.17,568.59,209.33,568.59,209.52z"/>
					</g>
				</g>
			</g>
			<g>
				<g>
					<rect x="537.13" y="220.52" class="st2" width="8.8" height="18.55"/>
				</g>
				<g>
					<g>
						<path class="st2" d="M568.59,246.36c0,0.2-11.64,0.35-25.98,0.35c-14.35,0-25.99-0.16-25.99-0.35c0-0.2,11.63-0.35,25.99-0.35
							C556.95,246,568.59,246.16,568.59,246.36z"/>
					</g>
				</g>
			</g>
			<g>
				<g>
					<rect x="537.13" y="258.47" class="st2" width="8.8" height="18.55"/>
				</g>
				<g>
					<g>
						<path class="st2" d="M568.59,284.3c0,0.2-11.64,0.35-25.98,0.35c-14.35,0-25.99-0.16-25.99-0.35s11.63-0.35,25.99-0.35
							C556.95,283.95,568.59,284.11,568.59,284.3z"/>
					</g>
				</g>
			</g>
			<g>
				<g>
					<rect x="537.13" y="296.41" class="st2" width="8.8" height="18.55"/>
				</g>
				<g>
					<g>
						<path class="st2" d="M568.59,322.25c0,0.2-11.64,0.35-25.98,0.35c-14.35,0-25.99-0.16-25.99-0.35c0-0.2,11.63-0.35,25.99-0.35
							C556.95,321.89,568.59,322.05,568.59,322.25z"/>
					</g>
				</g>
			</g>
			<g>
				<g>
					<rect x="537.13" y="333.27" class="st2" width="8.8" height="18.55"/>
				</g>
				<g>
					<g>
						<path class="st2" d="M568.59,359.11c0,0.2-11.64,0.35-25.98,0.35c-14.35,0-25.99-0.16-25.99-0.35c0-0.2,11.63-0.35,25.99-0.35
							C556.95,358.75,568.59,358.91,568.59,359.11z"/>
					</g>
				</g>
			</g>
			<g>
				<g>
					<rect x="537.13" y="370.28" class="st2" width="8.8" height="18.55"/>
				</g>
				<g>
					<rect x="537.13" y="407.78" class="st2" width="8.8" height="18.55"/>
				</g>
				<g>
					<g>
						<path class="st2" d="M568.59,396.12c0,0.2-11.64,0.35-25.98,0.35c-14.35,0-25.99-0.16-25.99-0.35c0-0.2,11.63-0.35,25.99-0.35
							C556.95,395.76,568.59,395.92,568.59,396.12z"/>
					</g>
				</g>
			</g>
			<g>
				<rect x="484.71" y="221.09" class="st3" width="8.8" height="18.55"/>
			</g>
			<g>
				<g>
					<path class="st2" d="M516.16,246.92c0,0.2-11.64,0.35-25.98,0.35c-14.35,0-25.99-0.16-25.99-0.35c0-0.2,11.63-0.35,25.99-0.35
						C504.53,246.57,516.16,246.72,516.16,246.92z"/>
				</g>
			</g>
			<g>
				<rect x="484.71" y="258.48" class="st3" width="8.8" height="18.55"/>
			</g>
			<g>
				<g>
					<path class="st2" d="M516.16,284.32c0,0.2-11.64,0.35-25.98,0.35c-14.35,0-25.99-0.16-25.99-0.35c0-0.2,11.63-0.35,25.99-0.35
						C504.53,283.96,516.16,284.12,516.16,284.32z"/>
				</g>
			</g>
			<g>
				<rect x="484.71" y="295.88" class="st3" width="8.8" height="18.55"/>
			</g>
			<g>
				<g>
					<path class="st2" d="M516.16,321.71c0,0.2-11.64,0.35-25.98,0.35c-14.35,0-25.99-0.16-25.99-0.35c0-0.2,11.63-0.35,25.99-0.35
						C504.53,321.36,516.16,321.52,516.16,321.71z"/>
				</g>
			</g>
			<g>
				<rect x="484.71" y="333.27" class="st3" width="8.8" height="18.55"/>
			</g>
			<g>
				<g>
					<path class="st2" d="M516.16,359.11c0,0.2-11.64,0.35-25.98,0.35c-14.35,0-25.99-0.16-25.99-0.35c0-0.2,11.63-0.35,25.99-0.35
						C504.53,358.75,516.16,358.91,516.16,359.11z"/>
				</g>
			</g>
			<g>
				<rect x="484.71" y="370.67" class="st3" width="8.8" height="18.55"/>
			</g>
			<g>
				<g>
					<path class="st2" d="M516.16,396.5c0,0.2-11.64,0.35-25.98,0.35c-14.35,0-25.99-0.16-25.99-0.35c0-0.2,11.63-0.35,25.99-0.35
						C504.53,396.15,516.16,396.31,516.16,396.5z"/>
				</g>
			</g>
			<g>
				<g>
					<rect x="484.71" y="408.07" class="st3" width="8.8" height="18.55"/>
				</g>
			</g>
		</g>
		<g>
			<g>
				<g>
					<rect x="134.62" y="364.32" class="st0" width="58.59" height="77.28"/>
				</g>
				<g>
					<rect x="165.74" y="364.32" class="st4" width="27.47" height="77.28"/>
				</g>
			</g>
			<g>
				<g>
					<rect x="146.9" y="374.79" class="st3" width="5.27" height="12.8"/>
				</g>
				<g>
					<rect x="146.9" y="424.88" class="st3" width="5.27" height="12.8"/>
				</g>
				<g>
					<g>
						<path class="st2" d="M165.74,392.61c0,0.14-6.97,0.26-15.56,0.26c-8.6,0-15.56-0.12-15.56-0.26c0-0.14,6.97-0.26,15.56-0.26
							C158.77,392.35,165.74,392.47,165.74,392.61z"/>
					</g>
				</g>
			</g>
			<g>
				<g>
					<rect x="146.9" y="400.02" class="st3" width="5.27" height="12.8"/>
				</g>
				<g>
					<g>
						<path class="st2" d="M165.74,417.85c0,0.14-6.97,0.26-15.56,0.26c-8.6,0-15.56-0.12-15.56-0.26c0-0.14,6.97-0.26,15.56-0.26
							C158.77,417.59,165.74,417.7,165.74,417.85z"/>
					</g>
				</g>
			</g>
			<g>
				<rect x="171.57" y="374.79" class="st2" width="5.27" height="12.8"/>
			</g>
			<g>
				<rect x="183" y="374.79" class="st2" width="5.27" height="12.8"/>
			</g>
			<g>
				<rect x="171.57" y="399.07" class="st2" width="5.27" height="12.8"/>
			</g>
			<g>
				<rect x="183" y="399.07" class="st2" width="5.27" height="12.8"/>
			</g>
			<g>
				<rect x="171.57" y="423.36" class="st2" width="5.27" height="12.8"/>
			</g>
			<g>
				<rect x="183" y="423.36" class="st2" width="5.27" height="12.8"/>
			</g>
			<g>
				<rect x="130.21" y="361.63" class="st2" width="67.4" height="2.79"/>
			</g>
			<g>
				<g>
					<path class="st2" d="M193.62,364.68c0,0.14-13.1,0.26-29.25,0.26c-16.16,0-29.25-0.12-29.25-0.26c0-0.14,13.09-0.26,29.25-0.26
						C180.53,364.42,193.62,364.54,193.62,364.68z"/>
				</g>
			</g>
		</g>
		<g>
			<g>
				<g>
					<rect x="559.62" y="340.58" class="st2" width="76.42" height="100.8"/>
				</g>
				<g>
					<rect x="600.21" y="340.58" class="st4" width="35.83" height="100.8"/>
				</g>
			</g>
			<g>
				<g>
					<rect x="575.65" y="354.23" class="st3" width="6.87" height="16.69"/>
				</g>
				<g>
					<rect x="575.65" y="419.56" class="st3" width="6.87" height="16.69"/>
				</g>
				<g>
					<g>
						<path class="st6" d="M600.21,377.47c0,0.14-9.09,0.26-20.29,0.26c-11.21,0-20.3-0.12-20.3-0.26s9.08-0.26,20.3-0.26
							C591.12,377.21,600.21,377.33,600.21,377.47z"/>
					</g>
				</g>
			</g>
			<g>
				<g>
					<rect x="575.65" y="387.14" class="st3" width="6.87" height="16.69"/>
				</g>
				<g>
					<g>
						<path class="st6" d="M600.21,410.39c0,0.14-9.09,0.26-20.29,0.26c-11.21,0-20.3-0.12-20.3-0.26s9.08-0.26,20.3-0.26
							C591.12,410.13,600.21,410.24,600.21,410.39z"/>
					</g>
				</g>
			</g>
			<g>
				<rect x="607.82" y="354.23" class="st2" width="6.87" height="16.69"/>
			</g>
			<g>
				<rect x="622.73" y="354.23" class="st2" width="6.87" height="16.69"/>
			</g>
			<g>
				<rect x="607.82" y="385.9" class="st2" width="6.87" height="16.69"/>
			</g>
			<g>
				<rect x="622.73" y="385.9" class="st2" width="6.87" height="16.69"/>
			</g>
			<g>
				<rect x="607.82" y="417.58" class="st2" width="6.87" height="16.69"/>
			</g>
			<g>
				<rect x="622.73" y="417.58" class="st2" width="6.87" height="16.69"/>
			</g>
			<g>
				<rect x="553.88" y="337.07" class="st2" width="87.91" height="3.63"/>
			</g>
			<g>
				<g>
					<path class="st6" d="M636.58,341.05c0,0.14-17.08,0.26-38.15,0.26c-21.07,0-38.15-0.12-38.15-0.26
						c0-0.14,17.08-0.26,38.15-0.26C619.49,340.79,636.58,340.9,636.58,341.05z"/>
				</g>
			</g>
		</g>
	</g>
	<g>
		<path class="st4" d="M260.29,65.22h57.1c0,0,0.01-13.07-6.74-13.07c-8.9,0-10.47,8.11-10.47,8.11s0-24.4-12.28-20.82
			c-11.62,3.39-12.93,19.01-12.93,19.01s-2.09-7.85-8.39-3.43C260.29,59.44,260.29,65.22,260.29,65.22z"/>
	</g>
	<g>
		<path class="st4" d="M132.55,112.43h28.98c0,0,0-6.63-3.42-6.63c-4.52,0-5.31,4.11-5.31,4.11s0-12.38-6.23-10.56
			c-5.89,1.72-6.56,9.64-6.56,9.64s-1.06-3.99-4.26-1.74C132.55,109.5,132.55,112.43,132.55,112.43z"/>
	</g>
	<g>
		<path class="st4" d="M590.94,143.33h40.62c0,0,0.01-9.3-4.8-9.3c-6.33,0-7.45,5.77-7.45,5.77s0-17.36-8.73-14.81
			c-8.26,2.41-9.2,13.52-9.2,13.52s-1.49-5.59-5.97-2.44C590.94,139.22,590.94,143.33,590.94,143.33z"/>
	</g>
</g>
<g id="Background_Simple" class="st7">
	<g class="st8">
		<g>
			<path class="st2" d="M416.53,192.09c25.48-1.98,32.04-4.56,57.35-8.16c31.69-4.52,47.5-8.55,78.94-2.54
				c31.44,6.01,62.33,24.57,74.51,54.17c15.31,37.19-3.58,81.66-34.72,107.11c-31.14,25.45-71.78,35.73-111.36,42.89
				c-34.38,6.21-69.31,10.62-104.19,8.81s-69.9-10.09-99.98-27.85c-37.45-22.11-65.29-57.63-86.7-95.49
				c-15.53-27.46-28.36-57.4-29.69-88.92c-1.34-31.52,10.55-64.93,36.28-83.2c32.39-22.99,78.79-16.47,111.99,5.34
				c29.93,19.66,40.82,32.87,58.17,59.92c6.75,10.53,16.37,19.01,27.88,23.92C401.44,190.83,408.83,192.69,416.53,192.09z"/>
		</g>
	</g>
</g>
<g id="Floor">
	<g>
		<g>
			<path class="st9" d="M665.5,441.66c0,0.14-130.07,0.26-290.49,0.26c-160.47,0-290.52-0.12-290.52-0.26
				c0-0.14,130.05-0.26,290.52-0.26C535.43,441.4,665.5,441.51,665.5,441.66z"/>
		</g>
	</g>
</g>
<g id="Locator">
	<g>
		<g>
			<path class="st10" d="M285.01,328.75c0-33.49-35.18-54.7-71.06-37.91c-8.1,3.79-14.8,10.21-18.87,18.09
				c-9.03,17.48-5.04,37.45,3.14,54.02l27.92,70.76c4.02,10.2,18.48,10.14,22.42-0.09l27.37-71.12
				C285.41,340.82,285.01,328.75,285.01,328.75z M251.31,357.89c-24.12,14.02-48.55-11.9-35.34-37.47c1.76-3.4,4.45-6.26,7.66-8.12
				c24.12-14.02,48.56,11.9,35.34,37.47C257.21,353.17,254.52,356.02,251.31,357.89z"/>
		</g>
		<g>
			<g>
				<path class="st9" d="M251.31,357.89c0-0.01,0.11-0.09,0.35-0.24c0.24-0.15,0.58-0.38,1.02-0.7c0.88-0.64,2.14-1.65,3.48-3.22
					c0.67-0.78,1.36-1.71,2-2.78c0.66-1.07,1.19-2.33,1.81-3.66c1.12-2.71,2.1-5.94,2.4-9.62c0.28-3.66-0.02-7.78-1.51-11.85
					c-1.41-4.08-3.99-8.1-7.67-11.28c-3.65-3.18-8.51-5.44-13.79-5.83c-5.28-0.45-10.79,1.02-15.65,3.82
					c-2.41,1.4-4.47,3.34-6.05,5.55c-0.79,1.11-1.46,2.28-2.01,3.52c-0.61,1.2-1.06,2.46-1.54,3.7c-1.66,5.02-2.12,10.27-1.17,15.04
					c0.45,2.39,1.19,4.66,2.17,6.74c1.01,2.07,2.23,3.96,3.61,5.63c2.77,3.33,6.17,5.7,9.55,7.12c3.4,1.41,6.76,1.94,9.69,1.87
					c2.94-0.04,5.42-0.64,7.38-1.26c0.49-0.16,0.95-0.31,1.39-0.46c0.42-0.18,0.82-0.34,1.18-0.5c0.37-0.15,0.71-0.29,1.02-0.42
					c0.3-0.15,0.57-0.29,0.81-0.42c0.47-0.24,0.84-0.42,1.11-0.56C251.18,357.94,251.31,357.88,251.31,357.89
					c0,0.01-0.12,0.08-0.36,0.22c-0.27,0.15-0.63,0.35-1.09,0.61c-0.24,0.13-0.51,0.28-0.81,0.44c-0.31,0.14-0.65,0.29-1.01,0.45
					c-0.37,0.16-0.76,0.34-1.18,0.52c-0.44,0.15-0.9,0.31-1.39,0.48c-1.97,0.65-4.47,1.29-7.44,1.36c-2.96,0.1-6.37-0.41-9.84-1.82
					c-3.45-1.42-6.92-3.81-9.74-7.18c-1.41-1.69-2.66-3.6-3.69-5.7c-1-2.12-1.76-4.42-2.23-6.85c-0.98-4.86-0.53-10.2,1.16-15.3
					c0.48-1.25,0.93-2.54,1.56-3.75c0.55-1.25,1.24-2.46,2.05-3.6c1.62-2.27,3.73-4.25,6.21-5.7c4.93-2.85,10.56-4.35,15.95-3.88
					c5.4,0.41,10.35,2.73,14.06,5.98c3.74,3.25,6.35,7.35,7.77,11.5c1.49,4.15,1.77,8.33,1.47,12.03c-0.33,3.72-1.35,6.98-2.5,9.7
					c-0.64,1.33-1.19,2.6-1.87,3.68c-0.67,1.08-1.38,2-2.06,2.79c-1.38,1.57-2.68,2.56-3.58,3.18
					C251.83,357.64,251.31,357.89,251.31,357.89z"/>
			</g>
		</g>
		<g>
			<g>
				<path class="st9" d="M285.01,328.75c0,0,0.03,0.35,0.01,1.02c-0.02,0.68-0.07,1.68-0.22,2.99c-0.28,2.62-0.91,6.48-2.2,11.32
					c-1.26,4.85-3.24,10.68-6.02,17.23c-2.62,6.61-5.46,14.2-8.68,22.56c-3.21,8.36-6.72,17.52-10.49,27.35
					c-1.89,4.92-3.84,10-5.85,15.23c-0.5,1.31-1.01,2.63-1.52,3.96c-0.26,0.66-0.51,1.33-0.77,2c-0.26,0.67-0.5,1.34-0.83,2
					c-1.21,2.66-3.4,4.98-6.21,6.13c-2.78,1.14-6.03,1.38-8.95,0.32c-0.36-0.13-0.73-0.26-1.09-0.4l-1.03-0.55l-0.51-0.28
					l-0.47-0.35l-0.94-0.71c-1.12-1.08-2.17-2.29-2.83-3.74l-0.52-1.07l-0.43-1.09c-0.29-0.72-0.57-1.45-0.86-2.18
					c-0.58-1.46-1.15-2.92-1.73-4.39c-1.16-2.94-2.33-5.91-3.52-8.91c-4.73-11.99-9.63-24.39-14.65-37.1
					c-2.31-5.84-4.59-11.63-6.73-17.06l0.01,0.02c-2.75-5.69-5.04-11.53-6.45-17.51l-0.52-2.24l-0.41-2.25
					c-0.31-1.49-0.43-3.01-0.63-4.5c-0.25-3.01-0.4-6.01-0.17-8.97c0.13-2.97,0.66-5.87,1.28-8.71c0.77-2.8,1.63-5.56,2.87-8.13
					c2.3-5.22,5.74-9.75,9.76-13.38c4.01-3.67,8.69-6.31,13.44-8.17c4.74-1.92,9.56-3.2,14.3-3.87c9.49-1.35,18.59-0.12,26.11,2.89
					c7.56,2.98,13.47,7.67,17.56,12.58c4.13,4.91,6.52,10,7.85,14.27c1.34,4.29,1.76,7.77,1.93,10.11
					C285.04,327.52,285.01,328.75,285.01,328.75s-0.03-0.31-0.05-0.91c-0.04-0.6-0.03-1.5-0.14-2.66c-0.2-2.33-0.65-5.8-2.01-10.06
					c-1.35-4.24-3.76-9.29-7.88-14.15c-4.08-4.86-9.97-9.49-17.48-12.43c-7.47-2.96-16.51-4.17-25.93-2.8
					c-4.7,0.67-9.49,1.96-14.2,3.87c-4.72,1.87-9.33,4.48-13.29,8.11c-3.97,3.6-7.36,8.08-9.63,13.24
					c-1.22,2.54-2.08,5.27-2.83,8.04c-0.61,2.81-1.14,5.68-1.26,8.62c-0.22,2.93-0.07,5.91,0.18,8.89c0.21,1.48,0.32,2.99,0.63,4.47
					l0.41,2.23l0.52,2.22c1.4,5.94,3.68,11.75,6.42,17.4l0.01,0.01l0,0.01c2.15,5.44,4.43,11.22,6.73,17.06
					c5.01,12.71,9.91,25.12,14.64,37.11c1.18,3,2.35,5.97,3.51,8.91c0.58,1.47,1.16,2.93,1.73,4.39c0.29,0.73,0.57,1.45,0.86,2.18
					l0.43,1.09l0.5,1.03c0.63,1.39,1.63,2.55,2.71,3.59l0.9,0.68l0.45,0.34l0.49,0.27l0.98,0.53c0.34,0.14,0.7,0.26,1.05,0.39
					c2.8,1.02,5.93,0.8,8.6-0.29c2.7-1.1,4.8-3.32,5.97-5.89c0.32-0.62,0.57-1.31,0.83-1.97c0.26-0.67,0.51-1.33,0.77-2
					c0.51-1.33,1.02-2.65,1.52-3.95c2.02-5.23,3.98-10.31,5.87-15.23c3.79-9.82,7.33-18.97,10.55-27.33
					c3.24-8.35,6.11-15.93,8.76-22.53c2.8-6.54,4.8-12.34,6.09-17.17c1.32-4.83,1.98-8.67,2.29-11.28c0.16-1.31,0.23-2.31,0.27-2.98
					C285.01,329.1,285.01,328.75,285.01,328.75z"/>
			</g>
		</g>
	</g>
</g>
<g id="Device">
	<g>
		<g>
			<g>
				<path class="st3" d="M504.63,250.69c0.11,0.1-0.9,1.37-2.26,2.85c-1.35,1.47-2.53,2.59-2.64,2.49c-0.11-0.1,0.9-1.37,2.26-2.85
					C503.34,251.71,504.52,250.6,504.63,250.69z"/>
			</g>
		</g>
		<g>
			<g>
				<path class="st9" d="M465.9,441.59H261.02c-6.38,0-11.55-5.17-11.55-11.55V101.25c0-6.38,5.17-11.55,11.55-11.55H465.9
					c6.38,0,11.55,5.17,11.55,11.55v328.79C477.45,436.42,472.28,441.59,465.9,441.59z"/>
			</g>
		</g>
		<g>
			<g>
				<ellipse class="st11" cx="361.7" cy="425.23" rx="8.75" ry="9.41"/>
			</g>
		</g>
		<g>
			<g>
				<path class="st11" d="M396.58,103.73h-66.23c-0.67,0-1.22-0.54-1.22-1.22v-1.46c0-0.67,0.54-1.22,1.22-1.22h66.23
					c0.67,0,1.22,0.54,1.22,1.22v1.46C397.79,103.18,397.25,103.73,396.58,103.73z"/>
			</g>
		</g>
		<g>
			<path class="st9" d="M470.76,410.97h-214.6V113.09h214.6V410.97z M257.16,409.97h212.6V114.09h-212.6V409.97z"/>
		</g>
		<g>
			<polygon class="st11" points="258.22,376.43 256.66,376.67 256.66,383.38 257.42,383.28 			"/>
		</g>
		<g>
			<path class="st11" d="M264.89,336.49c-2.78,1.11-5.53,2.03-8.22,2.82v9.3h12.53v15.01h-12.53v6.97l36.06-5.48
				C281.67,357.35,272.16,347.58,264.89,336.49z"/>
		</g>
		<g>
			<path class="st12" d="M445.46,177.77l-69.6,12.7l4.11,21.53l62.81,7.85L445.46,177.77z M399.95,210.46h-13.47v-18.69h13.47
				V210.46z M405.96,211.41v-15.98h32.75l-0.94,19.43L405.96,211.41z"/>
		</g>
		<g>
			<polygon class="st11" points="260.35,382.9 305.49,376.93 298.43,370.32 261.15,375.99 			"/>
		</g>
		<g>
			<path class="st12" d="M449.33,116.82l-80.85,35.01l6.87,35.97l70.29-12.83L449.33,116.82z M397.59,175.7l-12.11,3.14l-2.75-28.06
				l14.86-6.41V175.7z M406.61,178.89v-32.88l34.6-14.93l-2.49,39.47L406.61,178.89z"/>
		</g>
		<g>
			<g>
				<path class="st12" d="M320.43,201.81c-3.23-2.82-5.86-6.07-8.24-9.43l-7.49,6.75c1.09,1.44,2.17,2.78,3.24,3.87
					c8.52,8.68,20.78,15.94,33.3,18.67c5.1,1.11,8.04,6.19,6.31,10.89l-3.64,9.85c6.77,0.59,13.11,1.99,18.45,3.44l10.72-28.63
					l-10.65-1.33C345.9,213.8,331.33,211.32,320.43,201.81z"/>
			</g>
			<g class="st13">
				<path d="M320.43,201.81c-3.23-2.82-5.86-6.07-8.24-9.43l-7.49,6.75c1.09,1.44,2.17,2.78,3.24,3.87
					c8.52,8.68,20.78,15.94,33.3,18.67c5.1,1.11,8.04,6.19,6.31,10.89l-3.64,9.85c6.77,0.59,13.11,1.99,18.45,3.44l10.72-28.63
					l-10.65-1.33C345.9,213.8,331.33,211.32,320.43,201.81z"/>
			</g>
		</g>
		<g>
			<path class="st11" d="M441.69,225.78L379.48,218l-10.79,28.81l66.3,1.21L441.69,225.78z M382.28,222.28h8.21v3.55h-8.21V222.28z
				 M387.91,242.55v-12.28h42.5v12.28H387.91z"/>
		</g>
		<g>
			<path class="st11" d="M301.95,369.79l7.12,6.67l36.59-4.83c3.63-0.48,7.16,1.4,8.63,4.6l12.17,26.53
				c1.21,2.63,0.76,5.55-0.9,7.71h14.65l-22.58-49.14L301.95,369.79z"/>
		</g>
		<g>
			<polygon class="st11" points="418.17,303.84 425.21,280.47 387.06,280.47 			"/>
		</g>
		<g>
			<path class="st9" d="M286.39,164.1c-8.98-5.62-18.63-9.01-26.45-11.01c-1.09-0.28-2.18-0.54-3.27-0.79v4.04h1.45v8.28h-1.45
				v13.85c0.68,1.02,1.31,2.07,1.89,3.15L286.39,164.1z M264.32,159.8h8.69v8.28h-8.69V159.8z"/>
		</g>
		<g>
			<path class="st11" d="M343.47,194.81c-3.71,1.9-6.25,5.66-6.56,9.66c7.69,2.89,16.64,4.25,26.35,5.46l10.14,1.27l-3.85-20.15
				c-6.38,0.08-12.76,0.66-19.03,1.74C348.26,193.17,345.66,193.68,343.47,194.81z M359.04,194.44c1.42-0.25,2.93-0.5,4.29-0.04
				c2.23,0.74,3.38,3.1,3.79,5.32c0.4,2.22,0.32,4.54,1.17,6.64c-0.7,0.23-1.39,0.45-2.09,0.68l-1.23-0.14
				c-4.42-0.49-8.84-0.97-13.26-1.46c-1.38-0.15-2.78-0.31-4.05-0.85c-1.27-0.54-2.4-1.52-2.74-2.8c-0.45-1.73,0.68-3.54,2.23-4.53
				c1.55-0.99,3.44-1.33,5.28-1.66C354.65,195.21,356.84,194.83,359.04,194.44z"/>
		</g>
		<g>
			<path class="st11" d="M360.65,268.29l-6.19,16.52c-1.65,4.41-4.42,8.18-7.89,11.1l45.99,63.71l15.76,2.22l8.19-51.59
				L360.65,268.29z M353.74,298.8l10.67-22.11l10.59,8.07l-10.85,23.73L353.74,298.8z M367.66,311.75l11.05-24.17l17.01,12.95
				l-11.97,26.18L367.66,311.75z M387.26,329.98l12.17-26.62l10.69,8.14l-6.16,34.02L387.26,329.98z"/>
		</g>
		<g>
			<path class="st11" d="M274.02,151.26c6.98-2.39,12.99-4.94,16.63-9.83c2.04-2.73,3.31-6.25,3.79-10.45
				c0.43-3.83,0.17-7.79-0.09-11.63l2.86-0.17c0.26,3.95,0.54,8.03,0.08,12.09c-0.53,4.68-1.97,8.63-4.3,11.74
				c-3.58,4.79-8.92,7.5-15.15,9.8c4.97,2.14,10.04,4.82,14.88,8.16l68.56-13.27l-6.52-34.11h-98.1v32.56
				c1.64,0.36,3.28,0.73,4.91,1.15C265.39,148.28,269.63,149.58,274.02,151.26z M303.44,116.96h46.37v24.74h-46.37V116.96z
				 M274.16,120.28h12.23v16.37h-12.23V120.28z M256.68,120.28h12.23v16.37h-12.23V120.28z"/>
		</g>
		<g>
			<path class="st11" d="M470.26,143.55v-7.19c-2.47-1.06-5.04-1.8-7.7-2.12c-1.63-0.2-2.8-1.6-2.67-3.16l0.73-8.72
				c0.1-1.24,1.02-2.29,2.28-2.62l7.36-1.9v-4.24h-14.41l-1.65,26.06C459.8,139.66,465.35,141.03,470.26,143.55z"/>
		</g>
		<g>
			<path class="st11" d="M441.55,113.59h-80.38l6.14,32.14L441.55,113.59z M369.71,121.93l26.76,1.69c1.98,0.12,2.47,2.68,0.67,3.47
				l-24.46,10.75c-1.14,0.5-2.46-0.16-2.68-1.34l-2.3-12.44C367.49,122.9,368.48,121.86,369.71,121.93z"/>
		</g>
		<g>
			<path class="st11" d="M451.47,367.9l18.79,2.64v-11.08l-11.27-1.13l8.04-14.53h3.23v-3.95h-1.05l1.05-1.9v-9.89
				c-1.23,1.63-2.42,3.26-3.55,4.92C459.41,343.72,454.65,355.58,451.47,367.9z"/>
		</g>
		<g>
			<path class="st11" d="M464.13,317.55c1.45-1.88,2.87-3.73,4.23-5.57h-45.74l-8.06,50.74l25.59,3.6
				c3.45-13.75,8.71-27.17,16.94-39.26C459.34,323.76,461.77,320.6,464.13,317.55z M453.29,322.39
				c-7.98,10.56-13.85,22.67-17.29,35.25c-0.37,1.33-1.73,2.19-3.16,1.99l-9.12-1.24c-1.57-0.21-2.66-1.61-2.42-3.1l5.6-34.91
				c0.21-1.33,1.41-2.31,2.82-2.31l21.26,0.01C453.32,318.08,454.65,320.59,453.29,322.39z"/>
		</g>
		<g>
			<path class="st11" d="M453.81,145.66l-4.76,74.99l21.21,2.65V217l-15.01-1.59l0.9-16.35h14.12v-4.49h-13.9l0.9-16.45l13,0.35
				V150.6C465.51,147.34,459.68,145.58,453.81,145.66z"/>
		</g>
		<g>
			<path class="st11" d="M424.09,305.97h46.17v-37.85h-7.09v-13.37h7.09v-5.97h-21.13l4.46-15.23l16.67,1.6v-5.8l-22.25-2.78
				L424.09,305.97z M453.83,258.84v15.28h14.98v26.56h-33.43l11.46-41.84H453.83z"/>
		</g>
		<g>
			<path class="st11" d="M362.89,262.32l20.54,15.43h42.61l8.14-27.01l-66.49-1.21L362.89,262.32z M401.81,254.75h3.58h21.49
				l-5.92,18.74h-19.15V254.75z M377.5,252.84h12.13v3.82H377.5V252.84z M377.5,259.01h12.13v3.82H377.5V259.01z M389.63,265.19
				v3.82H377.5v-3.82H389.63z"/>
		</g>
		<g>
			<path class="st11" d="M364.72,361.76l22.38,48.71h46.84c0.8-12.4,2.11-25.43,4.86-38.28L364.72,361.76z M405.75,389.45h-19.99
				l-5.01-16.62h25V389.45z M414.18,394.09v-19.62h9.84v19.62H414.18z"/>
		</g>
		<g>
			<path class="st11" d="M328.42,302.54c-1.39,0-2.78-0.1-4.19-0.31c-0.38-0.06-0.77-0.12-1.15-0.19
				c-6.53-1.21-12.66-4.38-17.4-8.85c-2.59,10.2-8.23,19.97-16.44,27.87c-6.71,6.46-14.24,11.05-21.71,14.32
				c7.56,11.43,17.57,21.41,29.22,29.12l58.27-8.85l-24.44-53.2C329.87,302.51,329.15,302.54,328.42,302.54z M304.21,350.48
				l-21.86-10.08L302,312.87l15.52,5.91L304.21,350.48z M335.48,330.31l11.26,19.22c0.63,1.07-0.07,2.42-1.34,2.59l-18.26,2.54
				c-1.34,0.19-2.43-1.02-2.03-2.25l7-21.76C332.59,329.18,334.69,328.96,335.48,330.31z"/>
		</g>
		<g>
			<g>
				<path class="st12" d="M273.66,207.62c-3.74-7.09-1.77-15.85,5-20.48c5.26-3.59,11.22-3.4,15.94,0.04c3,2.18,5.77,6.05,8.43,9.7
					l7.56-6.81c-0.76-1.13-1.51-2.26-2.24-3.38c-1.95-2.97-3.96-6.04-6.17-8.79c-3.09-3.85-6.61-7.16-10.35-10.02l-30.87,19.42
					c0.05,0.17,0.12,0.34,0.17,0.51c1.36,4.47,1.69,8.63,1.97,12.31c0.15,1.87,0.28,3.63,0.54,5.1c1.08,6.19,5.09,12.06,10.17,17.98
					l6.77-6.1C277.91,214.2,275.5,211.12,273.66,207.62z M291.53,170.9l3.51,4l-7.24,5.77l-3.51-4L291.53,170.9z"/>
			</g>
			<g class="st13">
				<path d="M273.66,207.62c-3.74-7.09-1.77-15.85,5-20.48c5.26-3.59,11.22-3.4,15.94,0.04c3,2.18,5.77,6.05,8.43,9.7l7.56-6.81
					c-0.76-1.13-1.51-2.26-2.24-3.38c-1.95-2.97-3.96-6.04-6.17-8.79c-3.09-3.85-6.61-7.16-10.35-10.02l-30.87,19.42
					c0.05,0.17,0.12,0.34,0.17,0.51c1.36,4.47,1.69,8.63,1.97,12.31c0.15,1.87,0.28,3.63,0.54,5.1c1.08,6.19,5.09,12.06,10.17,17.98
					l6.77-6.1C277.91,214.2,275.5,211.12,273.66,207.62z M291.53,170.9l3.51,4l-7.24,5.77l-3.51-4L291.53,170.9z"/>
			</g>
		</g>
		<g>
			<g>
				<g>
					<path class="st12" d="M324.28,296.14c0.31,0.06,0.62,0.11,0.93,0.15c10.01,1.5,19.83-4.18,23.32-13.51l12.87-34.37
						c-6.74-1.81-12.83-2.92-18.47-3.37l-14.22,38.49c-1.12,3.19-5.96,2.9-6.65-0.39c-2.27-10.79-6.23-21.23-11.72-30.93
						c-3.09,2.02-5.77,4.4-7.94,7.08c1.64,3.47,2.96,7.15,3.82,11.09c1.08,4.94,1.34,10.03,0.83,15.11
						C311.09,290.93,317.41,294.87,324.28,296.14z"/>
				</g>
				<g class="st13">
					<path class="st12" d="M324.28,296.14c0.31,0.06,0.62,0.11,0.93,0.15c10.01,1.5,19.83-4.18,23.32-13.51l12.87-34.37
						c-6.74-1.81-12.83-2.92-18.47-3.37l-14.22,38.49c-1.12,3.19-5.96,2.9-6.65-0.39c-2.27-10.79-6.23-21.23-11.72-30.93
						c-3.09,2.02-5.77,4.4-7.94,7.08c1.64,3.47,2.96,7.15,3.82,11.09c1.08,4.94,1.34,10.03,0.83,15.11
						C311.09,290.93,317.41,294.87,324.28,296.14z"/>
				</g>
			</g>
			<g>
				<g class="st13">
					<g>
						<path class="st12" d="M324.28,296.14c0.31,0.06,0.62,0.11,0.93,0.15c10.01,1.5,19.83-4.18,23.32-13.51l12.87-34.37
							c-6.74-1.81-12.83-2.92-18.47-3.37l-14.22,38.49c-1.12,3.19-5.96,2.9-6.65-0.39c-2.27-10.79-6.23-21.23-11.72-30.93
							c-3.09,2.02-5.77,4.4-7.94,7.08c1.64,3.47,2.96,7.15,3.82,11.09c1.08,4.94,1.34,10.03,0.83,15.11
							C311.09,290.93,317.41,294.87,324.28,296.14z"/>
					</g>
				</g>
				<g class="st13">
					<g>
						<path d="M324.28,296.14c0.31,0.06,0.62,0.11,0.93,0.15c10.01,1.5,19.83-4.18,23.32-13.51l12.87-34.37
							c-6.74-1.81-12.83-2.92-18.47-3.37l-14.22,38.49c-1.12,3.19-5.96,2.9-6.65-0.39c-2.27-10.79-6.23-21.23-11.72-30.93
							c-3.09,2.02-5.77,4.4-7.94,7.08c1.64,3.47,2.96,7.15,3.82,11.09c1.08,4.94,1.34,10.03,0.83,15.11
							C311.09,290.93,317.41,294.87,324.28,296.14z"/>
					</g>
				</g>
			</g>
		</g>
		<g>
			<g>
				<path class="st12" d="M308.95,249.82c-4.59-7.65-10.16-14.8-16.65-21.23c-3.24-3.21-6.65-6.26-9.8-9.47l-6.85,6.17
					c1.88,2.1,3.86,4.21,5.87,6.36c6.87,7.31,14.37,15.3,19.51,24.91C303.27,254.03,305.94,251.77,308.95,249.82z"/>
			</g>
			<g class="st13">
				<path d="M308.95,249.82c-4.59-7.65-10.16-14.8-16.65-21.23c-3.24-3.21-6.65-6.26-9.8-9.47l-6.85,6.17
					c1.88,2.1,3.86,4.21,5.87,6.36c6.87,7.31,14.37,15.3,19.51,24.91C303.27,254.03,305.94,251.77,308.95,249.82z"/>
			</g>
		</g>
		<g>
			<path class="st11" d="M336.91,301.23l24.83,54.05l26.96,3.79l-44.35-61.45C342.06,299.17,339.56,300.39,336.91,301.23z
				 M373.11,343.79l-10.37,2.91l-3.27-6.25l9.22-3.23L373.11,343.79z M367.12,334.86l-8.93,3.13l-4.45-8.5l7.9-2.77L367.12,334.86z"
				/>
		</g>
		<g>
			<path class="st11" d="M307.19,174.25c2.39,2.98,4.48,6.17,6.51,9.26c3.39,5.16,6.59,10.04,10.99,13.88
				c2.82,2.46,6,4.39,9.47,5.94c0.68-4.55,3.68-8.73,7.95-10.92c2.56-1.31,5.42-1.88,7.9-2.3c6.27-1.08,12.65-1.67,19.02-1.77
				l-6.63-34.71l-63.33,12.26C301.97,168.37,304.7,171.14,307.19,174.25z M334.33,164.44l25.02-4.64v9h-25.02V164.44z
				 M325.65,172.62h33.7v13.45l-33.7,3.59V172.62z M312.05,167.92l9.53-1.83v11.86h-9.53V167.92z"/>
		</g>
		<g>
			<path class="st11" d="M455.39,392.45v-10.22h14.87v-5.61l-20.19-2.84c-2.62,12.09-3.89,24.52-4.67,36.7h24.86v-18.02H455.39z"/>
		</g>
		<g>
			<polygon class="st11" points="256.66,383.38 256.66,389.8 257.42,383.28 			"/>
		</g>
		<g>
			<polygon class="st11" points="260.35,382.9 257.15,410.47 341.31,410.47 305.49,376.93 			"/>
		</g>
		<g>
			<path class="st9" d="M366.46,402.76l-12.17-26.53c-1.47-3.2-4.99-5.08-8.63-4.6l-36.59,4.83l36.32,34.01h20.16
				C367.22,408.31,367.66,405.39,366.46,402.76z"/>
		</g>
		<g>
			<path class="st9" d="M464.13,317.55c-2.36,3.05-4.79,6.21-7.03,9.51c-8.23,12.09-13.49,25.51-16.94,39.26l11.31,1.59
				c3.18-12.33,7.94-24.18,15.24-34.92c1.13-1.66,2.32-3.29,3.55-4.92v-16.1h-1.9C467,313.82,465.58,315.66,464.13,317.55z"/>
		</g>
		<g>
			<path class="st9" d="M438.79,372.19c-2.75,12.86-4.06,25.88-4.86,38.28h11.48c0.78-12.17,2.05-24.61,4.67-36.7L438.79,372.19z"/>
		</g>
		<g>
			<path class="st9" d="M263.36,334.1l2.47-1.38c0.55,0.89,1.12,1.78,1.7,2.65c7.47-3.28,15-7.87,21.71-14.32
				c8.21-7.9,13.85-17.67,16.44-27.87c-1.88-1.77-3.55-3.74-4.93-5.88l5.37-3.14c0.29,0.45,0.6,0.89,0.93,1.33
				c0.51-5.08,0.25-10.17-0.83-15.11c-0.86-3.93-2.18-7.61-3.82-11.09c-0.62,0.76-1.2,1.54-1.73,2.35l-2.43-1.44
				c0.83-1.27,1.77-2.48,2.79-3.64c-5.14-9.61-12.64-17.6-19.51-24.91c-2.01-2.14-4-4.25-5.87-6.36l-2.24,2.01l-1.97-1.98l2.37-2.13
				c-5.08-5.92-9.08-11.79-10.17-17.98c-0.26-1.47-0.39-3.23-0.54-5.1c-0.29-3.68-0.61-7.84-1.97-12.31
				c-0.05-0.17-0.11-0.34-0.17-0.51l-2.03,1.28l-2.26-3.26v13.38c0.05,0.64,0.11,1.27,0.15,1.88c0.16,2,0.3,3.89,0.61,5.63
				c1.9,10.83,10.4,19.87,19.4,29.46c9.38,9.98,20.02,21.3,23.22,35.95c3.4,15.54-2.46,32.87-15.29,45.22
				c-8.58,8.26-18.7,13.22-28.1,16.19v6.29c2.69-0.79,5.44-1.71,8.22-2.82C264.37,335.7,263.86,334.91,263.36,334.1z"/>
		</g>
		<g>
			<path class="st12" d="M256.66,178.47v4.33l1.89-1.19C257.98,180.54,257.35,179.49,256.66,178.47z"/>
		</g>
		<g>
			<path class="st9" d="M300.05,271.61c-3.2-14.65-13.84-25.97-23.22-35.95c-9-9.58-17.51-18.63-19.4-29.46
				c-0.3-1.74-0.45-3.63-0.61-5.63c-0.05-0.61-0.1-1.24-0.15-1.88v25.83c11.27,16.36,31.01,29.32,35.25,48.7
				c2.98,13.61-2.8,28.16-13.06,38.04c-6.22,5.98-13.9,10.36-22.19,13.34v8.42c9.4-2.97,19.52-7.93,28.1-16.19
				C297.59,304.48,303.45,287.15,300.05,271.61z"/>
		</g>
		<g>
			<path class="st11" d="M291.92,273.22c-4.24-19.38-23.98-32.34-35.25-48.7V324.6c8.3-2.97,15.97-7.35,22.19-13.34
				C289.12,301.39,294.89,286.83,291.92,273.22z"/>
		</g>
		<g>
			<polygon class="st9" points="448.85,223.77 448.76,224.09 448.01,226.57 470.26,229.35 470.26,223.3 449.05,220.65 			"/>
		</g>
		<g>
			<polygon class="st9" points="442.6,222.75 442.79,219.86 379.97,212.01 380.56,215.11 379.48,218 441.69,225.78 			"/>
		</g>
		<g>
			<path class="st12" d="M286.39,164.1l4.37-2.75l1.96-0.38c-4.84-3.33-9.91-6.01-14.88-8.16c-1.46,0.54-2.96,1.06-4.51,1.57
				l-0.95-2.57c0.55-0.18,1.1-0.37,1.64-0.55c-4.39-1.69-8.62-2.99-12.44-3.97c-1.63-0.42-3.27-0.79-4.91-1.15v6.16
				c1.1,0.25,2.19,0.51,3.27,0.79C267.76,155.1,277.41,158.48,286.39,164.1z"/>
		</g>
		<g>
			<path class="st9" d="M302.18,177.89c2.21,2.76,4.22,5.82,6.17,8.79c0.74,1.12,1.48,2.25,2.24,3.38l2.51-2.26l1.97,1.98
				l-2.88,2.59c2.38,3.36,5.01,6.62,8.24,9.43c10.9,9.51,25.47,11.99,42.01,14.06l10.65,1.33l0.97-2.59l-0.65-3.42l-10.14-1.27
				c-9.7-1.21-18.66-2.56-26.35-5.46c-0.01,0.14-0.03,0.27-0.03,0.41l-2.86-0.1c0.02-0.49,0.07-0.97,0.15-1.45
				c-3.47-1.55-6.65-3.47-9.47-5.94c-4.41-3.84-7.61-8.72-10.99-13.88c-2.02-3.09-4.12-6.28-6.51-9.26
				c-2.49-3.1-5.23-5.88-8.11-8.38l-5.87,1.14l-1.38,0.87C295.57,170.73,299.09,174.04,302.18,177.89z"/>
		</g>
		<g>
			<g>
				<g>
					<path class="st12" d="M294.6,187.17c-4.73-3.44-10.69-3.63-15.94-0.04c-6.77,4.63-8.73,13.39-5,20.48
						c1.84,3.5,4.25,6.58,6.92,9.49l22.45-20.23C300.37,193.22,297.6,189.36,294.6,187.17z"/>
				</g>
				<g class="st14">
					<path class="st12" d="M294.6,187.17c-4.73-3.44-10.69-3.63-15.94-0.04c-6.77,4.63-8.73,13.39-5,20.48
						c1.84,3.5,4.25,6.58,6.92,9.49l22.45-20.23C300.37,193.22,297.6,189.36,294.6,187.17z"/>
				</g>
			</g>
			<g class="st13">
				<g>
					<path class="st12" d="M294.6,187.17c-4.73-3.44-10.69-3.63-15.94-0.04c-6.77,4.63-8.73,13.39-5,20.48
						c1.84,3.5,4.25,6.58,6.92,9.49l22.45-20.23C300.37,193.22,297.6,189.36,294.6,187.17z"/>
				</g>
			</g>
		</g>
		<g>
			<path class="st12" d="M330.46,245.2c-7.55,0.86-14.5,3.34-20.12,7.02c5.49,9.7,9.45,20.13,11.72,30.93
				c0.69,3.3,5.52,3.58,6.65,0.39l14.22-38.49C338.54,244.7,334.41,244.75,330.46,245.2z"/>
		</g>
		<g>
			<path class="st12" d="M341.24,221.67c-12.52-2.73-24.78-9.98-33.3-18.67c-1.07-1.09-2.15-2.43-3.24-3.87l-10.67,9.61l32.15,34.37
				c1.3-0.25,2.61-0.46,3.94-0.61c4.67-0.53,9.32-0.48,13.79-0.09l3.64-9.85C349.28,227.86,346.34,222.78,341.24,221.67z"/>
		</g>
		<g>
			<g>
				<path class="st12" d="M282.5,219.13c3.15,3.21,6.56,6.26,9.8,9.47c6.49,6.43,12.05,13.58,16.65,21.23
					c4.12-2.66,8.89-4.71,14.05-6.02l-31.05-33.19L282.5,219.13z"/>
			</g>
		</g>
		<g>
			<polygon class="st9" points="368.47,151.82 449.33,116.82 449.53,113.59 441.55,113.59 367.31,145.73 			"/>
		</g>
		<g>
			<polygon class="st9" points="260.96,187.3 291.83,167.87 293.21,167.01 299.08,165.87 362.41,153.61 361.28,147.7 292.72,160.98 
				290.76,161.35 286.39,164.1 258.55,181.62 256.66,182.81 256.66,185.32 258.93,188.58 			"/>
		</g>
		<g>
			<path class="st9" d="M324.23,302.23c1.4,0.21,2.8,0.31,4.19,0.31c0.73,0,1.45-0.03,2.17-0.08l-0.79-1.71l5.78-2.41l1.33,2.89
				c2.65-0.84,5.16-2.05,7.43-3.6l-1.83-2.54l2.36-1.55l1.71,2.37c3.47-2.92,6.24-6.69,7.89-11.1l6.19-16.52l-4.83-3.63l3.9-4.71
				l3.16,2.38l4.79-12.79l-1.44-0.03l-0.09,0.27c-1.62-0.49-3.2-0.94-4.75-1.35l-12.87,34.37c-3.49,9.33-13.3,15.01-23.32,13.51
				c-0.31-0.05-0.62-0.1-0.93-0.15c-6.87-1.27-13.19-5.21-17.23-10.65c-0.32-0.43-0.63-0.87-0.93-1.33l-5.37,3.14
				c1.38,2.14,3.05,4.11,4.93,5.88c4.74,4.47,10.87,7.64,17.4,8.85C323.47,302.1,323.85,302.17,324.23,302.23z"/>
		</g>
		<g>
			<path class="st9" d="M362.41,153.61l6.63,34.71c1.07-0.02,2.15-0.02,3.22-0.01l-0.03,2.73c-0.89-0.01-1.78-0.01-2.67,0
				l3.85,20.15l0.65,3.42l-0.97,2.59l-10.72,28.63c1.23,0.33,2.4,0.67,3.51,0.99l0-0.07l2.82,0.05L379.48,218l1.08-2.89l-0.59-3.1
				l-4.11-21.53l-2.39,0.44l-0.54-2.68l2.41-0.44l-6.87-35.97l-1.16-6.09l-6.14-32.14h-6.41l6.52,34.11L362.41,153.61z"/>
		</g>
		<g>
			<polygon class="st9" points="359.57,361.04 357.64,361.33 380.21,410.47 387.09,410.47 364.72,361.76 			"/>
		</g>
		<g>
			<polygon class="st9" points="335.58,298.33 329.8,300.74 330.59,302.45 355.03,355.65 359.53,354.96 361.73,355.27 
				336.91,301.23 			"/>
		</g>
		<g>
			<path class="st9" d="M258.41,374.75l2.85,0.3l-0.11,0.94l37.28-5.66l-0.49-0.46l2.01-1.95l2,1.87l55.69-8.46l1.93-0.29l5.15,0.72
				l74.08,10.43l11.28,1.59l20.19,2.84v-6.07l-18.79-2.64l-11.31-1.59l-25.59-3.6l-0.47,2.98l-6.23-0.9l0.47-2.96l-15.76-2.22
				l0.83,1.15l-2.36,1.55l-2.34-3.24l-26.96-3.79l-2.21-0.31l-4.5,0.68l-58.27,8.85c0.98,0.65,1.97,1.29,2.98,1.91l-1.55,2.29
				c-1.86-1.14-3.67-2.34-5.45-3.59l-36.06,5.48v6.08l1.55-0.24L258.41,374.75z"/>
		</g>
		<g>
			<polygon class="st9" points="418.81,311.97 416.52,310.25 408.32,361.83 407.85,364.79 414.09,365.69 414.56,362.71 
				422.62,311.97 			"/>
		</g>
		<g>
			<path class="st9" d="M445.64,174.96l2.84-0.52l0.54,2.68l-3.55,0.65l-2.67,42.09l-0.18,2.88l-0.91,3.03l-6.7,22.24l2.81,0.05
				l-0.05,2.73l-3.58-0.07l-8.14,27.01h2.24v2.73h-3.07l-7.04,23.37l2.83,2.12h3.09l23.92-79.4l0.75-2.48l0.1-0.32l0.2-3.12
				l4.76-74.99c-0.39,0-0.78,0.01-1.18,0.04l-0.36-5.99c0.64-0.03,1.28-0.05,1.92-0.05l1.65-26.06h-6.32l-0.2,3.23L445.64,174.96z"
				/>
		</g>
		<g>
			<polygon class="st9" points="291.95,210.62 291.63,210.27 293.77,208.46 294.03,208.74 304.7,199.13 312.19,192.38 
				315.07,189.79 313.1,187.8 310.59,190.06 303.03,196.87 280.58,217.1 273.81,223.2 271.45,225.33 273.41,227.31 275.65,225.3 
				282.5,219.13 			"/>
		</g>
		<g>
			<path class="st9" d="M310.34,252.22c5.63-3.68,12.57-6.16,20.12-7.02c3.95-0.45,8.07-0.5,12.47-0.15
				c5.64,0.45,11.72,1.56,18.47,3.37c1.55,0.42,3.13,0.86,4.75,1.35l0.09-0.27l-0.42-0.01l0.05-2.66c-1.11-0.33-2.28-0.66-3.51-0.99
				c-5.34-1.45-11.68-2.84-18.45-3.44c-4.47-0.39-9.12-0.44-13.79,0.09c-1.33,0.15-2.65,0.37-3.94,0.61l0.54,0.58l-2.14,1.82
				l-1.59-1.7c-5.16,1.31-9.92,3.36-14.05,6.02c-3.01,1.94-5.69,4.2-7.92,6.74c-1.02,1.16-1.96,2.37-2.79,3.64l2.43,1.44
				c0.53-0.81,1.12-1.59,1.73-2.35C304.57,256.62,307.26,254.24,310.34,252.22z"/>
		</g>
		<g>
			<polygon class="st9" points="293.77,208.46 291.63,210.27 291.95,210.62 323,243.8 324.58,245.5 326.72,243.68 326.18,243.1 
				294.03,208.74 			"/>
		</g>
		<g>
			<polygon class="st9" points="359.36,172.62 325.65,172.62 325.65,189.67 359.36,186.07 			"/>
		</g>
		<g>
			<polygon class="st9" points="359.36,159.8 334.33,164.44 334.33,168.8 359.36,168.8 			"/>
		</g>
		<g>
			<polygon class="st9" points="321.58,166.08 312.05,167.92 312.05,177.94 321.58,177.94 			"/>
		</g>
		<g>
			<path class="st9" d="M344.94,201.79c0.33,1.28,1.47,2.27,2.74,2.8c1.27,0.54,2.67,0.69,4.05,0.85c4.42,0.49,8.84,0.97,13.26,1.46
				l1.23,0.14c0.7-0.23,1.39-0.45,2.09-0.68c-0.86-2.1-0.77-4.42-1.17-6.64c-0.4-2.22-1.56-4.58-3.79-5.32
				c-1.37-0.46-2.87-0.21-4.29,0.04c-2.2,0.39-4.4,0.77-6.6,1.16c-1.84,0.32-3.73,0.67-5.28,1.66
				C345.62,198.25,344.49,200.06,344.94,201.79z"/>
		</g>
		<g>
			<path class="st9" d="M342.12,192.4c-4.27,2.19-7.27,6.37-7.95,10.92c-0.07,0.48-0.13,0.96-0.15,1.45l2.86,0.1
				c0.01-0.14,0.02-0.28,0.03-0.41c0.31-4,2.85-7.75,6.56-9.66c2.19-1.12,4.79-1.63,7.06-2.02c6.27-1.08,12.65-1.67,19.03-1.74
				c0.89-0.01,1.78-0.01,2.67,0l0.03-2.73c-1.07-0.01-2.15,0-3.22,0.01c-6.37,0.1-12.76,0.7-19.02,1.77
				C347.54,190.53,344.68,191.09,342.12,192.4z"/>
		</g>
		<g>
			<rect x="303.44" y="116.96" class="st9" width="46.37" height="24.74"/>
		</g>
		<g>
			<rect x="274.16" y="120.28" class="st9" width="12.23" height="16.37"/>
		</g>
		<g>
			<rect x="256.68" y="120.28" class="st9" width="12.23" height="16.37"/>
		</g>
		<g>
			<path class="st9" d="M292.98,143.02c2.33-3.12,3.77-7.07,4.3-11.74c0.46-4.06,0.18-8.14-0.08-12.09l-2.86,0.17
				c0.26,3.84,0.52,7.8,0.09,11.63c-0.47,4.21-1.75,7.72-3.79,10.45c-3.64,4.88-9.65,7.43-16.63,9.83
				c-0.54,0.19-1.09,0.37-1.64,0.55l0.95,2.57c1.54-0.52,3.05-1.03,4.51-1.57C284.07,150.52,289.41,147.81,292.98,143.02z"/>
		</g>
		<g>
			<polygon class="st9" points="295.05,174.9 291.53,170.9 284.3,176.67 287.81,180.67 			"/>
		</g>
		<g>
			<polygon class="st9" points="449.01,177.12 448.47,174.44 445.64,174.96 375.34,187.79 372.93,188.23 373.47,190.91 
				375.86,190.48 445.46,177.77 			"/>
		</g>
		<g>
			<path class="st9" d="M452.28,139.7l0.36,5.99c0.39-0.02,0.78-0.03,1.18-0.04c5.87-0.07,11.69,1.69,16.45,4.95v-7.05
				c-4.92-2.52-10.47-3.89-16.07-3.89C453.55,139.65,452.91,139.66,452.28,139.7z"/>
		</g>
		<g>
			<polygon class="st9" points="421,305.97 418.17,303.84 387.06,280.47 380.15,280.47 380.15,277.74 383.42,277.74 362.89,262.32 
				359.72,259.94 355.82,264.66 360.65,268.29 416.52,310.25 418.81,311.97 422.62,311.97 468.36,311.97 470.26,311.97 
				470.26,305.97 424.09,305.97 			"/>
		</g>
		<g>
			<path class="st9" d="M450.98,318.08l-21.26-0.01c-1.41,0-2.61,0.98-2.82,2.31l-5.6,34.91c-0.24,1.49,0.85,2.89,2.42,3.1
				l9.12,1.24c1.43,0.2,2.79-0.66,3.16-1.99c3.45-12.58,9.31-24.69,17.29-35.25C454.65,320.59,453.32,318.08,450.98,318.08z"/>
		</g>
		<g>
			<path class="st9" d="M460.61,122.36l-0.73,8.72c-0.13,1.56,1.04,2.96,2.67,3.16c2.65,0.32,5.23,1.07,7.7,2.12v-18.53l-7.36,1.9
				C461.63,120.06,460.72,121.11,460.61,122.36z"/>
		</g>
		<g>
			<path class="st9" d="M267.53,335.38c-0.58-0.88-1.15-1.76-1.7-2.65l-2.47,1.38c0.5,0.8,1.01,1.6,1.52,2.39
				c7.27,11.09,16.78,20.86,27.84,28.62c1.78,1.25,3.59,2.45,5.45,3.59l1.55-2.29c-1-0.62-1.99-1.26-2.98-1.91
				C285.1,356.78,275.09,346.81,267.53,335.38z"/>
		</g>
		<g>
			<polygon class="st9" points="366.24,249.5 367.68,249.52 434.17,250.74 437.75,250.8 437.8,248.08 434.99,248.02 368.69,246.81 
				365.88,246.76 365.88,246.83 365.82,249.49 			"/>
		</g>
		<g>
			<polygon class="st12" points="405.96,195.43 405.96,211.41 437.77,214.86 438.72,195.43 			"/>
		</g>
		<g>
			<g>
				<polygon class="st12" points="405.96,195.43 405.96,211.41 437.77,214.86 438.72,195.43 				"/>
			</g>
			<g class="st14">
				<polygon points="405.96,195.43 405.96,211.41 437.77,214.86 438.72,195.43 				"/>
			</g>
		</g>
		<g>
			<g>
				<rect x="386.48" y="191.77" class="st12" width="13.47" height="18.69"/>
			</g>
			<g class="st14">
				<rect x="386.48" y="191.77" width="13.47" height="18.69"/>
			</g>
		</g>
		<g>
			<g>
				<polygon class="st12" points="385.48,178.84 397.59,175.7 397.59,144.37 382.73,150.79 				"/>
			</g>
			<g class="st14">
				<polygon points="385.48,178.84 397.59,175.7 397.59,144.37 382.73,150.79 				"/>
			</g>
		</g>
		<g>
			<polygon class="st12" points="406.61,146.01 406.61,178.89 438.72,170.55 441.21,131.08 			"/>
		</g>
		<g>
			<g>
				<polygon class="st12" points="406.61,146.01 406.61,178.89 438.72,170.55 441.21,131.08 				"/>
			</g>
			<g class="st14">
				<polygon points="406.61,146.01 406.61,178.89 438.72,170.55 441.21,131.08 				"/>
			</g>
		</g>
		<g>
			<rect x="264.32" y="159.8" class="st9" width="8.69" height="8.28"/>
		</g>
		<g>
			<rect x="256.66" y="156.34" class="st9" width="1.45" height="8.28"/>
		</g>
		<g>
			<polygon class="st9" points="435.38,300.68 468.81,300.68 468.81,274.12 453.83,274.12 453.83,258.84 446.84,258.84 			"/>
		</g>
		<g>
			<polygon class="st9" points="449.13,248.78 470.26,248.78 470.26,235.16 453.59,233.56 			"/>
		</g>
		<g>
			<rect x="463.17" y="254.75" class="st9" width="7.09" height="13.37"/>
		</g>
		<g>
			<path class="st9" d="M367.71,124.06l2.3,12.44c0.22,1.18,1.54,1.84,2.68,1.34l24.46-10.75c1.8-0.79,1.3-3.34-0.67-3.47
				l-26.76-1.69C368.48,121.86,367.49,122.9,367.71,124.06z"/>
		</g>
		<g>
			<polygon class="st9" points="364.42,276.69 353.74,298.8 364.16,308.48 375.01,284.75 			"/>
		</g>
		<g>
			<polygon class="st9" points="378.72,287.58 367.66,311.75 383.75,326.72 395.73,300.53 			"/>
		</g>
		<g>
			<polygon class="st9" points="399.43,303.36 387.26,329.98 403.96,345.52 410.12,311.49 			"/>
		</g>
		<g>
			<polygon class="st9" points="385.76,389.45 405.75,389.45 405.75,372.82 380.75,372.82 			"/>
		</g>
		<g>
			<rect x="414.18" y="374.46" class="st9" width="9.84" height="19.62"/>
		</g>
		<g>
			<rect x="387.91" y="230.27" class="st9" width="42.5" height="12.28"/>
		</g>
		<g>
			<rect x="382.28" y="222.28" class="st9" width="8.21" height="3.55"/>
		</g>
		<g>
			<polygon class="st9" points="426.88,254.75 405.39,254.75 401.81,254.75 401.81,273.49 420.96,273.49 			"/>
		</g>
		<g>
			<rect x="377.5" y="252.84" class="st9" width="12.13" height="3.82"/>
		</g>
		<g>
			<rect x="377.5" y="259.01" class="st9" width="12.13" height="3.82"/>
		</g>
		<g>
			<rect x="377.5" y="265.19" class="st9" width="12.13" height="3.82"/>
		</g>
		<g>
			<polygon class="st9" points="380.15,277.74 380.15,280.47 387.06,280.47 425.21,280.47 428.28,280.47 428.28,277.74 
				426.04,277.74 383.42,277.74 			"/>
		</g>
		<g>
			<path class="st9" d="M325.11,352.41c-0.4,1.23,0.69,2.44,2.03,2.25l18.26-2.54c1.28-0.18,1.97-1.52,1.34-2.59l-11.26-19.22
				c-0.79-1.35-2.9-1.14-3.37,0.34L325.11,352.41z"/>
		</g>
		<g>
			<polygon class="st9" points="456.36,194.57 470.26,194.57 470.26,178.47 457.26,178.12 			"/>
		</g>
		<g>
			<polygon class="st9" points="455.25,215.41 470.26,217 470.26,199.06 456.14,199.06 			"/>
		</g>
		<g>
			<polygon class="st9" points="470.26,339.86 470.26,337.96 469.21,339.86 			"/>
		</g>
		<g>
			<polygon class="st9" points="458.99,358.34 470.26,359.47 470.26,343.81 467.03,343.81 			"/>
		</g>
		<g>
			<polygon class="st9" points="301.95,369.79 299.95,367.92 297.95,369.87 298.43,370.32 305.49,376.93 341.31,410.47 
				345.4,410.47 309.08,376.46 			"/>
		</g>
		<g>
			<polygon class="st9" points="261.15,375.99 261.26,375.04 258.41,374.75 258.22,376.43 257.42,383.28 256.66,389.8 
				256.66,410.47 257.15,410.47 260.35,382.9 			"/>
		</g>
		<g>
			<polygon class="st9" points="344.87,293.54 342.51,295.09 344.34,297.62 388.69,359.07 391.03,362.31 393.39,360.76 
				392.56,359.61 346.58,295.91 			"/>
		</g>
		<g>
			<rect x="455.39" y="382.23" class="st9" width="14.87" height="10.22"/>
		</g>
		<g>
			<rect x="256.66" y="348.61" class="st9" width="12.53" height="15.01"/>
		</g>
		<g>
			<polygon class="st9" points="282.35,340.4 304.21,350.48 317.52,318.78 302,312.87 			"/>
		</g>
		<g>
			<polygon class="st9" points="362.74,346.7 373.11,343.79 368.7,337.22 359.47,340.45 			"/>
		</g>
		<g>
			<polygon class="st9" points="358.19,337.99 367.12,334.86 361.65,326.72 353.74,329.49 			"/>
		</g>
	</g>
</g>
<g id="Speech_Bubbles">
	<g>
		<g>
			<path class="st3" d="M423.11,156.09c0-4.3-4.52-7.03-9.13-4.87c-1.04,0.49-1.9,1.31-2.43,2.33c-1.16,2.25-0.65,4.81,0.4,6.94
				l3.59,9.1c0.52,1.31,2.38,1.3,2.88-0.01l3.52-9.14C423.16,157.64,423.11,156.09,423.11,156.09z M418.78,159.83
				c-3.1,1.8-6.24-1.53-4.54-4.82c0.23-0.44,0.57-0.8,0.98-1.04c3.1-1.8,6.24,1.53,4.54,4.82
				C419.54,159.22,419.19,159.59,418.78,159.83z"/>
		</g>
		<g>
			<g>
				<polyline class="st1" points="419.75,70.04 419.75,133.53 435.93,117.34 553.77,117.34 553.77,70.04 419.75,70.04 				"/>
			</g>
			<g>
				<circle class="st3" cx="452.26" cy="95.33" r="17.86"/>
			</g>
			<g>
				<polygon class="st12" points="444.66,84.5 441.85,105.8 462.67,105.8 459.64,84.5 				"/>
			</g>
			<g>
				<g>
					<path class="st3" d="M457.95,87.59c0.06,0-0.02,0.94-0.81,2.19c-0.4,0.61-1.01,1.28-1.87,1.77c-0.85,0.5-1.94,0.78-3.06,0.78
						c-1.12,0.01-2.21-0.23-3.08-0.71c-0.87-0.47-1.47-1.17-1.85-1.8c-0.75-1.28-0.76-2.23-0.71-2.22c0.08-0.02,0.23,0.88,1.01,2.02
						c0.4,0.56,0.97,1.17,1.77,1.58c0.8,0.42,1.79,0.62,2.84,0.62c1.05,0,2.04-0.24,2.83-0.67c0.79-0.43,1.39-1.02,1.8-1.57
						C457.66,88.45,457.87,87.57,457.95,87.59z"/>
				</g>
			</g>
			<g>
				<g>
					<path class="st3" d="M541.38,89.53c0,0.14-13.82,0.26-30.87,0.26c-17.05,0-30.87-0.12-30.87-0.26c0-0.14,13.82-0.26,30.87-0.26
						C527.56,89.27,541.38,89.39,541.38,89.53z"/>
				</g>
			</g>
			<g>
				<g>
					<path class="st3" d="M541.38,96.33c0,0.14-13.82,0.26-30.87,0.26c-17.05,0-30.87-0.12-30.87-0.26c0-0.14,13.82-0.26,30.87-0.26
						C527.56,96.07,541.38,96.18,541.38,96.33z"/>
				</g>
			</g>
			<g>
				<g>
					<path class="st3" d="M511.73,103.02c0,0.14-7.18,0.26-16.04,0.26c-8.86,0-16.04-0.12-16.04-0.26c0-0.14,7.18-0.26,16.04-0.26
						C504.55,102.76,511.73,102.87,511.73,103.02z"/>
				</g>
			</g>
			<g>
				<g>
					<path class="st3" d="M512.96,82.54c0,0.14-7.46,0.26-16.66,0.26c-9.2,0-16.66-0.12-16.66-0.26c0-0.14,7.46-0.26,16.66-0.26
						C505.5,82.28,512.96,82.4,512.96,82.54z"/>
				</g>
			</g>
		</g>
	</g>
	<g>
		<g>
			<path class="st3" d="M316.44,229.08c0-4.3-4.52-7.03-9.13-4.87c-1.04,0.49-1.9,1.31-2.43,2.33c-1.16,2.25-0.65,4.81,0.4,6.94
				l3.59,9.1c0.52,1.31,2.38,1.3,2.88-0.01l3.52-9.14C316.49,230.63,316.44,229.08,316.44,229.08z M312.11,232.83
				c-3.1,1.8-6.24-1.53-4.54-4.82c0.23-0.44,0.57-0.8,0.98-1.04c3.1-1.8,6.24,1.53,4.54,4.82
				C312.87,232.22,312.52,232.59,312.11,232.83z"/>
		</g>
		<g>
			<g>
				<polyline class="st2" points="308.69,148.5 308.69,211.98 292.5,195.8 174.66,195.8 174.66,148.5 308.69,148.5 				"/>
			</g>
			<g>
				<circle class="st3" cx="276.18" cy="173.79" r="17.86"/>
			</g>
			<g>
				<polygon class="st12" points="283.78,162.96 286.59,184.26 265.77,184.26 268.8,162.96 				"/>
			</g>
			<g>
				<g>
					<path class="st3" d="M270.49,166.05c0.08-0.03,0.29,0.86,1.12,1.97c0.42,0.55,1.01,1.14,1.8,1.57
						c0.79,0.43,1.78,0.68,2.83,0.68c1.05,0.01,2.04-0.2,2.84-0.62c0.8-0.41,1.38-1.02,1.77-1.58c0.78-1.15,0.93-2.05,1.01-2.02
						c0.06,0,0.05,0.95-0.71,2.22c-0.38,0.62-0.98,1.32-1.85,1.8c-0.86,0.49-1.95,0.73-3.07,0.71c-1.12,0-2.21-0.28-3.06-0.78
						c-0.86-0.49-1.47-1.16-1.87-1.77C270.51,166.99,270.43,166.05,270.49,166.05z"/>
				</g>
			</g>
			<g>
				<g>
					<path class="st3" d="M187.05,167.99c0-0.14,13.82-0.26,30.87-0.26c17.05,0,30.87,0.12,30.87,0.26s-13.82,0.26-30.87,0.26
						C200.87,168.25,187.05,168.13,187.05,167.99z"/>
				</g>
			</g>
			<g>
				<g>
					<path class="st3" d="M187.05,174.79c0-0.14,13.82-0.26,30.87-0.26c17.05,0,30.87,0.12,30.87,0.26s-13.82,0.26-30.87,0.26
						C200.87,175.05,187.05,174.93,187.05,174.79z"/>
				</g>
			</g>
			<g>
				<g>
					<path class="st3" d="M186.71,181.47c0-0.14,7.18-0.26,16.04-0.26c8.86,0,16.04,0.12,16.04,0.26s-7.18,0.26-16.04,0.26
						C193.89,181.73,186.71,181.62,186.71,181.47z"/>
				</g>
			</g>
			<g>
				<g>
					<path class="st3" d="M187.67,161c0-0.14,7.46-0.26,16.66-0.26c9.2,0,16.66,0.12,16.66,0.26s-7.46,0.26-16.66,0.26
						C195.13,161.26,187.67,161.15,187.67,161z"/>
				</g>
			</g>
		</g>
	</g>
</g>
<g id="Character">
	<g>
		<g>
			<g>
				<g>
					<path class="st12" d="M517.91,437.72v-8.87l16.62-0.11l0.14,12.98l-1.03,0.07c-4.58,0.28-23.33,1.12-26.4,0.21
						C503.82,440.99,517.91,437.72,517.91,437.72z"/>
				</g>
			</g>
			<g>
				<g>
					<g>
						<path class="st9" d="M506.85,441.19c0,0.16,6.22,0.28,13.88,0.28c7.67,0,13.88-0.13,13.88-0.28c0-0.16-6.21-0.28-13.88-0.28
							C513.06,440.91,506.85,441.04,506.85,441.19z"/>
					</g>
				</g>
			</g>
			<g>
				<g>
					<g>
						<path class="st9" d="M517.62,439.53c0.14-0.07,0.02-0.55-0.34-1.02c-0.36-0.46-0.79-0.7-0.89-0.59
							c-0.11,0.12,0.12,0.51,0.44,0.94C517.16,439.29,517.48,439.61,517.62,439.53z"/>
					</g>
				</g>
			</g>
			<g>
				<g>
					<g>
						<path class="st9" d="M516.56,440.12c0.14-0.06,0.07-0.59-0.26-1.14c-0.33-0.56-0.76-0.88-0.88-0.78
							c-0.12,0.1,0.08,0.56,0.39,1.07C516.12,439.77,516.42,440.18,516.56,440.12z"/>
					</g>
				</g>
			</g>
			<g>
				<g>
					<g>
						<path class="st9" d="M529.61,441.13c0.06,0.05,0.31-0.19,0.68-0.58c0.37-0.39,0.85-0.94,1.47-1.4
							c0.62-0.45,1.29-0.68,1.79-0.74c0.5-0.07,0.83,0,0.85-0.08c0.03-0.06-0.28-0.28-0.87-0.32c-0.58-0.05-1.4,0.16-2.11,0.68
							c-0.71,0.52-1.16,1.15-1.46,1.61C529.68,440.77,529.54,441.09,529.61,441.13z"/>
					</g>
				</g>
			</g>
			<g>
				<g>
					<g>
						<path class="st9" d="M517.57,437.86c-0.08,0.13,0.21,0.45,0.68,0.62c0.47,0.17,0.9,0.1,0.92-0.05
							c0.02-0.16-0.31-0.34-0.73-0.49C518.03,437.8,517.65,437.73,517.57,437.86z"/>
					</g>
				</g>
			</g>
			<g>
				<g>
					<g>
						<path class="st9" d="M517.83,437.01c-0.01,0.16,0.43,0.29,0.99,0.3c0.56,0.01,1.01-0.11,1-0.27c-0.01-0.16-0.45-0.29-0.99-0.3
							C518.29,436.73,517.85,436.85,517.83,437.01z"/>
					</g>
				</g>
			</g>
		</g>
		<g>
			<g>
				<g>
					<path class="st12" d="M500.38,434.58l-2.63-8.47l15.84-5.02l3.97,12.36l-0.96,0.37c-4.29,1.63-21.95,7.98-25.15,8.02
						C487.89,441.87,500.38,434.58,500.38,434.58z"/>
				</g>
			</g>
			<g>
				<g>
					<g>
						<path class="st9" d="M490.84,441.17c0.05,0.15,6.02-1.57,13.34-3.84c7.32-2.27,13.22-4.23,13.18-4.38
							c-0.05-0.15-6.02,1.57-13.34,3.84C496.7,439.06,490.8,441.02,490.84,441.17z"/>
					</g>
				</g>
			</g>
			<g>
				<g>
					<g>
						<path class="st9" d="M500.64,436.39c0.11-0.11-0.15-0.53-0.63-0.87c-0.48-0.34-0.96-0.44-1.03-0.3
							c-0.07,0.14,0.26,0.45,0.7,0.76C500.13,436.3,500.53,436.51,500.64,436.39z"/>
					</g>
				</g>
			</g>
			<g>
				<g>
					<g>
						<path class="st9" d="M499.8,437.26c0.12-0.1-0.11-0.58-0.59-1.02c-0.48-0.43-0.98-0.62-1.07-0.49
							c-0.09,0.13,0.25,0.51,0.69,0.91C499.27,437.07,499.68,437.36,499.8,437.26z"/>
					</g>
				</g>
			</g>
			<g>
				<g>
					<g>
						<path class="st12" d="M512.56,434.37c0.08,0.03,0.24-0.27,0.48-0.76c0.23-0.48,0.53-1.15,0.99-1.77
							c0.46-0.62,1.03-1.03,1.49-1.24c0.46-0.21,0.79-0.24,0.79-0.33c0.01-0.07-0.35-0.19-0.92-0.05c-0.57,0.13-1.29,0.57-1.82,1.28
							c-0.52,0.71-0.77,1.45-0.91,1.97C512.52,434.01,512.49,434.35,512.56,434.37z"/>
					</g>
				</g>
			</g>
			<g>
				<g>
					<g>
						<path class="st9" d="M500.1,434.81c-0.04,0.15,0.33,0.37,0.83,0.38c0.5,0.02,0.89-0.17,0.86-0.32
							c-0.02-0.16-0.4-0.23-0.84-0.25C500.51,434.62,500.14,434.66,500.1,434.81z"/>
					</g>
				</g>
			</g>
			<g>
				<g>
					<g>
						<path class="st9" d="M500.09,433.92c0.03,0.15,0.5,0.15,1.03-0.01c0.54-0.16,0.93-0.41,0.87-0.55
							c-0.06-0.15-0.52-0.14-1.03,0.01C500.45,433.52,500.06,433.76,500.09,433.92z"/>
					</g>
				</g>
			</g>
		</g>
		<g>
			<g>
				<g>
					<path class="st9" d="M472.84,356.07c5.59,22.73,21.98,78.1,21.98,78.1l16.82-4.6c-0.04,3.47-0.07,5.44-0.07,5.44l28.69,0.38
						l3.7-177.49l-33.05,2.68l0,0l-20.1,1.54C490.81,262.12,468.18,337.12,472.84,356.07z M496.16,348.99
						c0.15-4.84,16.12-66.17,16.12-66.17c0.6,8.52,0.1,78.19-0.33,119.15C504.96,380.24,496.07,351.93,496.16,348.99z"/>
				</g>
			</g>
			<g>
				<g>
					<g>
						<g>
							<g>
								<path class="st11" d="M511.42,428.27c0,0.16,6.42,0.28,14.33,0.28c7.92,0,14.33-0.13,14.33-0.28s-6.42-0.28-14.33-0.28
									C517.83,427.98,511.42,428.11,511.42,428.27z"/>
							</g>
						</g>
					</g>
					<g>
						<g>
							<g>
								<path class="st11" d="M511.66,421.89c-0.03-0.07-0.94,0.26-2.63,0.84c-1.87,0.65-4.1,1.43-6.56,2.29
									c-2.47,0.86-4.7,1.64-6.57,2.29c-1.68,0.59-2.71,0.99-2.69,1.06c0.02,0.07,1.1-0.18,2.81-0.68c1.71-0.5,4.06-1.24,6.63-2.14
									c2.57-0.9,4.87-1.78,6.52-2.45C510.83,422.43,511.69,421.96,511.66,421.89z"/>
							</g>
						</g>
					</g>
				</g>
				<g>
					<g>
						<path class="st11" d="M512.04,398.39c-0.04,0-0.06,0.49-0.08,1.39c-0.01,0.99-0.03,2.26-0.05,3.78
							c-0.05,3.29-0.11,7.66-0.18,12.48c-0.13,4.82-0.25,9.19-0.34,12.48c-0.04,1.52-0.08,2.79-0.1,3.78
							c-0.02,0.89-0.01,1.39,0.03,1.39c0.04,0,0.1-0.49,0.17-1.38c0.08-0.89,0.17-2.18,0.27-3.78c0.19-3.19,0.39-7.6,0.49-12.48
							c0.1-4.88,0.09-9.29,0.03-12.49c-0.03-1.6-0.07-2.89-0.11-3.78C512.11,398.88,512.08,398.39,512.04,398.39z"/>
					</g>
				</g>
			</g>
			<g>
				<g>
					<g>
						<g>
							<path class="st11" d="M485.81,348.46c-0.01,0.16,2.41,0.47,5.4,0.69c3,0.23,5.43,0.28,5.45,0.12
								c0.01-0.16-2.41-0.47-5.4-0.69C488.27,348.36,485.83,348.3,485.81,348.46z"/>
						</g>
					</g>
				</g>
				<g>
					<g>
						<g>
							<path class="st11" d="M487.68,351.68c0.04,0.15,1.9-0.25,4.14-0.9c2.24-0.65,4.03-1.3,3.98-1.45
								c-0.04-0.15-1.9,0.25-4.14,0.9C489.42,350.88,487.64,351.52,487.68,351.68z"/>
						</g>
					</g>
				</g>
			</g>
			<g>
				<g>
					<path class="st11" d="M510.52,260.79c-0.07,0-0.12,1.29-0.15,3.38c-0.03,2.09-0.03,4.97-0.01,8.16
						c0.02,1.59,0.04,3.1,0.06,4.49c0.02,1.39,0.2,2.68,0.68,3.66c0.46,0.98,1.12,1.6,1.61,1.93c0.5,0.34,0.82,0.42,0.83,0.39
						c0.02-0.04-0.27-0.18-0.71-0.55c-0.44-0.36-1.01-0.98-1.4-1.92c-0.41-0.93-0.54-2.15-0.54-3.52c-0.01-1.4-0.01-2.91-0.02-4.49
						c-0.03-3.19-0.08-6.07-0.14-8.16S510.59,260.79,510.52,260.79z"/>
				</g>
			</g>
		</g>
		<g>
			<g>
				<path class="st9" d="M527.96,143.33c1.59,3.73,4.63,6.81,8.34,8.43c1.06,0.46,2.35,1.02,2.49,2.17
					c0.11,0.89-0.58,1.71-1.37,2.15c-1.33,0.74-3.03,0.74-4.36-0.01c0.38,0.83,0.76,1.7,0.72,2.6c-0.05,0.91-0.69,1.86-1.59,1.92
					c-1.17,0.09-1.92-1.18-2.38-2.26c0.64,1.42,0.04,3.28-1.31,4.05c-1.35,0.78-3.26,0.36-4.16-0.91"/>
			</g>
			<g>
				<g>
					<g>
						<g>
							<path class="st15" d="M526.72,177.08l-16.67,1.23c-0.22-1.93-0.55-9.42-0.55-9.42s-6.96-0.65-7.47-7.54
								c-0.51-6.89-0.29-22.8-0.29-22.8l0,0c7.77-3.92,17.06-3.33,24.27,1.54l1.07,0.72L526.72,177.08z"/>
						</g>
						<g>
							<g>
								<path class="st9" d="M505.55,150.2c0.39-0.4,0.38-1.03-0.02-1.42c-0.4-0.39-1.03-0.38-1.42,0.02
									c-0.39,0.4-0.38,1.03,0.02,1.42C504.52,150.6,505.16,150.59,505.55,150.2z"/>
							</g>
							<g>
								<g>
									<path class="st9" d="M502.34,148.79c0.12,0.11,0.76-0.45,1.71-0.51c0.95-0.08,1.67,0.38,1.77,0.26
										c0.05-0.06-0.07-0.27-0.39-0.48c-0.31-0.21-0.83-0.4-1.42-0.35c-0.59,0.04-1.08,0.31-1.35,0.56
										C502.38,148.51,502.29,148.74,502.34,148.79z"/>
								</g>
							</g>
						</g>
						<g>
							<g>
								<path class="st9" d="M514.16,148.98c-0.45,0.32-0.56,0.94-0.24,1.4c0.32,0.45,0.94,0.56,1.4,0.24
									c0.45-0.32,0.56-0.94,0.24-1.4C515.24,148.77,514.61,148.66,514.16,148.98z"/>
							</g>
							<g>
								<g>
									<path class="st9" d="M512.46,149.03c0.12,0.11,0.76-0.45,1.71-0.51c0.95-0.08,1.67,0.38,1.77,0.26
										c0.05-0.06-0.07-0.27-0.39-0.48c-0.31-0.21-0.83-0.4-1.42-0.35c-0.59,0.04-1.08,0.31-1.35,0.56
										C512.49,148.76,512.4,148.98,512.46,149.03z"/>
								</g>
							</g>
						</g>
						<g>
							<g>
								<path class="st9" d="M509.33,157.1c0-0.07-0.59-0.15-1.56-0.22c-0.25-0.01-0.45-0.05-0.49-0.19
									c-0.06-0.15,0.03-0.43,0.13-0.73c0.2-0.64,0.41-1.29,0.63-1.98c0.87-2.81,1.46-5.13,1.33-5.17
									c-0.13-0.04-0.95,2.2-1.82,5.02c-0.2,0.69-0.4,1.34-0.59,1.99c-0.07,0.29-0.22,0.64-0.07,1.03c0.08,0.2,0.28,0.33,0.44,0.36
									c0.17,0.04,0.3,0.03,0.42,0.03C508.73,157.22,509.32,157.17,509.33,157.1z"/>
							</g>
						</g>
						<g>
							<path class="st3" d="M512.48,157.96c0.95-0.65-2.64,1.62-4.57,1.64c0,0,1.22,1.7,3.16,0.85
								C513.08,159.57,512.48,157.96,512.48,157.96z"/>
						</g>
						<g>
							<path class="st16" d="M509.48,168.78c0,0,4.38,0.09,8.83-3.11c0,0-1.82,5.09-8.74,4.9L509.48,168.78z"/>
						</g>
					</g>
				</g>
				<g>
					<g>
						<path class="st15" d="M525.75,146.93c0.15-0.06,5.12-0.7,4.65,5.16c-0.47,5.86-6.24,3.45-6.23,3.28
							C524.17,155.21,525.75,146.93,525.75,146.93z"/>
					</g>
					<g>
						<g>
							<path class="st16" d="M526.12,153.46c0.03-0.02,0.1,0.08,0.26,0.17c0.16,0.09,0.45,0.17,0.76,0.08
								c0.64-0.18,1.24-1.12,1.35-2.17c0.06-0.53-0.01-1.05-0.17-1.49c-0.14-0.44-0.4-0.77-0.71-0.85c-0.3-0.1-0.54,0.07-0.63,0.23
								c-0.09,0.16-0.06,0.28-0.1,0.29c-0.02,0.01-0.12-0.11-0.05-0.35c0.03-0.11,0.11-0.25,0.26-0.35c0.15-0.1,0.36-0.14,0.58-0.1
								c0.45,0.07,0.82,0.52,0.99,0.99c0.2,0.48,0.29,1.06,0.22,1.66c-0.13,1.18-0.83,2.24-1.69,2.41
								c-0.42,0.07-0.76-0.08-0.92-0.23C526.12,153.6,526.1,153.47,526.12,153.46z"/>
						</g>
					</g>
				</g>
				<g>
					<path class="st9" d="M520.69,133.3c1.36-1.41,2.89-1.98,2.93-1.85c0.07,0.14-1.28,0.87-2.56,2.21
						c-0.36,0.37-0.67,0.73-0.94,1.07c2.23-0.27,4.7-0.29,6.47,1.1c1.5,1.18,2.16,3.19,2.17,5.1c0.01,1.91-0.79,3.73-1.35,5.55l0,0
						c-0.34,1.07-0.69,1.43-0.69,1.43l-0.84,4.94l-0.96-0.02c-1.8-3.55-4.03-5.14-2.9-11.36c0,0,1.29-3.31-2.44-2.93
						c-3.73,0.38-8.81,4.59-16.07,3.53c-1.18-0.17-2.4-0.3-3.39-0.97c-0.98-0.67-1.69-1.83-1.55-3.02c0.14-1.18,1.3-2.23,2.47-2.01
						c0,0-0.13-3.43,5.17-3.43c5.29,0,12.79,2.14,12.79,2.14L520.69,133.3z"/>
				</g>
			</g>
			<g class="st7">
				<path class="st17" d="M500.89,135.75c-0.42-1.24,0.55-2.58,1.71-3.19c1.16-0.61,2.51-0.76,3.73-1.26
					c2.91-1.19,4.75-4.2,7.62-5.49c2.53-1.14,5.47-0.77,8.2-0.29c3.36,0.59,7.09,1.57,8.83,4.51c0.33,0.56,0.58,1.21,0.49,1.85
					c-0.09,0.64-0.6,1.26-1.25,1.29c-0.45,0.02-0.87-0.23-1.3-0.38c-0.43-0.16-0.98-0.19-1.27,0.17c-0.49,0.61,0.3,1.39,0.9,1.9
					c2.24,1.89,2.4,5.75,0.32,7.82"/>
			</g>
			<g class="st7">
				<g class="st18">
					<path class="st9" d="M529.37,142.35c0.01,0.02-0.37,0.23-1.14,0.28c-0.76,0.06-1.86-0.14-3.14-0.51
						c-2.69-0.72-6.18-1.67-10.05-2.71c-3.88-1-7.39-1.9-10.08-2.6c-1.21-0.31-2.23-0.58-3.06-0.79c-0.72-0.2-1.11-0.32-1.11-0.35
						c0.01-0.04,0.42,0.02,1.15,0.16c0.73,0.14,1.79,0.35,3.1,0.63c2.61,0.57,6.19,1.41,10.13,2.45c3.94,1.04,7.47,2.07,10.02,2.86
						c1.27,0.41,2.3,0.66,3.04,0.66C528.96,142.44,529.36,142.3,529.37,142.35z"/>
				</g>
			</g>
			<g class="st7">
				<g class="st18">
					<path class="st9" d="M523.03,125.83c-0.01,0.08-1.23-0.6-3.33-0.47c-1.04,0.07-2.28,0.35-3.49,1.01
						c-1.22,0.66-2.33,1.73-3.14,3.12c-0.43,0.67-0.91,1.34-1.56,1.78c-0.64,0.45-1.35,0.7-2.01,0.91c-1.34,0.39-2.57,0.7-3.4,1.34
						c-0.84,0.62-1.2,1.46-1.25,2.02c-0.06,0.58,0.1,0.89,0.07,0.9c0,0-0.19-0.3-0.15-0.9c0.03-0.59,0.38-1.48,1.24-2.14
						c0.85-0.67,2.11-1.01,3.43-1.4c0.66-0.21,1.34-0.47,1.95-0.89c0.61-0.42,1.07-1.06,1.5-1.73c0.8-1.4,1.97-2.52,3.22-3.18
						c1.25-0.67,2.51-0.94,3.57-0.99c1.06-0.06,1.92,0.11,2.49,0.29C522.75,125.67,523.03,125.83,523.03,125.83z"/>
				</g>
			</g>
			<g class="st7">
				<g class="st18">
					<path class="st9" d="M522.27,125.62c0.03,0.04-1.07,0.04-2.17,1.19c-0.55,0.55-1.03,1.36-1.45,2.31
						c-0.43,0.94-0.82,2.04-1.51,3.05c-0.34,0.5-0.76,0.95-1.23,1.29c-0.48,0.34-0.99,0.56-1.44,0.8c-0.94,0.45-1.57,1.17-1.88,1.88
						c-0.64,1.45-0.23,2.48-0.3,2.46c0,0-0.1-0.23-0.14-0.67c-0.04-0.44-0.01-1.11,0.31-1.85c0.3-0.74,0.97-1.52,1.93-1.99
						c0.46-0.25,0.96-0.47,1.41-0.8c0.45-0.32,0.85-0.75,1.18-1.24c0.67-0.98,1.06-2.07,1.51-3.01c0.43-0.95,0.94-1.78,1.52-2.34
						c0.57-0.57,1.17-0.87,1.6-0.99C522.01,125.6,522.27,125.62,522.27,125.62z"/>
				</g>
			</g>
			<g class="st7">
				<g class="st18">
					<path class="st9" d="M522.97,125.34c0,0,0.15,0.18,0.35,0.55c0.2,0.37,0.42,0.95,0.55,1.7c0.12,0.75,0.11,1.67-0.2,2.64
						c-0.29,0.97-0.96,1.87-1.43,2.89c-0.49,1.02-0.47,2.13-0.42,3.1c0.06,0.98,0.11,1.89-0.04,2.64c-0.13,0.75-0.43,1.31-0.7,1.64
						c-0.27,0.33-0.49,0.44-0.49,0.44c-0.05-0.01,0.83-0.59,1.04-2.1c0.13-0.73,0.07-1.61-0.01-2.6c-0.07-0.97-0.1-2.14,0.42-3.2
						c0.49-1.05,1.15-1.93,1.44-2.86c0.3-0.93,0.33-1.83,0.23-2.56C523.52,126.13,522.92,125.36,522.97,125.34z"/>
				</g>
			</g>
			<g class="st7">
				<g class="st18">
					<path class="st9" d="M523.97,126.24c0,0,0.26,0.01,0.69,0.17c0.42,0.16,1.03,0.5,1.55,1.15c0.52,0.64,0.88,1.64,0.75,2.74
						c-0.07,1.13-1.04,2.07-1.12,3.27c-0.03,0.59,0.24,1.14,0.54,1.63c0.3,0.49,0.65,0.95,0.88,1.45c0.47,1,0.51,2.03,0.37,2.83
						c-0.14,0.81-0.45,1.42-0.7,1.8c-0.26,0.38-0.45,0.54-0.45,0.54c-0.06-0.02,0.76-0.76,1-2.37c0.12-0.78,0.06-1.78-0.4-2.72
						c-0.22-0.47-0.57-0.92-0.88-1.42c-0.31-0.49-0.61-1.08-0.58-1.75c0.03-0.66,0.34-1.22,0.6-1.74c0.27-0.52,0.49-1.02,0.55-1.55
						c0.14-1.04-0.2-2-0.68-2.63c-0.48-0.64-1.06-0.98-1.46-1.17C524.22,126.3,523.97,126.26,523.97,126.24z"/>
				</g>
			</g>
			<g class="st7">
				<g class="st18">
					<path class="st9" d="M518.64,130.84c0.01-0.14,2.23-0.05,4.87,0.65c1.31,0.37,2.49,0.72,3.29,1.22
						c0.82,0.51,0.97,1.16,0.9,1.16c-0.07,0.04-0.31-0.47-1.08-0.84c-0.75-0.37-1.95-0.67-3.24-1.03
						C520.79,131.31,518.62,130.99,518.64,130.84z"/>
				</g>
			</g>
		</g>
		<g>
			<g>
				<path class="st15" d="M437.21,192.73l-0.7-3.07c0,0-0.72-1.79-1.28-5.14c-0.14-0.87-0.13-1.76,0.02-2.62
					c0.19-1.05,0.49-2.44,0.9-3.15c0.5-0.88-0.32-1.9-1.16-1.53c-0.84,0.37-2.27,2.75-2.55,5.98s-3.15-0.99-4.22-2.51
					c-1.07-1.52-4.61-6.07-5.34-6.11c-1.07-0.06-1.33,1.07-0.22,2.57c1.12,1.51,4.11,6.21,3.28,6.74c0,0-1.33-0.09-1.97,0.25
					c-0.21,0.11-0.35,0.27-0.33,0.5c0.07,0.91-0.05,1.47-0.05,1.47s-1.3-0.18-1.52,0.39c-0.22,0.57-0.11,1.79-0.11,1.79
					s-1.01-0.26-1.44,0.15c-0.95,0.87,0.45,2.14,0.45,2.14c3.31,3.68,10.04,8.99,10.04,8.99l6.22-7.03"/>
			</g>
			<g>
				<g>
					<path class="st16" d="M424.07,186.29c-0.05,0.04,0.41,0.66,1.27,1.54c0.43,0.44,0.96,0.95,1.59,1.48
						c0.32,0.26,0.62,0.55,1.04,0.8c0.41,0.25,1.05,0.38,1.56,0.03c0.26-0.17,0.42-0.5,0.42-0.8c0-0.29-0.1-0.56-0.24-0.77
						c-0.29-0.42-0.61-0.68-0.87-0.98c-0.54-0.59-1.01-1.15-1.39-1.63c-0.76-0.95-1.19-1.58-1.25-1.54
						c-0.06,0.03,0.27,0.73,0.96,1.76c0.35,0.51,0.79,1.1,1.33,1.72c0.26,0.31,0.59,0.62,0.8,0.94c0.2,0.31,0.22,0.71-0.05,0.88
						c-0.29,0.19-0.69,0.15-1.02-0.05c-0.34-0.19-0.67-0.48-0.99-0.73c-0.63-0.5-1.18-0.98-1.64-1.38
						C424.68,186.77,424.13,186.24,424.07,186.29z"/>
				</g>
			</g>
			<g>
				<g>
					<path class="st16" d="M422.52,188.44c-0.04,0.05,0.39,0.56,1.2,1.31c0.41,0.37,0.92,0.79,1.54,1.19
						c0.32,0.2,0.65,0.38,1.04,0.55c0.2,0.08,0.41,0.15,0.66,0.16c0.24,0.01,0.55-0.06,0.76-0.27c0.42-0.45,0.29-1.07,0.06-1.44
						c-0.24-0.39-0.53-0.63-0.78-0.89c-0.47-0.47-0.91-0.92-1.35-1.36c-0.78-0.76-1.29-1.21-1.34-1.17
						c-0.05,0.05,0.36,0.58,1.07,1.41c0.41,0.46,0.83,0.94,1.27,1.44c0.24,0.27,0.52,0.54,0.69,0.83c0.18,0.27,0.19,0.64,0.01,0.82
						c-0.17,0.18-0.54,0.14-0.87,0.01c-0.34-0.14-0.67-0.31-0.98-0.48c-0.61-0.35-1.12-0.73-1.55-1.06
						C423.11,188.81,422.58,188.38,422.52,188.44z"/>
				</g>
			</g>
			<g>
				<g>
					<path class="st16" d="M422.34,191.27c-0.04,0.03,0.06,0.43,0.54,0.95c0.25,0.24,0.64,0.51,1.17,0.49
						c0.27-0.02,0.54-0.12,0.76-0.32c0.22-0.2,0.36-0.55,0.31-0.86c-0.09-0.63-0.46-0.98-0.7-1.33c-0.26-0.34-0.52-0.64-0.75-0.87
						c-0.46-0.47-0.79-0.71-0.83-0.66c-0.05,0.05,0.18,0.38,0.56,0.89c0.23,0.33,0.44,0.63,0.64,0.92c0.23,0.35,0.53,0.74,0.57,1.11
						c0.05,0.35-0.27,0.62-0.6,0.66c-0.33,0.04-0.67-0.12-0.9-0.29C422.64,191.57,422.41,191.22,422.34,191.27z"/>
				</g>
			</g>
		</g>
		<g>
			<g>
				<g>
					<g>
						<path class="st12" d="M543.07,258.79l-53.78,3.27l1.87-40.07l1.04-9.78c-4.65,6.16-13.02,14.85-23.03,14.5
							c-17.12-0.6-42.22-29.49-42.22-29.49l11.33-7.87c0,0,27.22,18.3,30.83,18.53c4.12,0.26,17.08-17.52,17.08-17.52l0,0
							c8.31-12.39,19.05-14.25,22.96-14.5l0-1.55l19.21-1.27c0,0-0.06,1.65-0.04,3.09l0,0c10.14,0.35,19.7,4.92,26.19,12.72
							c0.94,1.13,1.91,2.35,2.91,3.69l-14.5,12.22l-2.63,27.75L543.07,258.79z"/>
					</g>
					<g class="st19">
						<path d="M543.07,258.79l-53.78,3.27l1.87-40.07l1.04-9.78c-4.65,6.16-13.02,14.85-23.03,14.5
							c-17.12-0.6-42.22-29.49-42.22-29.49l11.33-7.87c0,0,27.22,18.3,30.83,18.53c4.12,0.26,17.08-17.52,17.08-17.52l0,0
							c8.31-12.39,19.05-14.25,22.96-14.5l0-1.55l19.21-1.27c0,0-0.06,1.65-0.04,3.09l0,0c10.14,0.35,19.7,4.92,26.19,12.72
							c0.94,1.13,1.91,2.35,2.91,3.69l-14.5,12.22l-2.63,27.75L543.07,258.79z"/>
					</g>
				</g>
				<g>
					<g>
						<g>
							<path class="st12" d="M468.74,214.02c-0.04,0.01-0.04,0.15-0.01,0.39l0.05,0.37l0.17-0.37c0.24-0.52,0.59-1.69,0.7-3.08
								c0.17-1.97-0.23-3.54-0.36-3.52c-0.15,0.02,0.01,1.58-0.15,3.48c-0.1,1.35-0.34,2.5-0.41,3.06l0.22,0
								C468.85,214.12,468.78,214.01,468.74,214.02z"/>
						</g>
					</g>
					<g>
						<g>
							<path class="st12" d="M466.54,213.85c0.12,0.07,0.95-1.08,1.63-2.69c0.68-1.61,0.93-3.01,0.8-3.05
								c-0.14-0.04-0.6,1.28-1.27,2.85C467.04,212.53,466.41,213.77,466.54,213.85z"/>
						</g>
					</g>
				</g>
			</g>
			<g>
				<g>
					<g>
						<g>
							<path class="st12" d="M552.65,187.15l20.81,23.45c6.12,7.41,4.92,17.26,0.06,25.56c-7.4,12.61-21.13,27.15-21.01,27.04
								c0.19-0.19-8.69-10.86-8.69-10.86s16.33-24.83,14.26-29.55c-2.07-4.71-17.32-20.09-17.32-20.09L552.65,187.15z"/>
						</g>
						<g class="st19">
							<path d="M552.65,187.15l20.81,23.45c6.12,7.41,4.92,17.26,0.06,25.56c-7.4,12.61-21.13,27.15-21.01,27.04
								c0.19-0.19-8.69-10.86-8.69-10.86s16.33-24.83,14.26-29.55c-2.07-4.71-17.32-20.09-17.32-20.09L552.65,187.15z"/>
						</g>
					</g>
					<g>
						<g>
							<path class="st12" d="M545.99,248.64c-0.05,0.05,0.45,0.69,1.3,1.68c0.85,0.99,2.06,2.34,3.44,3.78
								c1.38,1.44,2.69,2.69,3.67,3.57c0.98,0.87,1.62,1.37,1.67,1.32c0.05-0.05-0.51-0.64-1.42-1.58
								c-1.05-1.08-2.24-2.31-3.55-3.66C548.35,250.87,546.1,248.54,545.99,248.64z"/>
						</g>
					</g>
					<g>
						<g>
							<path class="st12" d="M552.51,263.19c0.01,0.01,0.14-0.1,0.36-0.33c0.26-0.27,0.57-0.61,0.95-1.01
								c0.86-0.95,2.02-2.23,3.42-3.78c2.86-3.22,6.88-7.61,10.81-12.9c1.96-2.65,3.67-5.29,5.02-7.81
								c1.36-2.51,2.38-4.89,3.08-6.93c0.71-2.04,1.11-3.75,1.34-4.93c0.12-0.59,0.18-1.06,0.22-1.37c0.04-0.32,0.05-0.48,0.03-0.48
								c-0.05-0.01-0.16,0.65-0.45,1.81c-0.29,1.16-0.73,2.85-1.48,4.85c-0.74,2.01-1.79,4.34-3.16,6.82
								c-1.37,2.48-3.08,5.1-5.02,7.73c-3.9,5.26-7.88,9.69-10.67,12.97c-1.35,1.6-2.47,2.91-3.29,3.89
								c-0.35,0.43-0.64,0.78-0.88,1.07C552.6,263.05,552.5,263.18,552.51,263.19z"/>
						</g>
					</g>
				</g>
			</g>
			<g>
				<g>
					<path class="st12" d="M493.8,186.22c-0.13-0.06,0.24-1.24,0.83-2.64c0.59-1.4,1.18-2.49,1.31-2.43
						c0.13,0.06-0.24,1.24-0.84,2.64C494.52,185.19,493.93,186.28,493.8,186.22z"/>
				</g>
			</g>
			<g>
				<g>
					<path class="st12" d="M497.6,186.28c-0.14-0.05,0.17-1.28,0.69-2.76c0.52-1.48,1.05-2.64,1.18-2.59
						c0.14,0.05-0.17,1.28-0.69,2.76C498.27,185.17,497.74,186.33,497.6,186.28z"/>
				</g>
			</g>
			<g>
				<g>
					<path class="st12" d="M501.27,186.34c-0.14-0.05,0.17-1.28,0.69-2.76c0.52-1.48,1.05-2.64,1.18-2.59
						c0.14,0.05-0.17,1.28-0.69,2.76C501.94,185.23,501.41,186.39,501.27,186.34z"/>
				</g>
			</g>
			<g>
				<g>
					<path class="st12" d="M504.94,186.4c-0.14-0.05,0.17-1.28,0.69-2.76c0.52-1.48,1.05-2.64,1.18-2.59
						c0.14,0.05-0.17,1.28-0.69,2.76C505.6,185.29,505.07,186.45,504.94,186.4z"/>
				</g>
			</g>
			<g>
				<g>
					<path class="st12" d="M508.6,186.46c-0.14-0.05,0.17-1.28,0.69-2.76c0.52-1.48,1.05-2.64,1.18-2.59
						c0.14,0.05-0.17,1.28-0.69,2.76C509.27,185.34,508.74,186.5,508.6,186.46z"/>
				</g>
			</g>
			<g>
				<g>
					<path class="st12" d="M512.27,186.51c-0.14-0.05,0.17-1.28,0.69-2.76c0.52-1.48,1.05-2.64,1.18-2.59
						c0.14,0.05-0.17,1.28-0.69,2.76C512.93,185.4,512.4,186.56,512.27,186.51z"/>
				</g>
			</g>
			<g>
				<g>
					<path class="st12" d="M515.94,186.57c-0.14-0.05,0.17-1.28,0.69-2.76c0.52-1.48,1.05-2.64,1.18-2.59
						c0.14,0.05-0.17,1.28-0.69,2.76C516.6,185.46,516.07,186.62,515.94,186.57z"/>
				</g>
			</g>
			<g>
				<g>
					<path class="st12" d="M519.6,186.63c-0.14-0.05,0.17-1.28,0.69-2.76c0.52-1.48,1.05-2.64,1.18-2.59
						c0.14,0.05-0.17,1.28-0.69,2.76C520.27,185.52,519.74,186.68,519.6,186.63z"/>
				</g>
			</g>
			<g>
				<g>
					<path class="st12" d="M523.27,186.69c-0.14-0.05,0.17-1.28,0.69-2.76c0.52-1.48,1.05-2.64,1.18-2.59
						c0.14,0.05-0.17,1.28-0.69,2.76C523.93,185.57,523.4,186.73,523.27,186.69z"/>
				</g>
			</g>
			<g>
				<g>
					<path class="st12" d="M526.93,186.74c-0.14-0.05,0.17-1.28,0.69-2.76c0.52-1.48,1.05-2.64,1.18-2.59
						c0.14,0.05-0.17,1.28-0.69,2.76C527.6,185.63,527.07,186.79,526.93,186.74z"/>
				</g>
			</g>
			<g>
				<g>
					<path class="st12" d="M530.6,186.8c-0.14-0.05,0.17-1.28,0.69-2.76c0.52-1.48,1.05-2.64,1.18-2.59
						c0.14,0.05-0.17,1.28-0.69,2.76C531.27,185.69,530.74,186.85,530.6,186.8z"/>
				</g>
			</g>
			<g>
				<g>
					<path class="st12" d="M534.27,186.86c-0.14-0.05,0.17-1.28,0.69-2.76c0.52-1.48,1.05-2.64,1.18-2.59
						c0.14,0.05-0.17,1.28-0.69,2.76C534.93,185.75,534.4,186.91,534.27,186.86z"/>
				</g>
			</g>
			<g>
				<g>
					<path class="st12" d="M538.05,186.92c-0.14-0.05,0.17-1.28,0.69-2.76c0.52-1.48,1.05-2.64,1.18-2.59
						c0.14,0.05-0.17,1.28-0.69,2.76C538.72,185.81,538.19,186.97,538.05,186.92z"/>
				</g>
			</g>
			<g>
				<g>
					<path class="st12" d="M541.84,186.98c-0.14-0.05,0.17-1.28,0.69-2.76c0.52-1.48,1.05-2.64,1.18-2.59
						c0.14,0.05-0.17,1.28-0.69,2.76C542.51,185.87,541.98,187.02,541.84,186.98z"/>
				</g>
			</g>
			<g>
				<g>
					<path class="st12" d="M545.63,187.04c-0.14-0.05,0.1-1.09,0.54-2.32c0.43-1.23,0.89-2.19,1.03-2.15
						c0.14,0.05-0.1,1.09-0.54,2.32C546.23,186.12,545.76,187.08,545.63,187.04z"/>
				</g>
			</g>
			<g>
				<g>
					<path class="st12" d="M496.5,192.67c-0.12,0.08-0.93-0.94-1.82-2.27c-0.88-1.34-1.5-2.48-1.38-2.56
						c0.12-0.08,0.93,0.94,1.82,2.28C496,191.44,496.62,192.59,496.5,192.67z"/>
				</g>
			</g>
			<g>
				<g>
					<path class="st12" d="M493.3,192.82c-0.12,0.08-0.93-0.94-1.82-2.27c-0.88-1.34-1.5-2.48-1.38-2.56
						c0.12-0.08,0.93,0.94,1.82,2.28C492.8,191.6,493.42,192.75,493.3,192.82z"/>
				</g>
			</g>
			<g>
				<g>
					<path class="st12" d="M500.5,192.73c-0.12,0.08-0.93-0.94-1.82-2.27c-0.88-1.34-1.5-2.48-1.38-2.56
						c0.12-0.08,0.93,0.94,1.82,2.28C500,191.51,500.62,192.65,500.5,192.73z"/>
				</g>
			</g>
			<g>
				<g>
					<path class="st12" d="M504.49,192.8c-0.12,0.08-0.93-0.94-1.82-2.27c-0.88-1.34-1.5-2.48-1.38-2.56
						c0.12-0.08,0.93,0.94,1.82,2.27C503.99,191.57,504.61,192.72,504.49,192.8z"/>
				</g>
			</g>
			<g>
				<g>
					<path class="st12" d="M508.49,192.86c-0.12,0.08-0.93-0.94-1.82-2.27c-0.88-1.34-1.5-2.48-1.38-2.56
						c0.12-0.08,0.93,0.94,1.82,2.28C507.99,191.63,508.61,192.78,508.49,192.86z"/>
				</g>
			</g>
			<g>
				<g>
					<path class="st12" d="M512.48,192.92c-0.12,0.08-0.93-0.94-1.82-2.27c-0.88-1.34-1.5-2.48-1.38-2.56
						c0.12-0.08,0.93,0.94,1.82,2.27C511.99,191.69,512.6,192.84,512.48,192.92z"/>
				</g>
			</g>
			<g>
				<g>
					<path class="st12" d="M516.48,192.98c-0.12,0.08-0.93-0.94-1.82-2.27c-0.88-1.34-1.5-2.48-1.38-2.56
						c0.12-0.08,0.93,0.94,1.82,2.28C515.98,191.76,516.6,192.9,516.48,192.98z"/>
				</g>
			</g>
			<g>
				<g>
					<path class="st12" d="M520.48,193.05c-0.12,0.08-0.93-0.94-1.82-2.27c-0.88-1.34-1.5-2.48-1.38-2.56
						c0.12-0.08,0.93,0.94,1.82,2.28C519.98,191.82,520.6,192.97,520.48,193.05z"/>
				</g>
			</g>
			<g>
				<g>
					<path class="st12" d="M524.47,193.11c-0.12,0.08-0.93-0.94-1.82-2.27c-0.88-1.34-1.5-2.48-1.38-2.56
						c0.12-0.08,0.93,0.94,1.82,2.28C523.98,191.88,524.59,193.03,524.47,193.11z"/>
				</g>
			</g>
			<g>
				<g>
					<path class="st12" d="M528.47,193.17c-0.12,0.08-0.93-0.94-1.82-2.27c-0.88-1.34-1.5-2.48-1.38-2.56
						c0.12-0.08,0.93,0.94,1.82,2.28C527.97,191.95,528.59,193.09,528.47,193.17z"/>
				</g>
			</g>
			<g>
				<g>
					<path class="st12" d="M532.47,193.24c-0.12,0.08-0.93-0.94-1.82-2.27c-0.88-1.34-1.5-2.48-1.38-2.56
						c0.12-0.08,0.93,0.94,1.82,2.28C531.97,192.01,532.59,193.16,532.47,193.24z"/>
				</g>
			</g>
			<g>
				<g>
					<path class="st12" d="M536.46,193.3c-0.12,0.08-0.93-0.94-1.82-2.27c-0.88-1.34-1.5-2.48-1.38-2.56
						c0.12-0.08,0.93,0.94,1.82,2.27C535.96,192.07,536.58,193.22,536.46,193.3z"/>
				</g>
			</g>
			<g>
				<g>
					<path class="st12" d="M540.46,193.36c-0.12,0.08-0.93-0.94-1.82-2.27c-0.88-1.34-1.5-2.48-1.38-2.56
						c0.12-0.08,0.93,0.94,1.82,2.27C539.96,192.13,540.58,193.28,540.46,193.36z"/>
				</g>
			</g>
			<g>
				<g>
					<path class="st12" d="M544.46,193.42c-0.12,0.08-0.93-0.94-1.82-2.27c-0.88-1.34-1.5-2.48-1.38-2.56
						c0.12-0.08,0.93,0.94,1.82,2.28C543.96,192.2,544.58,193.34,544.46,193.42z"/>
				</g>
			</g>
			<g>
				<g>
					<path class="st12" d="M548.45,193.49c-0.12,0.08-0.93-0.94-1.82-2.27c-0.88-1.34-1.5-2.48-1.38-2.56
						c0.12-0.08,0.93,0.94,1.82,2.28C547.95,192.26,548.57,193.41,548.45,193.49z"/>
				</g>
			</g>
			<g>
				<g>
					<path class="st12" d="M552.45,193.55c-0.12,0.08-0.93-0.94-1.82-2.27c-0.88-1.34-1.5-2.48-1.38-2.56
						c0.12-0.08,0.93,0.94,1.82,2.28C551.95,192.32,552.57,193.47,552.45,193.55z"/>
				</g>
			</g>
			<g>
				<g>
					<path class="st12" d="M488.67,196.32c-0.03-0.01-0.03-0.18,0.12-0.44c0.15-0.26,0.48-0.59,1.01-0.74
						c0.5-0.17,1.31-0.07,1.79,0.56c0.46,0.58,0.61,1.55,0.06,2.3c-0.58,0.72-1.55,0.83-2.23,0.55c-0.73-0.28-1.06-1.02-1.06-1.54
						c-0.02-0.55,0.18-0.97,0.37-1.19c0.19-0.23,0.35-0.29,0.37-0.27c0.07,0.05-0.48,0.5-0.37,1.43c0.05,0.44,0.33,0.95,0.87,1.13
						c0.52,0.19,1.26,0.07,1.64-0.42c0.38-0.5,0.3-1.25-0.03-1.69c-0.32-0.47-0.89-0.58-1.32-0.49
						C488.96,195.68,488.73,196.37,488.67,196.32z"/>
				</g>
			</g>
			<g>
				<g>
					<path class="st12" d="M482.32,195.45c0.02-0.06,0.39,0.01,0.72,0.47c0.32,0.43,0.54,1.32-0.02,2.08
						c-0.59,0.73-1.51,0.76-2,0.57c-0.53-0.19-0.7-0.53-0.65-0.56c0.06-0.06,0.3,0.14,0.74,0.2c0.42,0.07,1.11-0.03,1.5-0.53
						c0.38-0.5,0.3-1.19,0.11-1.58C482.54,195.69,482.28,195.52,482.32,195.45z"/>
				</g>
			</g>
			<g>
				<g>
					<path class="st12" d="M498.11,196.46c-0.03-0.01-0.03-0.18,0.12-0.44c0.15-0.26,0.48-0.59,1.01-0.74
						c0.5-0.17,1.31-0.07,1.79,0.56c0.46,0.58,0.61,1.55,0.06,2.3c-0.58,0.72-1.55,0.83-2.23,0.55c-0.73-0.28-1.06-1.02-1.06-1.54
						c-0.02-0.55,0.18-0.97,0.37-1.19c0.19-0.23,0.35-0.29,0.37-0.27c0.07,0.05-0.48,0.5-0.37,1.43c0.05,0.44,0.33,0.95,0.87,1.13
						c0.52,0.19,1.26,0.07,1.64-0.42c0.38-0.5,0.3-1.25-0.03-1.69c-0.32-0.47-0.89-0.58-1.32-0.49
						C498.4,195.83,498.17,196.52,498.11,196.46z"/>
				</g>
			</g>
			<g>
				<g>
					<path class="st12" d="M507.55,196.61c-0.03-0.01-0.03-0.18,0.12-0.44c0.15-0.26,0.48-0.59,1.01-0.74
						c0.5-0.17,1.31-0.07,1.79,0.56c0.46,0.58,0.61,1.55,0.06,2.3c-0.58,0.72-1.55,0.83-2.23,0.55c-0.73-0.28-1.06-1.02-1.06-1.54
						c-0.02-0.55,0.18-0.97,0.37-1.19c0.19-0.23,0.35-0.29,0.37-0.27c0.07,0.05-0.48,0.5-0.37,1.43c0.05,0.44,0.33,0.95,0.87,1.13
						c0.52,0.19,1.26,0.07,1.64-0.42c0.38-0.5,0.3-1.25-0.03-1.69c-0.32-0.47-0.89-0.58-1.32-0.49
						C507.84,195.98,507.62,196.66,507.55,196.61z"/>
				</g>
			</g>
			<g>
				<g>
					<path class="st12" d="M516.99,196.76c-0.03-0.01-0.03-0.18,0.12-0.44c0.15-0.26,0.48-0.59,1.01-0.74
						c0.5-0.17,1.31-0.07,1.79,0.56c0.46,0.58,0.61,1.55,0.06,2.3c-0.58,0.72-1.55,0.83-2.23,0.55c-0.73-0.28-1.06-1.02-1.06-1.54
						c-0.02-0.55,0.18-0.97,0.37-1.19c0.19-0.23,0.35-0.29,0.37-0.27c0.07,0.05-0.48,0.5-0.37,1.43c0.05,0.44,0.33,0.95,0.87,1.13
						c0.52,0.19,1.26,0.07,1.64-0.42c0.38-0.5,0.3-1.25-0.03-1.69c-0.32-0.47-0.89-0.58-1.32-0.49
						C517.29,196.13,517.06,196.81,516.99,196.76z"/>
				</g>
			</g>
			<g>
				<g>
					<path class="st12" d="M526.43,196.91c-0.03-0.01-0.03-0.18,0.12-0.44c0.15-0.26,0.48-0.59,1.01-0.74
						c0.5-0.17,1.31-0.07,1.79,0.56c0.46,0.58,0.61,1.55,0.06,2.3c-0.58,0.72-1.55,0.83-2.23,0.55c-0.73-0.28-1.06-1.02-1.06-1.54
						c-0.02-0.55,0.18-0.97,0.37-1.19c0.19-0.23,0.35-0.29,0.37-0.27c0.07,0.05-0.48,0.5-0.37,1.43c0.05,0.44,0.33,0.95,0.87,1.13
						c0.52,0.19,1.26,0.07,1.64-0.42c0.38-0.5,0.3-1.25-0.03-1.69c-0.32-0.47-0.89-0.58-1.32-0.49
						C526.73,196.27,526.5,196.96,526.43,196.91z"/>
				</g>
			</g>
			<g>
				<g>
					<path class="st12" d="M535.88,197.06c-0.03-0.01-0.03-0.18,0.12-0.44c0.15-0.26,0.48-0.59,1.01-0.74
						c0.5-0.17,1.31-0.07,1.79,0.56c0.46,0.58,0.61,1.55,0.06,2.3c-0.58,0.72-1.55,0.83-2.23,0.55c-0.73-0.28-1.06-1.02-1.06-1.54
						c-0.02-0.55,0.18-0.97,0.37-1.19c0.19-0.23,0.35-0.29,0.37-0.27c0.07,0.05-0.48,0.5-0.37,1.43c0.05,0.44,0.33,0.95,0.87,1.13
						c0.52,0.19,1.26,0.07,1.64-0.42c0.38-0.5,0.3-1.25-0.03-1.69c-0.32-0.47-0.89-0.58-1.32-0.49
						C536.17,196.42,535.94,197.11,535.88,197.06z"/>
				</g>
			</g>
			<g>
				<g>
					<path class="st12" d="M545.32,197.2c-0.03-0.01-0.03-0.18,0.12-0.44c0.15-0.26,0.48-0.59,1.01-0.74
						c0.5-0.17,1.31-0.07,1.79,0.56c0.46,0.58,0.61,1.55,0.06,2.3c-0.58,0.72-1.55,0.83-2.23,0.55c-0.73-0.28-1.06-1.02-1.06-1.54
						c-0.02-0.55,0.18-0.97,0.37-1.19c0.19-0.23,0.35-0.29,0.37-0.27c0.07,0.05-0.48,0.5-0.37,1.43c0.05,0.44,0.33,0.95,0.87,1.13
						c0.52,0.19,1.26,0.07,1.64-0.42c0.38-0.5,0.3-1.25-0.03-1.69c-0.32-0.47-0.89-0.58-1.32-0.49
						C545.61,196.57,545.38,197.26,545.32,197.2z"/>
				</g>
			</g>
			<g>
				<g>
					<path class="st12" d="M554.76,197.35c-0.03-0.01-0.03-0.18,0.12-0.44c0.15-0.26,0.48-0.59,1.01-0.74
						c0.5-0.17,1.31-0.07,1.79,0.56c0.46,0.58,0.61,1.55,0.06,2.3c-0.58,0.72-1.55,0.83-2.23,0.55c-0.73-0.28-1.06-1.02-1.06-1.54
						c-0.02-0.55,0.18-0.97,0.37-1.19c0.19-0.23,0.35-0.29,0.37-0.27c0.07,0.05-0.48,0.5-0.37,1.43c0.05,0.44,0.33,0.95,0.87,1.13
						c0.52,0.19,1.26,0.07,1.64-0.42c0.38-0.5,0.3-1.25-0.03-1.69c-0.32-0.47-0.89-0.58-1.32-0.49
						C555.05,196.72,554.83,197.41,554.76,197.35z"/>
				</g>
			</g>
			<g>
				<g>
					<path class="st12" d="M507.86,179.34c0,0.14-1.61,0.23-3.59,0.2c-1.98-0.03-3.58-0.18-3.58-0.32c0-0.14,1.61-0.23,3.59-0.2
						C506.26,179.05,507.87,179.19,507.86,179.34z"/>
				</g>
			</g>
			<g>
				<g>
					<path class="st12" d="M511.33,179.25c0.01,0.14-0.12,0.27-0.3,0.29c-0.18,0.02-0.33-0.08-0.35-0.23
						c-0.01-0.14,0.12-0.27,0.3-0.29C511.16,179,511.32,179.1,511.33,179.25z"/>
				</g>
			</g>
			<g>
				<g>
					<path class="st12" d="M522.13,179.14c0,0.15-1.84,0.2-4.11,0.24c-2.27,0.04-4.11,0.05-4.12-0.09
						c-0.01-0.14,1.83-0.39,4.11-0.43C520.29,178.82,522.14,179,522.13,179.14z"/>
				</g>
			</g>
			<g>
				<g>
					<path class="st12" d="M525.28,178.98c0.01,0.14-0.16,0.27-0.38,0.29s-0.41-0.09-0.42-0.23s0.16-0.27,0.38-0.29
						C525.08,178.74,525.27,178.84,525.28,178.98z"/>
				</g>
			</g>
			<g>
				<g>
					<path class="st12" d="M535.59,179.2c0,0.14-1.51,0.28-3.38,0.3c-1.87,0.02-3.39-0.07-3.39-0.22c0-0.14,1.51-0.28,3.38-0.3
						C534.07,178.96,535.59,179.06,535.59,179.2z"/>
				</g>
			</g>
			<g>
				<g>
					<path class="st12" d="M540.11,179.13c0.01,0.14-0.22,0.27-0.51,0.29c-0.29,0.02-0.53-0.09-0.54-0.23
						c-0.01-0.14,0.22-0.27,0.51-0.29C539.86,178.89,540.1,178.99,540.11,179.13z"/>
				</g>
			</g>
			<g>
				<g>
					<path class="st12" d="M494.4,200.85c0,0.14-3.43,0.32-7.67,0.39c-4.24,0.07-7.67,0.02-7.68-0.13c0-0.14,3.43-0.32,7.67-0.39
						C490.96,200.65,494.4,200.71,494.4,200.85z"/>
				</g>
			</g>
			<g>
				<g>
					<path class="st12" d="M497.6,200.72c0.01,0.14-0.3,0.28-0.69,0.31c-0.39,0.03-0.71-0.07-0.72-0.21
						c-0.01-0.14,0.3-0.28,0.69-0.31C497.27,200.48,497.59,200.57,497.6,200.72z"/>
				</g>
			</g>
			<g>
				<g>
					<path class="st12" d="M517.53,201.08c0,0.14-3.35,0.26-7.48,0.26c-4.13,0-7.48-0.12-7.48-0.26c0-0.14,3.35-0.26,7.48-0.26
						C514.18,200.82,517.53,200.94,517.53,201.08z"/>
				</g>
			</g>
			<g>
				<g>
					<path class="st12" d="M522.64,201.08c0.02,0.14-0.31,0.31-0.73,0.37c-0.42,0.06-0.79,0-0.81-0.14
						c-0.02-0.14,0.31-0.31,0.73-0.37C522.26,200.88,522.62,200.94,522.64,201.08z"/>
				</g>
			</g>
			<g>
				<g>
					<path class="st12" d="M539.11,202.11c-0.01,0.15-2.87,0.02-6.39-0.01c-3.52-0.04-6.38,0.04-6.39-0.11
						c-0.01-0.14,2.85-0.45,6.39-0.41C536.27,201.61,539.12,201.97,539.11,202.11z"/>
				</g>
			</g>
			<g>
				<g>
					<path class="st12" d="M543.72,201.54c0.03,0.14-0.24,0.31-0.59,0.37c-0.35,0.07-0.66,0-0.69-0.14
						c-0.03-0.14,0.24-0.31,0.59-0.37C543.39,201.34,543.69,201.4,543.72,201.54z"/>
				</g>
			</g>
			<g>
				<g>
					<path class="st12" d="M562.25,201.43c0.01,0.07-0.86,0.21-2.27,0.35c-1.41,0.14-3.36,0.26-5.52,0.3
						c-2.16,0.04-4.12-0.02-5.53-0.11c-1.41-0.09-2.28-0.2-2.28-0.27c0-0.07,0.88-0.09,2.29-0.1c1.61-0.01,3.46-0.03,5.51-0.05
						c2.04-0.05,3.89-0.1,5.51-0.14C561.37,201.37,562.25,201.36,562.25,201.43z"/>
				</g>
			</g>
			<g>
				<g>
					<path class="st12" d="M557.94,255.74c0.04,0.14-0.51,0.41-1.23,0.6c-0.72,0.19-1.33,0.23-1.36,0.09
						c-0.04-0.14,0.51-0.41,1.23-0.6C557.3,255.65,557.91,255.61,557.94,255.74z"/>
				</g>
			</g>
			<g>
				<g>
					<path class="st12" d="M557.71,253.87c0.04,0.14-0.77,0.48-1.81,0.77c-1.04,0.29-1.91,0.41-1.95,0.27
						c-0.04-0.14,0.77-0.48,1.81-0.77C556.8,253.85,557.67,253.73,557.71,253.87z"/>
				</g>
			</g>
			<g>
				<g>
					<path class="st12" d="M555.66,252.1c0.04,0.14-0.69,0.5-1.63,0.8c-0.95,0.31-1.75,0.44-1.79,0.31c-0.04-0.14,0.69-0.5,1.63-0.8
						C554.82,252.1,555.62,251.96,555.66,252.1z"/>
				</g>
			</g>
			<g>
				<g>
					<path class="st12" d="M554.28,250.5c0.03,0.14-0.78,0.4-1.79,0.58c-1.02,0.18-1.86,0.21-1.88,0.07
						c-0.03-0.14,0.78-0.4,1.79-0.58C553.41,250.39,554.25,250.36,554.28,250.5z"/>
				</g>
			</g>
			<g>
				<g>
					<path class="st12" d="M552.73,248.57c0.02,0.15-0.86,0.39-1.93,0.7c-1.07,0.31-1.95,0.57-2.01,0.44
						c-0.06-0.13,0.75-0.62,1.87-0.94C551.76,248.45,552.71,248.43,552.73,248.57z"/>
				</g>
			</g>
			<g>
				<g>
					<path class="st12" d="M551.18,246.89c0.06,0.12-0.76,0.64-1.91,0.91c-0.83,0.2-1.57,0.21-1.91,0.14l0.07-0.19
						c0.07,0.12,0.09,0.19,0.06,0.22c-0.03,0.03-0.1,0-0.22-0.07l-0.16-0.1l0.24-0.08c0.32-0.11,1.01-0.24,1.8-0.43
						C550.24,247.04,551.12,246.76,551.18,246.89z"/>
				</g>
			</g>
			<g>
				<g>
					<path class="st12" d="M558.41,251.23c-0.07-0.01,0.11-0.49,0.79-0.55c0.31-0.03,0.78,0.11,1.02,0.54
						c0.23,0.41,0.21,0.99-0.15,1.41c-0.39,0.44-1.02,0.44-1.4,0.23c-0.42-0.19-0.65-0.64-0.61-0.98c0.02-0.34,0.19-0.58,0.34-0.68
						c0.15-0.1,0.26-0.09,0.27-0.06c0.03,0.06-0.3,0.25-0.24,0.73c0.02,0.22,0.18,0.44,0.45,0.55c0.26,0.11,0.62,0.09,0.81-0.14
						c0.2-0.23,0.24-0.6,0.12-0.84c-0.11-0.25-0.37-0.37-0.6-0.39C558.71,250.99,558.46,251.28,558.41,251.23z"/>
				</g>
			</g>
			<g>
				<g>
					<path class="st12" d="M555.87,248.6c-0.07-0.01,0.11-0.49,0.79-0.55c0.31-0.03,0.78,0.11,1.02,0.54
						c0.23,0.41,0.21,0.99-0.15,1.41c-0.39,0.44-1.02,0.44-1.4,0.23c-0.42-0.19-0.65-0.64-0.61-0.98c0.02-0.34,0.19-0.58,0.34-0.68
						c0.15-0.1,0.26-0.09,0.27-0.06c0.03,0.06-0.3,0.25-0.24,0.73c0.02,0.22,0.18,0.44,0.45,0.55c0.26,0.11,0.62,0.09,0.81-0.14
						c0.2-0.23,0.24-0.6,0.12-0.84c-0.11-0.25-0.37-0.37-0.6-0.39C556.17,248.37,555.92,248.66,555.87,248.6z"/>
				</g>
			</g>
			<g>
				<g>
					<path class="st12" d="M552.9,246.02c-0.07-0.01,0.11-0.49,0.79-0.55c0.31-0.03,0.78,0.11,1.02,0.54
						c0.23,0.41,0.21,0.99-0.15,1.41c-0.39,0.44-1.02,0.44-1.4,0.23c-0.42-0.19-0.65-0.64-0.61-0.98c0.02-0.34,0.19-0.58,0.34-0.68
						c0.15-0.1,0.26-0.09,0.27-0.06c0.03,0.06-0.3,0.25-0.24,0.73c0.02,0.22,0.18,0.44,0.45,0.55c0.26,0.11,0.62,0.09,0.81-0.14
						c0.2-0.23,0.24-0.6,0.12-0.84c-0.11-0.25-0.37-0.37-0.6-0.39C553.2,245.79,552.95,246.07,552.9,246.02z"/>
				</g>
			</g>
			<g>
				<g>
					<path class="st12" d="M549.86,243.72c-0.07-0.01,0.11-0.49,0.79-0.55c0.31-0.03,0.78,0.11,1.02,0.54
						c0.23,0.41,0.21,0.99-0.15,1.41c-0.39,0.44-1.02,0.44-1.4,0.23c-0.42-0.19-0.65-0.64-0.61-0.98c0.02-0.34,0.19-0.58,0.34-0.68
						c0.15-0.1,0.26-0.09,0.27-0.06c0.03,0.06-0.3,0.25-0.24,0.73c0.02,0.22,0.18,0.44,0.45,0.55c0.26,0.11,0.62,0.09,0.81-0.14
						c0.2-0.23,0.24-0.6,0.12-0.84c-0.11-0.25-0.37-0.37-0.6-0.39C550.16,243.48,549.91,243.77,549.86,243.72z"/>
				</g>
			</g>
			<g>
				<g>
					<path class="st12" d="M555.71,244.54c-0.09,0.12-1.25-0.59-2.59-1.58c-1.35-0.99-2.37-1.89-2.28-2
						c0.09-0.12,1.25,0.59,2.59,1.58C554.77,243.53,555.79,244.42,555.71,244.54z"/>
				</g>
			</g>
			<g>
				<g>
					<path class="st12" d="M557.02,245.9c-0.1,0.11-0.28,0.1-0.42-0.02c-0.13-0.12-0.16-0.3-0.07-0.41c0.1-0.11,0.28-0.1,0.42,0.02
						C557.09,245.61,557.12,245.79,557.02,245.9z"/>
				</g>
			</g>
			<g>
				<g>
					<path class="st12" d="M562.49,250.02c-0.08,0.12-1.12-0.54-2.31-1.48c-1.19-0.93-2.09-1.78-1.99-1.89
						c0.09-0.11,1.13,0.55,2.31,1.48C561.68,249.06,562.57,249.9,562.49,250.02z"/>
				</g>
			</g>
			<g>
				<g>
					<path class="st12" d="M441.12,191.59c0.04,0.06-0.57,0.6-1.59,1.42c-1.02,0.83-2.46,1.94-4.06,3.14
						c-1.61,1.2-3.08,2.27-4.16,3.02c-1.08,0.75-1.77,1.19-1.81,1.13c-0.04-0.06,0.57-0.6,1.59-1.42c1.02-0.83,2.46-1.94,4.06-3.14
						c1.6-1.2,3.07-2.27,4.15-3.02C440.39,191.97,441.08,191.53,441.12,191.59z"/>
				</g>
			</g>
			<g>
				<g>
					<path class="st12" d="M432.73,202.42c-0.14,0.04-0.43-0.55-0.65-1.33c-0.22-0.77-0.29-1.43-0.15-1.47
						c0.14-0.04,0.43,0.55,0.65,1.33C432.8,201.73,432.87,202.38,432.73,202.42z"/>
				</g>
			</g>
			<g>
				<g>
					<path class="st12" d="M434.52,201.52c-0.13,0.05-0.47-0.51-0.75-1.26c-0.28-0.75-0.4-1.39-0.26-1.44
						c0.13-0.05,0.47,0.51,0.75,1.26C434.54,200.82,434.65,201.47,434.52,201.52z"/>
				</g>
			</g>
			<g>
				<g>
					<path class="st12" d="M436.1,199.99c-0.14,0.03-0.41-0.57-0.6-1.34c-0.19-0.77-0.23-1.43-0.09-1.46
						c0.14-0.03,0.41,0.57,0.6,1.34C436.2,199.3,436.24,199.95,436.1,199.99z"/>
				</g>
			</g>
			<g>
				<g>
					<path class="st12" d="M438.17,198.78c-0.14,0.03-0.43-0.66-0.65-1.54c-0.22-0.89-0.29-1.63-0.15-1.67
						c0.14-0.03,0.43,0.66,0.65,1.54C438.24,198,438.31,198.75,438.17,198.78z"/>
				</g>
			</g>
			<g>
				<g>
					<path class="st12" d="M439.87,197.36c-0.14,0.03-0.41-0.64-0.6-1.5c-0.19-0.86-0.23-1.58-0.09-1.61
						c0.14-0.03,0.41,0.64,0.6,1.5C439.96,196.6,440.01,197.32,439.87,197.36z"/>
				</g>
			</g>
			<g>
				<g>
					<path class="st12" d="M441.8,195.72c-0.13,0.05-0.46-0.54-0.62-1.32c-0.16-0.79-0.09-1.45,0.05-1.46
						c0.15-0.01,0.31,0.6,0.46,1.36C441.85,195.04,441.94,195.67,441.8,195.72z"/>
				</g>
			</g>
			<g>
				<g>
					<path class="st12" d="M435.33,202.63c-0.06-0.03,0.22-0.39,0.79-0.21c0.26,0.07,0.6,0.39,0.59,0.82c0,0.4-0.25,0.85-0.75,0.99
						c-0.5,0.11-0.93-0.17-1.12-0.52c-0.21-0.37-0.11-0.78,0.06-0.99c0.36-0.47,0.78-0.39,0.76-0.32c0.02,0.07-0.28,0.15-0.44,0.51
						c-0.08,0.17-0.09,0.39,0.04,0.56c0.12,0.18,0.38,0.31,0.59,0.26c0.21-0.04,0.38-0.29,0.39-0.49c0.02-0.21-0.1-0.37-0.26-0.47
						C435.64,202.56,435.36,202.7,435.33,202.63z"/>
				</g>
			</g>
			<g>
				<g>
					<path class="st12" d="M437.79,200.57c-0.06-0.03,0.22-0.39,0.79-0.21c0.26,0.07,0.6,0.39,0.59,0.82c0,0.4-0.25,0.85-0.75,0.99
						c-0.5,0.11-0.93-0.17-1.12-0.52c-0.21-0.37-0.11-0.78,0.06-0.99c0.36-0.47,0.78-0.39,0.76-0.32c0.02,0.07-0.28,0.15-0.44,0.51
						c-0.08,0.17-0.09,0.39,0.04,0.56c0.12,0.18,0.38,0.31,0.59,0.26c0.21-0.04,0.38-0.29,0.39-0.49c0.02-0.21-0.1-0.37-0.26-0.47
						C438.1,200.5,437.82,200.63,437.79,200.57z"/>
				</g>
			</g>
			<g>
				<g>
					<path class="st12" d="M440.31,198.38c-0.06-0.03,0.22-0.39,0.79-0.21c0.26,0.07,0.6,0.39,0.59,0.82c0,0.4-0.25,0.85-0.75,0.99
						c-0.5,0.11-0.93-0.17-1.12-0.52c-0.21-0.37-0.11-0.78,0.06-0.99c0.36-0.47,0.78-0.39,0.76-0.32c0.02,0.07-0.28,0.15-0.44,0.51
						c-0.08,0.17-0.09,0.39,0.04,0.56c0.12,0.18,0.38,0.31,0.59,0.26c0.21-0.04,0.38-0.29,0.39-0.49c0.02-0.21-0.1-0.37-0.26-0.47
						C440.62,198.31,440.34,198.44,440.31,198.38z"/>
				</g>
			</g>
			<g>
				<g>
					<path class="st12" d="M442.89,196.19c-0.06-0.03,0.22-0.39,0.79-0.21c0.26,0.07,0.6,0.39,0.59,0.82c0,0.4-0.25,0.85-0.75,0.99
						c-0.5,0.11-0.93-0.17-1.12-0.52c-0.21-0.37-0.11-0.78,0.06-0.99c0.36-0.47,0.78-0.39,0.76-0.32c0.02,0.07-0.28,0.15-0.44,0.51
						c-0.08,0.17-0.09,0.39,0.04,0.56c0.12,0.18,0.38,0.31,0.59,0.26c0.21-0.04,0.38-0.29,0.39-0.49c0.02-0.21-0.1-0.37-0.26-0.47
						C443.2,196.12,442.93,196.25,442.89,196.19z"/>
				</g>
			</g>
			<g>
				<g>
					<path class="st12" d="M439.45,203.46c0.09,0.11-0.54,0.81-1.42,1.56c-0.88,0.75-1.66,1.27-1.76,1.16
						c-0.09-0.11,0.54-0.81,1.42-1.56C438.57,203.87,439.35,203.35,439.45,203.46z"/>
				</g>
			</g>
			<g>
				<g>
					<path class="st20" d="M440.71,202.52"/>
				</g>
			</g>
			<g>
				<g>
					<path class="st12" d="M441.43,201.88c0.11,0.09,0.1,0.28-0.02,0.43c-0.12,0.14-0.31,0.18-0.42,0.09
						c-0.11-0.09-0.1-0.28,0.02-0.43C441.13,201.82,441.32,201.78,441.43,201.88z"/>
				</g>
			</g>
			<g>
				<g>
					<path class="st12" d="M445.96,197.46c0.1,0.1-0.57,0.92-1.49,1.83c-0.92,0.91-1.75,1.56-1.85,1.46
						c-0.1-0.1,0.57-0.92,1.49-1.83C445.03,198.01,445.86,197.35,445.96,197.46z"/>
				</g>
			</g>
			<g>
				<g>
					<path class="st12" d="M447.33,196.2c0,0.15,0.04,0.26,0.05,0.26c0,0-0.12,0-0.26,0.05c-0.14,0.05-0.3-0.15-0.17-0.35
						C447.09,195.97,447.34,196.05,447.33,196.2z"/>
				</g>
			</g>
			<g>
				<g>
					<path class="st12" d="M543.32,255.47c0,0.02-0.19,0.04-0.55,0.06c-0.42,0.02-0.95,0.05-1.59,0.08
						c-1.45,0.06-3.43,0.14-5.84,0.24c-4.93,0.21-11.74,0.56-19.25,1.14c-7.51,0.58-14.29,1.28-19.2,1.84
						c-2.4,0.27-4.36,0.5-5.81,0.66c-0.64,0.07-1.16,0.12-1.58,0.17c-0.36,0.03-0.55,0.04-0.56,0.02s0.18-0.06,0.54-0.13
						c0.42-0.07,0.93-0.16,1.57-0.26c1.36-0.22,3.34-0.5,5.79-0.83c4.9-0.65,11.68-1.41,19.2-1.99c7.52-0.58,14.34-0.88,19.28-0.99
						c2.47-0.06,4.47-0.08,5.85-0.08c0.64,0.01,1.17,0.01,1.59,0.02C543.13,255.44,543.32,255.45,543.32,255.47z"/>
				</g>
			</g>
			<g>
				<g>
					<path class="st12" d="M564.39,222.34c0.01,0.14-1.28,0.39-2.89,0.54c-1.61,0.16-2.93,0.17-2.94,0.02
						c-0.01-0.14,1.28-0.38,2.89-0.54C563.06,222.2,564.37,222.19,564.39,222.34z"/>
				</g>
			</g>
			<g>
				<g>
					<path class="st12" d="M561.86,219.04c0.1,0.11-0.8,1.1-2,2.22c-1.2,1.12-2.26,1.94-2.35,1.83c-0.1-0.11,0.8-1.1,2-2.22
						C560.71,219.76,561.76,218.93,561.86,219.04z"/>
				</g>
			</g>
			<g>
				<g>
					<path class="st3" d="M505.38,220.41c-0.13,0.06-0.8-1.31-1.5-3.07c-0.7-1.75-1.16-3.21-1.02-3.26c0.14-0.05,0.81,1.33,1.5,3.07
						C505.05,218.89,505.51,220.35,505.38,220.41z"/>
				</g>
			</g>
			<g>
				<g>
					<path class="st3" d="M513.38,210.31c-0.14-0.03-0.04-1.15,0.22-2.51c0.26-1.36,0.59-2.44,0.73-2.41
						c0.14,0.03,0.04,1.15-0.22,2.51C513.85,209.26,513.52,210.34,513.38,210.31z"/>
				</g>
			</g>
			<g>
				<g>
					<path class="st3" d="M523.64,223.64c-0.12,0.08-0.97-1.02-1.89-2.46c-0.92-1.44-1.57-2.66-1.45-2.74
						c0.12-0.08,0.97,1.02,1.89,2.46C523.12,222.33,523.76,223.56,523.64,223.64z"/>
				</g>
			</g>
			<g>
				<g>
					<path class="st3" d="M534.76,212.47c-0.14-0.05,0.15-1.18,0.63-2.54c0.48-1.35,0.99-2.41,1.12-2.36
						c0.14,0.05-0.15,1.18-0.63,2.54C535.4,211.46,534.89,212.52,534.76,212.47z"/>
				</g>
			</g>
			<g>
				<g>
					<path class="st3" d="M533,234.85c-0.14,0.01-0.37-0.99-0.5-2.24c-0.13-1.25-0.12-2.28,0.02-2.3s0.37,0.99,0.5,2.24
						C533.15,233.81,533.14,234.84,533,234.85z"/>
				</g>
			</g>
			<g>
				<g>
					<path class="st3" d="M513.02,235.19c-0.13,0.06-0.8-1.17-1.48-2.74c-0.69-1.57-1.14-2.89-1.01-2.95
						c0.13-0.06,0.8,1.17,1.48,2.74C512.7,233.81,513.15,235.13,513.02,235.19z"/>
				</g>
			</g>
			<g>
				<g>
					<path class="st3" d="M498.58,240.76c-0.11,0.1-1.02-0.77-2.05-1.92c-1.02-1.16-1.77-2.17-1.66-2.27
						c0.11-0.1,1.02,0.77,2.05,1.92C497.94,239.65,498.68,240.66,498.58,240.76z"/>
				</g>
			</g>
			<g>
				<g>
					<path class="st3" d="M524.81,249.92c-0.08,0.12-1.71-0.79-3.72-1.9c-2.01-1.12-3.64-2.02-3.58-2.15
						c0.06-0.13,1.81,0.57,3.83,1.69C523.37,248.69,524.89,249.8,524.81,249.92z"/>
				</g>
			</g>
			<g>
				<g>
					<path class="st3" d="M536.3,244.06c0.07,0.13-0.95,0.76-2.01,1.76c-1.07,0.98-1.78,1.95-1.9,1.87
						c-0.12-0.06,0.42-1.21,1.55-2.25C535.06,244.39,536.24,243.94,536.3,244.06z"/>
				</g>
			</g>
			<g>
				<g>
					<path class="st3" d="M497.52,224.97c-0.14,0.01-0.37-0.99-0.5-2.24c-0.13-1.25-0.12-2.28,0.02-2.3
						c0.14-0.01,0.37,0.99,0.5,2.24C497.67,223.92,497.67,224.95,497.52,224.97z"/>
				</g>
			</g>
			<g>
				<g>
					<path class="st3" d="M496.72,207.34c-0.06,0.13-1.23-0.28-2.67-0.73c-1.44-0.45-2.64-0.77-2.61-0.92
						c0.02-0.14,1.29-0.04,2.77,0.42C495.69,206.57,496.79,207.21,496.72,207.34z"/>
				</g>
			</g>
			<g>
				<g>
					<path class="st3" d="M478.25,209.75c-0.14-0.04,0.06-1.07,0.16-2.33c0.11-1.26,0.08-2.3,0.23-2.32
						c0.14-0.02,0.41,1.04,0.29,2.37C478.83,208.8,478.38,209.8,478.25,209.75z"/>
				</g>
			</g>
			<g>
				<g>
					<path class="st3" d="M474.9,220.93c-0.07,0.13-1.36-0.42-2.89-1.23c-1.53-0.81-2.71-1.57-2.65-1.69
						c0.07-0.13,1.36,0.42,2.89,1.23C473.78,220.04,474.97,220.8,474.9,220.93z"/>
				</g>
			</g>
			<g>
				<g>
					<path class="st3" d="M459.97,212.46c-0.15,0-0.28-1.4-0.68-3.07c-0.39-1.67-0.9-2.98-0.77-3.05c0.12-0.06,0.87,1.19,1.27,2.93
						C460.21,211,460.1,212.46,459.97,212.46z"/>
				</g>
			</g>
			<g>
				<g>
					<path class="st3" d="M457.93,218.15c-0.06,0.13-1.67-0.54-3.59-1.5c-1.92-0.96-3.42-1.84-3.36-1.97
						c0.06-0.13,1.67,0.54,3.59,1.5C456.49,217.14,457.99,218.02,457.93,218.15z"/>
				</g>
			</g>
			<g>
				<g>
					<path class="st3" d="M451.92,206.17c0.03,0.14-1.53,0.56-3.47,0.93c-1.94,0.37-3.54,0.56-3.57,0.42
						c-0.03-0.14,1.53-0.56,3.47-0.93C450.29,206.21,451.89,206.03,451.92,206.17z"/>
				</g>
			</g>
			<g>
				<g>
					<path class="st3" d="M564.94,212.68c-0.13-0.06,0.27-1.23,0.9-2.62c0.63-1.39,1.25-2.46,1.38-2.4s-0.27,1.23-0.9,2.62
						C565.68,211.66,565.07,212.74,564.94,212.68z"/>
				</g>
			</g>
			<g>
				<g>
					<path class="st3" d="M561.35,210.16c-0.07,0.13-1.52-0.52-3.32-1.26c-1.8-0.75-3.28-1.31-3.24-1.45
						c0.04-0.13,1.61,0.21,3.44,0.97C560.06,209.17,561.42,210.04,561.35,210.16z"/>
				</g>
			</g>
			<g>
				<g>
					<path class="st3" d="M574.01,227.59c-0.14-0.02-0.02-1.63,0.26-3.59c0.29-1.96,0.64-3.54,0.78-3.52
						c0.14,0.02,0.02,1.63-0.26,3.59C574.5,226.04,574.15,227.61,574.01,227.59z"/>
				</g>
			</g>
			<g>
				<g>
					<path class="st3" d="M567.73,235.39c-0.13,0.06-0.89-1.29-1.69-3.02c-0.8-1.73-1.35-3.18-1.22-3.24
						c0.13-0.06,0.89,1.29,1.69,3.02C567.31,233.88,567.86,235.33,567.73,235.39z"/>
				</g>
			</g>
			<g>
				<g>
					<path class="st3" d="M562.59,238.82c0.02,0.14-1.3,0.44-2.95,0.66c-1.65,0.22-3,0.29-3.02,0.14c-0.02-0.14,1.3-0.44,2.95-0.66
						C561.22,238.75,562.57,238.68,562.59,238.82z"/>
				</g>
			</g>
		</g>
		<g>
			<g>
				<path class="st15" d="M545.9,254.51c0,0-3.13,2.16-6.66,5.38c-2,1.82,1.93,12.65,4.09,10.75c2.16-1.91,8.1-9.37,8.1-9.37
					L545.9,254.51z"/>
			</g>
			<g>
				<path class="st16" d="M543.02,270.83c0,0,6.15-0.68,5.98-1.95c-0.17-1.27-1.52-2.79-1.52-2.79L543.02,270.83z"/>
			</g>
		</g>
	</g>
</g>
</svg>
